<svg width="137" height="105" viewBox="0 0 137 105" fill="none" xmlns="http://www.w3.org/2000/svg">
<path d="M82.2073 2.09454C86.0914 1.40216 89.3946 1.31392 91.8398 1.83282C92.3625 4.43811 92.2688 7.84776 91.5758 11.7865C90.8555 15.8807 89.505 20.4497 87.635 25.1114C83.8889 34.45 78.1155 44.0195 71.341 50.792L71.3353 50.7977C68.9379 53.2204 66.3351 55.4285 63.5564 57.3971L62.8556 57.8936L62.929 58.7493C63.2838 62.8836 62.954 66.88 61.5022 70.2275C59.4337 74.9774 55.6632 78.0914 51.7101 80.1335C47.7511 82.1785 43.6985 83.0994 41.2528 83.4935L41.2407 83.4956C41.1924 83.5037 41.143 83.5006 41.0959 83.4863C41.0489 83.472 41.0052 83.4467 40.9684 83.4119C40.9317 83.3771 40.9029 83.3337 40.8849 83.2849C40.867 83.2363 40.8605 83.1839 40.8659 83.132C40.8659 83.1317 40.8659 83.1313 40.866 83.131L42.6763 66.5741L42.8564 64.9277L41.2002 64.9111C40.014 64.8993 38.8291 64.827 37.6501 64.6945L37.6397 64.6933L37.6293 64.6923C37.1205 64.6423 36.6438 64.4152 36.2819 64.0487L36.2764 64.0432L29.8861 57.6376L29.882 57.6335C29.5174 57.2709 29.2896 56.7902 29.24 56.2744L29.2389 56.2635L29.2377 56.2525C29.1052 55.0604 29.0332 53.8623 29.0219 52.6629L29.0063 51.0033L27.3567 51.1861L10.8562 53.0148C10.8079 53.0201 10.7588 53.014 10.7128 52.997C10.6667 52.9799 10.6246 52.9522 10.5901 52.9153C10.5554 52.8783 10.5293 52.8333 10.5143 52.7835C10.4993 52.7336 10.496 52.6808 10.5048 52.6293L10.5062 52.6207C10.9093 50.154 11.8316 46.0821 13.8706 42.1026C15.9067 38.1289 19.0066 34.3391 23.7317 32.2487C27.0569 30.7929 31.0491 30.4698 35.1838 30.8373L36.0456 30.9139L36.5435 30.2061C38.5027 27.4208 40.6998 24.8124 43.1098 22.4105L43.1138 22.4064C49.8636 15.6273 59.5335 9.82406 68.9088 6.05584C73.5883 4.175 78.1565 2.81665 82.2073 2.09454ZM54.5763 30.8984C54.9842 32.9564 55.9907 34.8476 57.4694 36.3324C58.4499 37.3187 59.6146 38.1016 60.8971 38.6359C62.1802 39.1704 63.5558 39.4456 64.9452 39.4456C66.3346 39.4456 67.7102 39.1704 68.9932 38.6359C70.2758 38.1016 71.4405 37.3187 72.421 36.3324C73.8997 34.8476 74.9062 32.9564 75.3141 30.8984C75.7221 28.8404 75.5134 26.707 74.7143 24.7677C73.9152 22.8284 72.5612 21.1696 70.8223 20.002C69.0834 18.8343 67.0381 18.2107 64.9452 18.2107C62.8523 18.2107 60.807 18.8343 59.0681 20.002C57.3292 21.1696 55.9752 22.8284 55.176 24.7677C54.377 26.707 54.1683 28.8404 54.5763 30.8984Z" fill="black" stroke="white" stroke-width="3"/>
<path d="M30.2816 72.9111C31.6293 72.6748 33.0838 72.3818 34.3212 71.7341C33.8628 73.3326 33.012 74.7953 31.8396 75.9797L31.8373 75.982C31.0007 76.8308 29.4412 77.6103 27.3346 78.2637C25.2766 78.9019 22.893 79.362 20.6017 79.6898C18.3173 80.0165 16.1626 80.2065 14.5766 80.3147C14.2246 80.3387 13.9011 80.3587 13.611 80.3752C13.6275 80.0754 13.6476 79.7399 13.6719 79.3741C13.7786 77.7661 13.966 75.5814 14.2884 73.2646C14.6117 70.9411 15.0657 68.5222 15.6959 66.4325C16.3412 64.2929 17.1121 62.7058 17.9513 61.8544C19.1453 60.6447 20.6191 59.7761 22.2244 59.3192C22.0741 59.6436 21.9275 60.0001 21.7901 60.3675C21.4304 61.3296 21.0983 62.4631 20.9255 63.4425L20.9252 63.4442C19.9436 69.044 24.774 73.8624 30.2778 72.9118L30.2816 72.9111Z" fill="black" stroke="white" stroke-width="3"/>
<mask id="path-3-outside-1_202_214" maskUnits="userSpaceOnUse" x="23.9878" y="22.8732" width="79.5352" height="58.7866" fill="black">
<rect fill="white" x="23.9878" y="22.8732" width="79.5352" height="58.7866"/>
<path d="M48.9621 58.7212L48.4561 57.1978L51.6447 55.463L52.1507 56.9864L48.9621 58.7212ZM49.5839 55.0587L49.5099 57.2962L49.8229 57.7065L49.6363 59.379L47.4315 60.5785L48.3629 51.4995L54.1953 56.8986L52.0871 58.0456L51.0501 57.0957L50.9592 56.5076L49.5839 55.0587ZM54.7726 53.5563C54.9588 53.6903 55.1501 53.7987 55.3465 53.8816C55.543 53.9644 55.7395 54.0055 55.9362 54.0047C56.1329 54.004 56.3249 53.9526 56.5123 53.8507C56.606 53.7997 56.6904 53.7386 56.7656 53.6673C56.8434 53.587 56.9002 53.503 56.9361 53.4152C56.9746 53.3183 56.9789 53.2211 56.9489 53.1236C56.9179 52.9963 56.8453 52.9181 56.7311 52.8892C56.6169 52.8603 56.4633 52.8566 56.2703 52.8781C56.0799 52.8906 55.8571 52.9131 55.6019 52.9457C55.385 52.9651 55.1569 52.9639 54.9178 52.9422C54.6814 52.9115 54.4484 52.8523 54.2191 52.7646C53.9924 52.6678 53.7868 52.533 53.6023 52.3602C53.4146 52.1815 53.2654 51.9477 53.1546 51.6589C52.9942 51.2224 52.9712 50.7948 53.0856 50.3758C53.2 49.9569 53.4065 49.5751 53.7052 49.2304C54.0097 48.8826 54.3685 48.6001 54.7816 48.383C55.1739 48.1695 55.5485 48.0492 55.9052 48.0221C56.2588 47.9891 56.5893 48.0256 56.8968 48.1315C57.2069 48.2284 57.4829 48.3742 57.7248 48.569L56.6503 50.1554C56.5134 50.0705 56.3788 50.0109 56.2465 49.9766C56.117 49.9333 55.9913 49.9182 55.8695 49.9313C55.7446 49.9385 55.6207 49.9756 55.4977 50.0425C55.4215 50.084 55.3488 50.1387 55.2795 50.2067C55.2071 50.2689 55.1543 50.3394 55.1211 50.4182C55.0847 50.4911 55.0768 50.5675 55.0973 50.6474C55.1246 50.754 55.1941 50.8263 55.3056 50.8642C55.4139 50.8964 55.5455 50.9083 55.7002 50.9C55.8517 50.8859 56.0104 50.864 56.1764 50.8345C56.345 50.7959 56.5005 50.7682 56.643 50.7513C57.0078 50.6971 57.3421 50.7125 57.6459 50.7977C57.9466 50.877 58.2061 51.0204 58.4245 51.2279C58.6456 51.4264 58.8181 51.6892 58.9421 52.0164C59.1189 52.497 59.1492 52.9663 59.033 53.4241C58.9196 53.8729 58.7051 54.2818 58.3893 54.6509C58.0826 55.0227 57.7156 55.3249 57.2881 55.5574C56.8808 55.7714 56.4693 55.9004 56.0535 55.9445C55.6467 55.9913 55.2551 55.9539 54.8786 55.8324C54.502 55.7109 54.1693 55.5163 53.8804 55.2485L54.7726 53.5563ZM58.2234 48.958L57.5941 47.0805L62.9084 44.1891L63.5378 46.0666L61.8425 46.989L63.4816 51.8462L61.5755 52.8833L59.9363 48.0261L58.2234 48.958ZM66.5563 46.7581L68.4448 45.7306L71.1199 47.6905L68.9766 48.8566L66.5563 46.7581ZM63.4755 43.8806L65.3817 42.8435L67.659 49.5734L65.7529 50.6105L63.4755 43.8806ZM65.2959 44.9963L64.6877 43.221L65.9526 42.5328C66.4621 42.2557 66.9372 42.111 67.3779 42.0989C67.8154 42.081 68.1989 42.1873 68.5283 42.4179C68.8605 42.6395 69.1176 42.9815 69.2996 43.4441C69.4817 43.9066 69.5355 44.3631 69.4608 44.8136C69.3862 45.264 69.1929 45.6841 68.8808 46.074C68.5687 46.4639 68.1492 46.8022 67.6222 47.0889L66.2431 47.8393L65.7213 46.2447L66.8105 45.6521C66.9569 45.5725 67.0776 45.4803 67.1725 45.3755C67.2701 45.2617 67.3332 45.1401 67.3617 45.0107C67.3961 44.8782 67.3917 44.744 67.3485 44.6081C67.3085 44.4781 67.2457 44.3832 67.1603 44.3234C67.0749 44.2636 66.9727 44.2358 66.8536 44.2398C66.7345 44.2439 66.6076 44.2826 66.4729 44.3559L65.2959 44.9963ZM72.245 43.0939C72.3204 43.3033 72.4161 43.4941 72.532 43.6663C72.6506 43.8294 72.789 43.9591 72.9471 44.0552C73.1053 44.1513 73.2813 44.2035 73.4753 44.2118C73.6661 44.2142 73.867 44.1581 74.0778 44.0434C74.2976 43.9314 74.4777 43.7879 74.618 43.6129C74.761 43.4288 74.8662 43.2312 74.9338 43.0198C75.0041 42.7995 75.0369 42.5729 75.0322 42.3402C75.0244 42.1016 74.9825 41.8701 74.9066 41.6458C74.8312 41.4364 74.7326 41.2471 74.6108 41.0781C74.4949 40.9059 74.3578 40.7718 74.1997 40.6756C74.0474 40.5763 73.8759 40.5255 73.6851 40.523C73.4969 40.5116 73.2916 40.5664 73.0691 40.6874C72.8524 40.8053 72.671 40.9533 72.5248 41.1315C72.3845 41.3065 72.2793 41.5042 72.209 41.7246C72.1446 41.9418 72.1147 42.1667 72.1194 42.3995C72.1241 42.6322 72.1659 42.8637 72.245 43.0939ZM70.2335 44.1883C70.0467 43.6751 69.9613 43.16 69.9771 42.6429C69.9897 42.1199 70.0911 41.6208 70.2811 41.1455C70.468 40.6644 70.7323 40.2284 71.0742 39.8375C71.4187 39.4375 71.831 39.1069 72.3112 38.8457C72.7856 38.5876 73.2575 38.4371 73.727 38.3942C74.1964 38.3513 74.638 38.4108 75.0516 38.5728C75.4679 38.7258 75.8366 38.973 76.1578 39.3143C76.4816 39.6466 76.7351 40.059 76.9181 40.5514C77.1049 41.0645 77.1964 41.5839 77.1928 42.1095C77.1892 42.6352 77.0971 43.1444 76.9166 43.6373C76.7329 44.1243 76.4675 44.5723 76.1203 44.9813C75.7789 45.3871 75.3623 45.7238 74.8704 45.9915C74.3844 46.2559 73.9034 46.4037 73.4276 46.4349C72.9518 46.4661 72.5055 46.3978 72.0887 46.2299C71.6746 46.0529 71.3069 45.7938 70.9858 45.4524C70.6673 45.102 70.4165 44.6807 70.2335 44.1883ZM39.1987 73.1405L38.6927 71.6171L41.8813 69.8823L42.3873 71.4057L39.1987 73.1405ZM39.8206 69.478L39.7465 71.7155L40.0595 72.1258L39.873 73.7983L37.6681 74.9978L38.5995 65.9188L44.4319 71.3179L42.3237 72.4649L41.2867 71.515L41.1958 70.9269L39.8206 69.478ZM42.6977 64.2924L44.6829 63.2124L46.9603 69.9423L44.9751 71.0224L42.6977 64.2924ZM47.3907 69.7081L46.2663 70.3199L45.6607 68.4863L46.5831 67.9845C46.8524 67.838 47.0834 67.6554 47.2759 67.4368C47.4743 67.215 47.6028 66.9554 47.6616 66.6577C47.7262 66.357 47.6897 66.0163 47.5521 65.6358C47.4476 65.3587 47.3273 65.1434 47.1911 64.9898C47.0518 64.8303 46.8992 64.7236 46.7335 64.6695C46.5679 64.6155 46.3917 64.6051 46.205 64.6383C46.0183 64.6716 45.8284 64.7408 45.6351 64.8459L44.5986 65.4099L43.9978 63.5851L44.9992 63.0403C45.4911 62.7727 45.9699 62.607 46.4358 62.5433C46.9016 62.4796 47.3334 62.5141 47.7311 62.6468C48.1347 62.7764 48.4924 63.003 48.804 63.3268C49.1125 63.6447 49.3569 64.0543 49.5373 64.5558C49.724 65.0689 49.8121 65.575 49.8017 66.074C49.7881 66.5671 49.6873 67.0394 49.4995 67.4907C49.3085 67.9361 49.0359 68.35 48.6819 68.7324C48.3306 69.1057 47.9002 69.4309 47.3907 69.7081ZM52.8086 62.6393L52.7987 58.7969L55.0825 57.5543L54.2518 66.5672L48.3188 61.2342L50.5236 60.0347L52.8086 62.6393ZM59.1679 63.3005L58.6074 61.6132L61.6467 59.9597L62.2072 61.6469L59.1679 63.3005ZM57.4599 58.2531L56.8994 56.5658L59.9387 54.9122L60.4992 56.5995L57.4599 58.2531ZM58.272 60.6573L57.7265 59.0188L60.5989 57.456L61.1444 59.0945L58.272 60.6573ZM55.5994 57.2731L57.4177 56.2838L59.695 63.0138L57.8767 64.003L55.5994 57.2731ZM64.8948 52.2158L66.7131 51.2265L69.1035 58.2706L64.0775 57.0092L65.1078 60.0688L63.2895 61.0581L60.8991 54.014L65.9163 55.2802L64.8948 52.2158ZM67.9068 52.7969L67.2774 50.9194L72.5918 48.0281L73.2212 49.9056L71.5258 50.8279L73.165 55.6852L71.2589 56.7222L69.6197 51.865L67.9068 52.7969ZM73.115 47.7434L75.0211 46.7063L76.4688 51.0416C76.5274 51.1919 76.6033 51.3251 76.6965 51.4414C76.7924 51.5486 76.9049 51.6164 77.034 51.6448C77.1631 51.6733 77.3112 51.6458 77.4784 51.5625C77.6514 51.4759 77.7816 51.3595 77.8692 51.2132C77.9568 51.0669 78.0038 50.9085 78.0101 50.7381C78.0223 50.5645 78.0018 50.3935 77.9486 50.2251L76.4969 45.9035L78.3942 44.8712L79.9371 49.3823C80.1406 49.9546 80.1941 50.4947 80.0976 51.0026C80.001 51.5106 79.7865 51.9688 79.4542 52.3772C79.1278 52.7825 78.7157 53.1206 78.2179 53.3914C77.7377 53.6527 77.2655 53.7957 76.8014 53.8205C76.3373 53.8454 75.9164 53.7329 75.5386 53.483C75.1667 53.23 74.8731 52.8205 74.6579 52.2546L73.115 47.7434ZM82.5961 47.1388L84.4847 46.1112L87.1597 48.0711L85.0164 49.2372L82.5961 47.1388ZM79.5154 44.2612L81.4215 43.2241L83.6988 49.9541L81.7927 50.9911L79.5154 44.2612ZM81.3357 45.3769L80.7276 43.6017L81.9925 42.9135C82.5019 42.6363 82.977 42.4917 83.4177 42.4796C83.8552 42.4616 84.2387 42.568 84.5682 42.7985C84.9003 43.0201 85.1574 43.3621 85.3395 43.8247C85.5216 44.2873 85.5753 44.7437 85.5007 45.1942C85.426 45.6446 85.2327 46.0648 84.9206 46.4546C84.6086 46.8445 84.189 47.1828 83.662 47.4696L82.2829 48.2199L81.7611 46.6254L82.8504 46.0327C82.9968 45.9531 83.1174 45.8609 83.2123 45.7561C83.3099 45.6423 83.373 45.5207 83.4015 45.3914C83.4359 45.2588 83.4315 45.1246 83.3883 44.9887C83.3483 44.8587 83.2856 44.7638 83.2002 44.704C83.1147 44.6442 83.0125 44.6164 82.8934 44.6205C82.7743 44.6245 82.6475 44.6632 82.5128 44.7365L81.3357 45.3769ZM89.0458 47.0449L88.4852 45.3577L91.5245 43.7041L92.0851 45.3914L89.0458 47.0449ZM87.3378 41.9975L86.7773 40.3102L89.8165 38.6567L90.3771 40.3439L87.3378 41.9975ZM88.1499 44.4017L87.6043 42.7632L90.4767 41.2004L91.0223 42.839L88.1499 44.4017ZM85.4772 41.0175L87.2955 40.0283L89.5728 46.7582L87.7545 47.7475L85.4772 41.0175ZM93.2015 41.7558C93.3877 41.8897 93.579 41.9982 93.7754 42.081C93.9719 42.1639 94.1684 42.2049 94.3651 42.2042C94.5618 42.2034 94.7538 42.1521 94.9412 42.0501C95.0349 41.9991 95.1193 41.938 95.1945 41.8668C95.2723 41.7865 95.3292 41.7024 95.365 41.6146C95.4036 41.5178 95.4078 41.4206 95.3778 41.3231C95.3468 41.1957 95.2742 41.1176 95.16 41.0887C95.0458 41.0597 94.8922 41.056 94.6992 41.0775C94.5088 41.09 94.2861 41.1126 94.0308 41.1452C93.8139 41.1645 93.5859 41.1634 93.3467 41.1417C93.1103 41.111 92.8774 41.0517 92.648 40.964C92.4213 40.8673 92.2157 40.7325 92.0312 40.5596C91.8435 40.3809 91.6943 40.1472 91.5835 39.8583C91.4231 39.4219 91.4001 38.9942 91.5145 38.5753C91.6289 38.1563 91.8355 37.7745 92.1341 37.4299C92.4386 37.0821 92.7974 36.7996 93.2105 36.5824C93.6028 36.369 93.9774 36.2487 94.3341 36.2215C94.6877 36.1886 95.0182 36.225 95.3257 36.331C95.6359 36.4279 95.9119 36.5737 96.1537 36.7685L95.0792 38.3549C94.9423 38.27 94.8077 38.2104 94.6755 38.1761C94.5459 38.1327 94.4202 38.1176 94.2985 38.1307C94.1735 38.138 94.0496 38.1751 93.9266 38.242C93.8505 38.2834 93.7778 38.3381 93.7085 38.4062C93.636 38.4684 93.5832 38.5389 93.55 38.6176C93.5136 38.6905 93.5057 38.767 93.5262 38.8469C93.5536 38.9534 93.623 39.0257 93.7345 39.0637C93.8429 39.0958 93.9744 39.1077 94.1291 39.0995C94.2806 39.0853 94.4393 39.0635 94.6053 39.0339C94.7739 38.9953 94.9294 38.9676 95.0719 38.9508C95.4367 38.8965 95.771 38.912 96.0749 38.9971C96.3755 39.0764 96.635 39.2198 96.8534 39.4273C97.0745 39.6258 97.2471 39.8886 97.3711 40.2158C97.5478 40.6965 97.5781 41.1657 97.462 41.6235C97.3485 42.0723 97.134 42.4813 96.8182 42.8504C96.5116 43.2221 96.1445 43.5243 95.717 43.7569C95.3097 43.9709 94.8982 44.0999 94.4824 44.144C94.0757 44.1907 93.684 44.1534 93.3075 44.0319C92.931 43.9104 92.5982 43.7157 92.3093 43.4479L93.2015 41.7558Z"/>
</mask>
<path d="M48.9621 58.7212L48.4561 57.1978L51.6447 55.463L52.1507 56.9864L48.9621 58.7212ZM49.5839 55.0587L49.5099 57.2962L49.8229 57.7065L49.6363 59.379L47.4315 60.5785L48.3629 51.4995L54.1953 56.8986L52.0871 58.0456L51.0501 57.0957L50.9592 56.5076L49.5839 55.0587ZM54.7726 53.5563C54.9588 53.6903 55.1501 53.7987 55.3465 53.8816C55.543 53.9644 55.7395 54.0055 55.9362 54.0047C56.1329 54.004 56.3249 53.9526 56.5123 53.8507C56.606 53.7997 56.6904 53.7386 56.7656 53.6673C56.8434 53.587 56.9002 53.503 56.9361 53.4152C56.9746 53.3183 56.9789 53.2211 56.9489 53.1236C56.9179 52.9963 56.8453 52.9181 56.7311 52.8892C56.6169 52.8603 56.4633 52.8566 56.2703 52.8781C56.0799 52.8906 55.8571 52.9131 55.6019 52.9457C55.385 52.9651 55.1569 52.9639 54.9178 52.9422C54.6814 52.9115 54.4484 52.8523 54.2191 52.7646C53.9924 52.6678 53.7868 52.533 53.6023 52.3602C53.4146 52.1815 53.2654 51.9477 53.1546 51.6589C52.9942 51.2224 52.9712 50.7948 53.0856 50.3758C53.2 49.9569 53.4065 49.5751 53.7052 49.2304C54.0097 48.8826 54.3685 48.6001 54.7816 48.383C55.1739 48.1695 55.5485 48.0492 55.9052 48.0221C56.2588 47.9891 56.5893 48.0256 56.8968 48.1315C57.2069 48.2284 57.4829 48.3742 57.7248 48.569L56.6503 50.1554C56.5134 50.0705 56.3788 50.0109 56.2465 49.9766C56.117 49.9333 55.9913 49.9182 55.8695 49.9313C55.7446 49.9385 55.6207 49.9756 55.4977 50.0425C55.4215 50.084 55.3488 50.1387 55.2795 50.2067C55.2071 50.2689 55.1543 50.3394 55.1211 50.4182C55.0847 50.4911 55.0768 50.5675 55.0973 50.6474C55.1246 50.754 55.1941 50.8263 55.3056 50.8642C55.4139 50.8964 55.5455 50.9083 55.7002 50.9C55.8517 50.8859 56.0104 50.864 56.1764 50.8345C56.345 50.7959 56.5005 50.7682 56.643 50.7513C57.0078 50.6971 57.3421 50.7125 57.6459 50.7977C57.9466 50.877 58.2061 51.0204 58.4245 51.2279C58.6456 51.4264 58.8181 51.6892 58.9421 52.0164C59.1189 52.497 59.1492 52.9663 59.033 53.4241C58.9196 53.8729 58.7051 54.2818 58.3893 54.6509C58.0826 55.0227 57.7156 55.3249 57.2881 55.5574C56.8808 55.7714 56.4693 55.9004 56.0535 55.9445C55.6467 55.9913 55.2551 55.9539 54.8786 55.8324C54.502 55.7109 54.1693 55.5163 53.8804 55.2485L54.7726 53.5563ZM58.2234 48.958L57.5941 47.0805L62.9084 44.1891L63.5378 46.0666L61.8425 46.989L63.4816 51.8462L61.5755 52.8833L59.9363 48.0261L58.2234 48.958ZM66.5563 46.7581L68.4448 45.7306L71.1199 47.6905L68.9766 48.8566L66.5563 46.7581ZM63.4755 43.8806L65.3817 42.8435L67.659 49.5734L65.7529 50.6105L63.4755 43.8806ZM65.2959 44.9963L64.6877 43.221L65.9526 42.5328C66.4621 42.2557 66.9372 42.111 67.3779 42.0989C67.8154 42.081 68.1989 42.1873 68.5283 42.4179C68.8605 42.6395 69.1176 42.9815 69.2996 43.4441C69.4817 43.9066 69.5355 44.3631 69.4608 44.8136C69.3862 45.264 69.1929 45.6841 68.8808 46.074C68.5687 46.4639 68.1492 46.8022 67.6222 47.0889L66.2431 47.8393L65.7213 46.2447L66.8105 45.6521C66.9569 45.5725 67.0776 45.4803 67.1725 45.3755C67.2701 45.2617 67.3332 45.1401 67.3617 45.0107C67.3961 44.8782 67.3917 44.744 67.3485 44.6081C67.3085 44.4781 67.2457 44.3832 67.1603 44.3234C67.0749 44.2636 66.9727 44.2358 66.8536 44.2398C66.7345 44.2439 66.6076 44.2826 66.4729 44.3559L65.2959 44.9963ZM72.245 43.0939C72.3204 43.3033 72.4161 43.4941 72.532 43.6663C72.6506 43.8294 72.789 43.9591 72.9471 44.0552C73.1053 44.1513 73.2813 44.2035 73.4753 44.2118C73.6661 44.2142 73.867 44.1581 74.0778 44.0434C74.2976 43.9314 74.4777 43.7879 74.618 43.6129C74.761 43.4288 74.8662 43.2312 74.9338 43.0198C75.0041 42.7995 75.0369 42.5729 75.0322 42.3402C75.0244 42.1016 74.9825 41.8701 74.9066 41.6458C74.8312 41.4364 74.7326 41.2471 74.6108 41.0781C74.4949 40.9059 74.3578 40.7718 74.1997 40.6756C74.0474 40.5763 73.8759 40.5255 73.6851 40.523C73.4969 40.5116 73.2916 40.5664 73.0691 40.6874C72.8524 40.8053 72.671 40.9533 72.5248 41.1315C72.3845 41.3065 72.2793 41.5042 72.209 41.7246C72.1446 41.9418 72.1147 42.1667 72.1194 42.3995C72.1241 42.6322 72.1659 42.8637 72.245 43.0939ZM70.2335 44.1883C70.0467 43.6751 69.9613 43.16 69.9771 42.6429C69.9897 42.1199 70.0911 41.6208 70.2811 41.1455C70.468 40.6644 70.7323 40.2284 71.0742 39.8375C71.4187 39.4375 71.831 39.1069 72.3112 38.8457C72.7856 38.5876 73.2575 38.4371 73.727 38.3942C74.1964 38.3513 74.638 38.4108 75.0516 38.5728C75.4679 38.7258 75.8366 38.973 76.1578 39.3143C76.4816 39.6466 76.7351 40.059 76.9181 40.5514C77.1049 41.0645 77.1964 41.5839 77.1928 42.1095C77.1892 42.6352 77.0971 43.1444 76.9166 43.6373C76.7329 44.1243 76.4675 44.5723 76.1203 44.9813C75.7789 45.3871 75.3623 45.7238 74.8704 45.9915C74.3844 46.2559 73.9034 46.4037 73.4276 46.4349C72.9518 46.4661 72.5055 46.3978 72.0887 46.2299C71.6746 46.0529 71.3069 45.7938 70.9858 45.4524C70.6673 45.102 70.4165 44.6807 70.2335 44.1883ZM39.1987 73.1405L38.6927 71.6171L41.8813 69.8823L42.3873 71.4057L39.1987 73.1405ZM39.8206 69.478L39.7465 71.7155L40.0595 72.1258L39.873 73.7983L37.6681 74.9978L38.5995 65.9188L44.4319 71.3179L42.3237 72.4649L41.2867 71.515L41.1958 70.9269L39.8206 69.478ZM42.6977 64.2924L44.6829 63.2124L46.9603 69.9423L44.9751 71.0224L42.6977 64.2924ZM47.3907 69.7081L46.2663 70.3199L45.6607 68.4863L46.5831 67.9845C46.8524 67.838 47.0834 67.6554 47.2759 67.4368C47.4743 67.215 47.6028 66.9554 47.6616 66.6577C47.7262 66.357 47.6897 66.0163 47.5521 65.6358C47.4476 65.3587 47.3273 65.1434 47.1911 64.9898C47.0518 64.8303 46.8992 64.7236 46.7335 64.6695C46.5679 64.6155 46.3917 64.6051 46.205 64.6383C46.0183 64.6716 45.8284 64.7408 45.6351 64.8459L44.5986 65.4099L43.9978 63.5851L44.9992 63.0403C45.4911 62.7727 45.9699 62.607 46.4358 62.5433C46.9016 62.4796 47.3334 62.5141 47.7311 62.6468C48.1347 62.7764 48.4924 63.003 48.804 63.3268C49.1125 63.6447 49.3569 64.0543 49.5373 64.5558C49.724 65.0689 49.8121 65.575 49.8017 66.074C49.7881 66.5671 49.6873 67.0394 49.4995 67.4907C49.3085 67.9361 49.0359 68.35 48.6819 68.7324C48.3306 69.1057 47.9002 69.4309 47.3907 69.7081ZM52.8086 62.6393L52.7987 58.7969L55.0825 57.5543L54.2518 66.5672L48.3188 61.2342L50.5236 60.0347L52.8086 62.6393ZM59.1679 63.3005L58.6074 61.6132L61.6467 59.9597L62.2072 61.6469L59.1679 63.3005ZM57.4599 58.2531L56.8994 56.5658L59.9387 54.9122L60.4992 56.5995L57.4599 58.2531ZM58.272 60.6573L57.7265 59.0188L60.5989 57.456L61.1444 59.0945L58.272 60.6573ZM55.5994 57.2731L57.4177 56.2838L59.695 63.0138L57.8767 64.003L55.5994 57.2731ZM64.8948 52.2158L66.7131 51.2265L69.1035 58.2706L64.0775 57.0092L65.1078 60.0688L63.2895 61.0581L60.8991 54.014L65.9163 55.2802L64.8948 52.2158ZM67.9068 52.7969L67.2774 50.9194L72.5918 48.0281L73.2212 49.9056L71.5258 50.8279L73.165 55.6852L71.2589 56.7222L69.6197 51.865L67.9068 52.7969ZM73.115 47.7434L75.0211 46.7063L76.4688 51.0416C76.5274 51.1919 76.6033 51.3251 76.6965 51.4414C76.7924 51.5486 76.9049 51.6164 77.034 51.6448C77.1631 51.6733 77.3112 51.6458 77.4784 51.5625C77.6514 51.4759 77.7816 51.3595 77.8692 51.2132C77.9568 51.0669 78.0038 50.9085 78.0101 50.7381C78.0223 50.5645 78.0018 50.3935 77.9486 50.2251L76.4969 45.9035L78.3942 44.8712L79.9371 49.3823C80.1406 49.9546 80.1941 50.4947 80.0976 51.0026C80.001 51.5106 79.7865 51.9688 79.4542 52.3772C79.1278 52.7825 78.7157 53.1206 78.2179 53.3914C77.7377 53.6527 77.2655 53.7957 76.8014 53.8205C76.3373 53.8454 75.9164 53.7329 75.5386 53.483C75.1667 53.23 74.8731 52.8205 74.6579 52.2546L73.115 47.7434ZM82.5961 47.1388L84.4847 46.1112L87.1597 48.0711L85.0164 49.2372L82.5961 47.1388ZM79.5154 44.2612L81.4215 43.2241L83.6988 49.9541L81.7927 50.9911L79.5154 44.2612ZM81.3357 45.3769L80.7276 43.6017L81.9925 42.9135C82.5019 42.6363 82.977 42.4917 83.4177 42.4796C83.8552 42.4616 84.2387 42.568 84.5682 42.7985C84.9003 43.0201 85.1574 43.3621 85.3395 43.8247C85.5216 44.2873 85.5753 44.7437 85.5007 45.1942C85.426 45.6446 85.2327 46.0648 84.9206 46.4546C84.6086 46.8445 84.189 47.1828 83.662 47.4696L82.2829 48.2199L81.7611 46.6254L82.8504 46.0327C82.9968 45.9531 83.1174 45.8609 83.2123 45.7561C83.3099 45.6423 83.373 45.5207 83.4015 45.3914C83.4359 45.2588 83.4315 45.1246 83.3883 44.9887C83.3483 44.8587 83.2856 44.7638 83.2002 44.704C83.1147 44.6442 83.0125 44.6164 82.8934 44.6205C82.7743 44.6245 82.6475 44.6632 82.5128 44.7365L81.3357 45.3769ZM89.0458 47.0449L88.4852 45.3577L91.5245 43.7041L92.0851 45.3914L89.0458 47.0449ZM87.3378 41.9975L86.7773 40.3102L89.8165 38.6567L90.3771 40.3439L87.3378 41.9975ZM88.1499 44.4017L87.6043 42.7632L90.4767 41.2004L91.0223 42.839L88.1499 44.4017ZM85.4772 41.0175L87.2955 40.0283L89.5728 46.7582L87.7545 47.7475L85.4772 41.0175ZM93.2015 41.7558C93.3877 41.8897 93.579 41.9982 93.7754 42.081C93.9719 42.1639 94.1684 42.2049 94.3651 42.2042C94.5618 42.2034 94.7538 42.1521 94.9412 42.0501C95.0349 41.9991 95.1193 41.938 95.1945 41.8668C95.2723 41.7865 95.3292 41.7024 95.365 41.6146C95.4036 41.5178 95.4078 41.4206 95.3778 41.3231C95.3468 41.1957 95.2742 41.1176 95.16 41.0887C95.0458 41.0597 94.8922 41.056 94.6992 41.0775C94.5088 41.09 94.2861 41.1126 94.0308 41.1452C93.8139 41.1645 93.5859 41.1634 93.3467 41.1417C93.1103 41.111 92.8774 41.0517 92.648 40.964C92.4213 40.8673 92.2157 40.7325 92.0312 40.5596C91.8435 40.3809 91.6943 40.1472 91.5835 39.8583C91.4231 39.4219 91.4001 38.9942 91.5145 38.5753C91.6289 38.1563 91.8355 37.7745 92.1341 37.4299C92.4386 37.0821 92.7974 36.7996 93.2105 36.5824C93.6028 36.369 93.9774 36.2487 94.3341 36.2215C94.6877 36.1886 95.0182 36.225 95.3257 36.331C95.6359 36.4279 95.9119 36.5737 96.1537 36.7685L95.0792 38.3549C94.9423 38.27 94.8077 38.2104 94.6755 38.1761C94.5459 38.1327 94.4202 38.1176 94.2985 38.1307C94.1735 38.138 94.0496 38.1751 93.9266 38.242C93.8505 38.2834 93.7778 38.3381 93.7085 38.4062C93.636 38.4684 93.5832 38.5389 93.55 38.6176C93.5136 38.6905 93.5057 38.767 93.5262 38.8469C93.5536 38.9534 93.623 39.0257 93.7345 39.0637C93.8429 39.0958 93.9744 39.1077 94.1291 39.0995C94.2806 39.0853 94.4393 39.0635 94.6053 39.0339C94.7739 38.9953 94.9294 38.9676 95.0719 38.9508C95.4367 38.8965 95.771 38.912 96.0749 38.9971C96.3755 39.0764 96.635 39.2198 96.8534 39.4273C97.0745 39.6258 97.2471 39.8886 97.3711 40.2158C97.5478 40.6965 97.5781 41.1657 97.462 41.6235C97.3485 42.0723 97.134 42.4813 96.8182 42.8504C96.5116 43.2221 96.1445 43.5243 95.717 43.7569C95.3097 43.9709 94.8982 44.0999 94.4824 44.144C94.0757 44.1907 93.684 44.1534 93.3075 44.0319C92.931 43.9104 92.5982 43.7157 92.3093 43.4479L93.2015 41.7558Z" fill="black"/>
<path d="M48.9621 58.7212L47.0661 59.3555L47.8184 61.6203L49.9139 60.4802L48.9621 58.7212ZM48.4561 57.1978L47.5042 55.4388L46.0314 56.2402L46.5601 57.832L48.4561 57.1978ZM51.6447 55.463L53.5406 54.8288L52.7884 52.5639L50.6929 53.704L51.6447 55.463ZM52.1507 56.9864L53.1025 58.7454L54.5754 57.9441L54.0466 56.3522L52.1507 56.9864ZM49.5839 55.0587L51.0327 53.6782L47.7452 50.2148L47.587 54.9948L49.5839 55.0587ZM49.5099 57.2962L47.5129 57.2323L47.4892 57.946L47.9218 58.513L49.5099 57.2962ZM49.8229 57.7065L51.8086 57.9263L51.8977 57.1276L51.4109 56.4896L49.8229 57.7065ZM49.6363 59.379L50.5882 61.1379L51.5061 60.6385L51.6221 59.5988L49.6363 59.379ZM47.4315 60.5785L45.4439 60.3763L45.0571 64.1472L48.3834 62.3375L47.4315 60.5785ZM48.3629 51.4995L49.7199 50.0283L46.7843 47.3108L46.3753 51.2972L48.3629 51.4995ZM54.1953 56.8986L55.1471 58.6576L57.5999 57.3231L55.5522 55.4275L54.1953 56.8986ZM52.0871 58.0456L50.7379 59.5239L51.7876 60.4854L53.0389 59.8046L52.0871 58.0456ZM51.0501 57.0957L49.0755 57.4042L49.1828 58.0995L49.7009 58.574L51.0501 57.0957ZM50.9592 56.5076L52.9338 56.1991L52.8383 55.5805L52.4079 55.1271L50.9592 56.5076ZM50.858 58.087L50.352 56.5636L46.5601 57.832L47.0661 59.3555L50.858 58.087ZM49.4079 58.9568L52.5965 57.222L50.6929 53.704L47.5042 55.4388L49.4079 58.9568ZM49.7487 56.0972L50.2547 57.6206L54.0466 56.3522L53.5406 54.8288L49.7487 56.0972ZM51.1989 55.2274L48.0102 56.9623L49.9139 60.4802L53.1025 58.7454L51.1989 55.2274ZM47.587 54.9948L47.5129 57.2323L51.5069 57.3601L51.5809 55.1226L47.587 54.9948ZM47.9218 58.513L48.2348 58.9233L51.4109 56.4896L51.098 56.0793L47.9218 58.513ZM47.8371 57.4866L47.6506 59.1591L51.6221 59.5988L51.8086 57.9263L47.8371 57.4866ZM48.6845 57.62L46.4797 58.8195L48.3834 62.3375L50.5882 61.1379L48.6845 57.62ZM49.4192 60.7808L50.3505 51.7017L46.3753 51.2972L45.4439 60.3763L49.4192 60.7808ZM47.006 52.9706L52.8383 58.3697L55.5522 55.4275L49.7199 50.0283L47.006 52.9706ZM53.2434 55.1396L51.1353 56.2866L53.0389 59.8046L55.1471 58.6576L53.2434 55.1396ZM53.4363 56.5673L52.3993 55.6174L49.7009 58.574L50.7379 59.5239L53.4363 56.5673ZM53.0247 56.7872L52.9338 56.1991L48.9846 56.8161L49.0755 57.4042L53.0247 56.7872ZM52.4079 55.1271L51.0327 53.6782L48.1352 56.4392L49.5105 57.8881L52.4079 55.1271ZM54.7726 53.5563L55.9394 51.9298L54.0778 50.5903L53.0061 52.623L54.7726 53.5563ZM55.3465 53.8816L56.1238 52.0364L56.1238 52.0364L55.3465 53.8816ZM56.7656 53.6673L58.1379 55.1206L58.1686 55.0915L58.1981 55.0611L56.7656 53.6673ZM56.9361 53.4152L58.7853 54.1713L58.7887 54.1629L58.792 54.1546L56.9361 53.4152ZM56.9489 53.1236L55.0077 53.6003L55.0219 53.6586L55.0395 53.7159L56.9489 53.1236ZM56.7311 52.8892L57.2233 50.9484L57.2233 50.9484L56.7311 52.8892ZM56.2703 52.8781L56.3983 54.8757L56.4437 54.8727L56.4889 54.8677L56.2703 52.8781ZM55.6019 52.9457L55.7767 54.9397L55.8146 54.9363L55.8523 54.9315L55.6019 52.9457ZM54.9178 52.9422L54.6583 54.9275L54.6967 54.9325L54.7353 54.936L54.9178 52.9422ZM54.2191 52.7646L53.4341 54.6065L53.4691 54.6214L53.5046 54.635L54.2191 52.7646ZM53.6023 52.3602L52.2248 53.812L52.2307 53.8176L52.2366 53.8232L53.6023 52.3602ZM53.1546 51.6589L51.2794 52.3525L51.2843 52.3659L51.2894 52.3792L53.1546 51.6589ZM53.7052 49.2304L52.2037 47.9114L52.1971 47.9191L53.7052 49.2304ZM54.7816 48.383L55.7082 50.1554L55.7209 50.1488L55.7334 50.142L54.7816 48.383ZM55.9052 48.0221L56.054 50.0183L56.071 50.017L56.0881 50.0154L55.9052 48.0221ZM56.8968 48.1315L56.2449 50.0247L56.2723 50.0341L56.2999 50.0427L56.8968 48.1315ZM57.7248 48.569L59.3777 49.6917L60.4126 48.1637L58.9778 47.0081L57.7248 48.569ZM56.6503 50.1554L55.5972 51.858L57.2262 52.8682L58.3032 51.2781L56.6503 50.1554ZM56.2465 49.9766L55.6117 51.8756L55.677 51.8974L55.7437 51.9147L56.2465 49.9766ZM55.8695 49.9313L55.9827 51.9298L56.0318 51.927L56.0808 51.9217L55.8695 49.9313ZM55.2795 50.2067L56.5783 51.7264L56.6294 51.6826L56.6774 51.6355L55.2795 50.2067ZM55.1211 50.4182L56.9083 51.3111L56.9369 51.2537L56.9618 51.1946L55.1211 50.4182ZM55.0973 50.6474L53.1621 51.1481L53.1621 51.1481L55.0973 50.6474ZM55.3056 50.8642L54.6603 52.7597L54.6981 52.7725L54.7364 52.7839L55.3056 50.8642ZM55.7002 50.9L55.8042 52.8991L55.8437 52.897L55.883 52.8933L55.7002 50.9ZM56.1764 50.8345L56.5238 52.8054L56.5718 52.7969L56.6192 52.786L56.1764 50.8345ZM56.643 50.7513L56.8743 52.7395L56.9043 52.736L56.9341 52.7315L56.643 50.7513ZM57.6459 50.7977L57.1054 52.7256L57.1202 52.7297L57.135 52.7336L57.6459 50.7977ZM58.4245 51.2279L57.0487 52.6813L57.0692 52.7008L57.0902 52.7196L58.4245 51.2279ZM58.9421 52.0164L60.8172 51.3224L60.8138 51.3131L60.8102 51.3038L58.9421 52.0164ZM59.033 53.4241L57.0965 52.9334L57.0961 52.9349L59.033 53.4241ZM58.3893 54.6509L56.8729 53.3493L56.8612 53.3629L56.8498 53.3767L58.3893 54.6509ZM57.2881 55.5574L58.2143 57.3301L58.2272 57.3234L58.2399 57.3164L57.2881 55.5574ZM56.0535 55.9445L55.8457 53.9537L55.837 53.9547L55.8282 53.9557L56.0535 55.9445ZM54.8786 55.8324L55.4932 53.9268L55.4932 53.9268L54.8786 55.8324ZM53.8804 55.2485L52.1139 54.3151L51.3967 55.6753L52.5225 56.7188L53.8804 55.2485ZM53.6057 55.1829C53.9041 55.3975 54.2253 55.5817 54.5693 55.7268L56.1238 52.0364C56.0749 52.0158 56.0134 51.983 55.9394 51.9298L53.6057 55.1829ZM54.5693 55.7268C54.9922 55.9052 55.454 56.0085 55.9413 56.0066L55.931 52.0028C56.025 52.0025 56.0937 52.0237 56.1238 52.0364L54.5693 55.7268ZM55.9413 56.0066C56.4959 56.0045 57.0109 55.8562 57.4641 55.6096L55.5605 52.0917C55.6389 52.049 55.7698 52.0035 55.931 52.0028L55.9413 56.0066ZM57.4641 55.6096C57.7059 55.4781 57.9326 55.3153 58.1379 55.1206L55.3932 52.214C55.4482 52.1619 55.506 52.1213 55.5605 52.0917L57.4641 55.6096ZM58.1981 55.0611C58.4228 54.8293 58.6368 54.5349 58.7853 54.1713L55.0869 52.6591C55.1637 52.4711 55.264 52.3447 55.333 52.2735L58.1981 55.0611ZM58.792 54.1546C58.9958 53.6425 59.0258 53.0755 58.8583 52.5313L55.0395 53.7159C54.932 53.3667 54.9535 52.9941 55.0802 52.6758L58.792 54.1546ZM58.8901 52.6469C58.8119 52.3258 58.6505 51.9447 58.3344 51.6045C58.0094 51.2547 57.6121 51.0469 57.2233 50.9484L56.2389 54.83C55.9643 54.7604 55.6604 54.6062 55.4079 54.3345C55.1644 54.0725 55.0548 53.794 55.0077 53.6003L58.8901 52.6469ZM57.2233 50.9484C56.775 50.8348 56.3488 50.8553 56.0516 50.8885L56.4889 54.8677C56.5181 54.8644 56.5125 54.8668 56.4796 54.866C56.4497 54.8653 56.3622 54.8613 56.2389 54.83L57.2233 50.9484ZM56.1422 50.8804C55.8998 50.8963 55.6345 50.9238 55.3515 50.9599L55.8523 54.9315C56.0798 54.9025 56.2601 54.8848 56.3983 54.8757L56.1422 50.8804ZM55.4271 50.9517C55.3405 50.9594 55.2326 50.9605 55.1003 50.9485L54.7353 54.936C55.0813 54.9674 55.4295 54.9707 55.7767 54.9397L55.4271 50.9517ZM55.1773 50.957C55.1011 50.9471 55.0207 50.9275 54.9335 50.8941L53.5046 54.635C53.8762 54.7771 54.2616 54.8759 54.6583 54.9275L55.1773 50.957ZM55.0041 50.9227C54.9969 50.9196 54.9868 50.9148 54.9679 50.8972L52.2366 53.8232C52.5867 54.1512 52.9878 54.416 53.4341 54.6065L55.0041 50.9227ZM54.9797 50.9083C55.0104 50.9375 55.0271 50.9611 55.0332 50.9707C55.0388 50.9794 55.0323 50.9714 55.0197 50.9386L51.2894 52.3792C51.4863 52.8924 51.7849 53.3932 52.2248 53.812L54.9797 50.9083ZM55.0297 50.9652C55.0209 50.9411 55.0166 50.9244 55.0145 50.9146C55.0134 50.9097 55.0129 50.9062 55.0126 50.9041C55.0123 50.9019 55.0123 50.9008 55.0123 50.9007C55.0122 50.9006 55.0123 50.901 55.0123 50.9019C55.0122 50.9028 55.0122 50.9037 55.0121 50.9046C55.0119 50.9066 55.0117 50.906 55.0128 50.9019L51.1584 49.8497C50.9261 50.7003 50.9862 51.5546 51.2794 52.3525L55.0297 50.9652ZM55.0128 50.9019C55.0441 50.7875 55.1012 50.6712 55.2133 50.5418L52.1971 47.9191C51.7119 48.479 51.356 49.1263 51.1584 49.8497L55.0128 50.9019ZM55.2066 50.5495C55.3472 50.3889 55.5106 50.2593 55.7082 50.1554L53.8549 46.6105C53.2264 46.9409 52.6721 47.3764 52.2038 47.9114L55.2066 50.5495ZM55.7334 50.142C55.9373 50.031 56.0391 50.0194 56.054 50.0183L55.7565 46.0259C55.0579 46.079 54.4106 46.308 53.8297 46.624L55.7334 50.142ZM56.0881 50.0154C56.1855 50.0063 56.2291 50.0192 56.2449 50.0247L57.5487 46.2383C56.9495 46.0319 56.3321 45.9719 55.7224 46.0288L56.0881 50.0154ZM56.2999 50.0427C56.3827 50.0686 56.4338 50.0993 56.4718 50.1299L58.9778 47.0081C58.5321 46.6491 58.0312 46.3882 57.4937 46.2203L56.2999 50.0427ZM56.0719 47.4463L54.9974 49.0327L58.3032 51.2781L59.3777 49.6917L56.0719 47.4463ZM57.7034 48.4528C57.4256 48.2805 57.107 48.1312 56.7494 48.0385L55.7437 51.9147C55.6506 51.8906 55.6012 51.8605 55.5972 51.858L57.7034 48.4528ZM56.8814 48.0777C56.5115 47.9539 56.097 47.8936 55.6583 47.9409L56.0808 51.9217C55.8856 51.9427 55.7225 51.9126 55.6117 51.8756L56.8814 48.0777ZM55.7564 47.9327C55.3048 47.959 54.8968 48.0926 54.5458 48.2835L56.4495 51.8015C56.3445 51.8586 56.1844 51.9181 55.9827 51.9298L55.7564 47.9327ZM54.5458 48.2835C54.2883 48.4237 54.068 48.5951 53.8817 48.778L56.6774 51.6355C56.6297 51.6823 56.5548 51.7442 56.4495 51.8015L54.5458 48.2835ZM53.9807 48.6871C53.7007 48.9274 53.4478 49.2442 53.2803 49.6418L56.9618 51.1946C56.8607 51.4346 56.7135 51.6104 56.5783 51.7264L53.9807 48.6871ZM53.3338 49.5253C53.0791 50.0362 53.0235 50.608 53.1621 51.1481L57.0325 50.1468C57.0769 50.3196 57.0976 50.5194 57.0753 50.7346C57.0529 50.9502 56.9911 51.1451 56.9083 51.3111L53.3338 49.5253ZM53.1621 51.1481C53.3711 51.9626 53.9666 52.5234 54.6603 52.7597L55.9509 48.9688C56.1437 49.0345 56.3883 49.1613 56.6103 49.3924C56.8368 49.6281 56.969 49.8991 57.0325 50.1467L53.1621 51.1481ZM54.7364 52.7839C55.1272 52.8998 55.5005 52.9153 55.8042 52.8991L55.5961 48.901C55.5984 48.9008 55.6239 48.8995 55.668 48.9035C55.712 48.9075 55.7839 48.9176 55.8748 48.9446L54.7364 52.7839ZM55.883 52.8933C56.0952 52.8735 56.309 52.8437 56.5238 52.8054L55.8289 48.8635C55.7118 48.8844 55.6082 48.8983 55.5173 48.9067L55.883 52.8933ZM56.6192 52.786C56.7317 52.7603 56.8156 52.7464 56.8743 52.7395L56.4117 48.7632C56.1855 48.7899 55.9583 48.8314 55.7335 48.8829L56.6192 52.786ZM56.9341 52.7315C57.0674 52.7117 57.1137 52.7279 57.1054 52.7256L58.1865 48.8697C57.5705 48.6971 56.9482 48.6824 56.3519 48.7712L56.9341 52.7315ZM57.135 52.7336C57.1351 52.7337 57.1315 52.7327 57.1247 52.73C57.118 52.7274 57.1093 52.7234 57.0994 52.7179C57.0783 52.7063 57.0606 52.6927 57.0487 52.6813L59.8003 49.7745C59.3306 49.3282 58.7708 49.0236 58.1569 48.8617L57.135 52.7336ZM57.0902 52.7196C57.0783 52.709 57.0689 52.6991 57.0618 52.6908C57.0548 52.6826 57.0511 52.6771 57.05 52.6754C57.0478 52.6721 57.0581 52.6869 57.074 52.729L60.8102 51.3038C60.593 50.7304 60.256 50.1824 59.7588 49.7361L57.0902 52.7196ZM57.0671 52.7104C57.1168 52.8454 57.1046 52.9014 57.0965 52.9334L60.9696 53.9148C61.1937 53.0312 61.1209 52.1486 60.8172 51.3224L57.0671 52.7104ZM57.0961 52.9349C57.0622 53.0691 56.998 53.2029 56.8729 53.3493L59.9058 55.9525C60.4121 55.3607 60.777 54.6766 60.97 53.9133L57.0961 52.9349ZM56.8498 53.3767C56.708 53.5486 56.5411 53.687 56.3362 53.7985L58.2399 57.3164C58.89 56.9627 59.4572 56.4968 59.9288 55.9251L56.8498 53.3767ZM56.3618 53.7848C56.1559 53.893 55.9866 53.9388 55.8457 53.9537L56.2613 57.9353C56.952 57.8621 57.6057 57.6499 58.2143 57.3301L56.3618 53.7848ZM55.8282 53.9557C55.6942 53.9711 55.5895 53.9579 55.4932 53.9268L54.2639 57.738C54.9207 57.9499 55.5993 58.0115 56.2788 57.9334L55.8282 53.9557ZM55.4932 53.9268C55.3918 53.8941 55.313 53.8475 55.2382 53.7782L52.5225 56.7188C53.0256 57.1851 53.6123 57.5278 54.2639 57.738L55.4932 53.9268ZM55.6468 56.1818L56.539 54.4897L53.0061 52.623L52.1139 54.3151L55.6468 56.1818ZM58.2234 48.958L56.3292 49.5975L57.0856 51.8539L59.1753 50.717L58.2234 48.958ZM57.5941 47.0805L56.6422 45.3215L55.1652 46.1251L55.6999 47.72L57.5941 47.0805ZM62.9084 44.1891L64.8026 43.5496L64.0462 41.2932L61.9566 42.4301L62.9084 44.1891ZM63.5378 46.0666L64.4896 47.8256L65.9666 47.022L65.432 45.4271L63.5378 46.0666ZM61.8425 46.989L60.8906 45.23L59.4106 46.0352L59.9496 47.6323L61.8425 46.989ZM63.4816 51.8462L64.4334 53.6052L65.9135 52.7999L65.3745 51.2029L63.4816 51.8462ZM61.5755 52.8833L59.6826 53.5266L60.442 55.7768L62.5273 54.6423L61.5755 52.8833ZM59.9363 48.0261L61.8292 47.3827L61.0698 45.1325L58.9845 46.2671L59.9363 48.0261ZM60.1176 48.3185L59.4883 46.441L55.6999 47.72L56.3292 49.5975L60.1176 48.3185ZM58.5459 48.8395L63.8602 45.9481L61.9566 42.4301L56.6422 45.3215L58.5459 48.8395ZM61.0142 44.8286L61.6436 46.7061L65.432 45.4271L64.8026 43.5496L61.0142 44.8286ZM62.586 44.3076L60.8906 45.23L62.7943 48.748L64.4896 47.8256L62.586 44.3076ZM59.9496 47.6323L61.5887 52.4895L65.3745 51.2029L63.7354 46.3457L59.9496 47.6323ZM62.5298 50.0872L60.6236 51.1243L62.5273 54.6423L64.4334 53.6052L62.5298 50.0872ZM63.4684 52.24L61.8292 47.3827L58.0434 48.6694L59.6826 53.5266L63.4684 52.24ZM58.9845 46.2671L57.2716 47.199L59.1753 50.717L60.8882 49.785L58.9845 46.2671ZM66.5563 46.7581L65.6044 44.9991L63.0654 46.3806L65.2477 48.2726L66.5563 46.7581ZM68.4448 45.7306L69.6255 44.1141L68.6051 43.3666L67.493 43.9716L68.4448 45.7306ZM71.1199 47.6905L72.0718 49.4494L74.847 47.9395L72.3006 46.074L71.1199 47.6905ZM68.9766 48.8566L67.6681 50.3711L68.7129 51.2769L69.9284 50.6155L68.9766 48.8566ZM63.4755 43.8806L62.5237 42.1216L61.0424 42.9275L61.5832 44.5254L63.4755 43.8806ZM65.3817 42.8435L67.2741 42.1986L66.5135 39.9509L64.4299 41.0845L65.3817 42.8435ZM67.659 49.5734L68.6108 51.3324L70.0921 50.5265L69.5514 48.9286L67.659 49.5734ZM65.7529 50.6105L63.8605 51.2554L64.6211 53.5031L66.7047 52.3695L65.7529 50.6105ZM65.2959 44.9963L63.4059 45.6482L64.172 47.8846L66.2477 46.7552L65.2959 44.9963ZM64.6877 43.221L63.7359 41.4621L62.249 42.271L62.7978 43.873L64.6877 43.221ZM67.3779 42.0989L67.4301 44.1001L67.4436 44.0997L67.4572 44.0992L67.3779 42.0989ZM68.5283 42.4179L67.3827 44.0595L67.401 44.0723L67.4196 44.0847L68.5283 42.4179ZM69.2996 43.4441L71.1585 42.7076L71.1585 42.7076L69.2996 43.4441ZM68.8808 46.074L70.439 47.3253L70.439 47.3253L68.8808 46.074ZM66.2431 47.8393L64.3443 48.465L65.0898 50.7435L67.1949 49.5983L66.2431 47.8393ZM65.7213 46.2447L64.7695 44.4858L63.3033 45.2835L63.8226 46.8705L65.7213 46.2447ZM67.1725 45.3755L68.6513 46.72L68.6696 46.6997L68.6874 46.679L67.1725 45.3755ZM67.3617 45.0107L65.4279 44.5093L65.4187 44.545L65.4107 44.581L67.3617 45.0107ZM67.3485 44.6081L65.4391 45.2004L65.4418 45.2092L65.4446 45.2179L67.3485 44.6081ZM67.5081 48.5171L69.3967 47.4896L67.493 43.9716L65.6044 44.9991L67.5081 48.5171ZM67.2641 47.3471L69.9392 49.3069L72.3006 46.074L69.6255 44.1141L67.2641 47.3471ZM70.1681 45.9315L68.0248 47.0976L69.9284 50.6155L72.0718 49.4494L70.1681 45.9315ZM70.2852 47.3421L67.8648 45.2436L65.2477 48.2726L67.6681 50.3711L70.2852 47.3421ZM64.4274 45.6395L66.3335 44.6025L64.4299 41.0845L62.5237 42.1216L64.4274 45.6395ZM63.4893 43.4884L65.7666 50.2183L69.5514 48.9286L67.2741 42.1986L63.4893 43.4884ZM66.7072 47.8144L64.801 48.8515L66.7047 52.3695L68.6108 51.3324L66.7072 47.8144ZM67.6452 49.9656L65.3679 43.2357L61.5832 44.5254L63.8605 51.2554L67.6452 49.9656ZM67.1858 44.3443L66.5777 42.5691L62.7978 43.873L63.4059 45.6482L67.1858 44.3443ZM65.6396 44.98L66.9045 44.2918L65.0008 40.7739L63.7359 41.4621L65.6396 44.98ZM66.9045 44.2918C67.2209 44.1197 67.3871 44.1013 67.4301 44.1001L67.3257 40.0978C66.4873 40.1208 65.7033 40.3916 65.0008 40.7739L66.9045 44.2918ZM67.4572 44.0992C67.4893 44.0979 67.4856 44.1022 67.4585 44.0947C67.4459 44.0912 67.4315 44.086 67.4169 44.0791C67.4023 44.0722 67.3907 44.0651 67.3827 44.0595L69.674 40.7764C68.9542 40.2725 68.1316 40.0646 67.2986 40.0987L67.4572 44.0992ZM67.4196 44.0847C67.4038 44.0742 67.3914 44.0638 67.3827 44.0555C67.3741 44.0473 67.3714 44.0433 67.3736 44.0462C67.3784 44.0525 67.4053 44.0905 67.4408 44.1805L71.1585 42.7076C70.8637 41.9586 70.3828 41.2486 69.6371 40.7511L67.4196 44.0847ZM67.4408 44.1805C67.5024 44.3372 67.4998 44.4272 67.4897 44.4881L71.4319 45.139C71.5711 44.2991 71.461 43.476 71.1585 42.7076L67.4408 44.1805ZM67.4897 44.4881C67.4764 44.5684 67.4408 44.6751 67.3226 44.8228L70.439 47.3253C70.9449 46.6932 71.296 45.9596 71.4319 45.139L67.4897 44.4881ZM67.3226 44.8228C67.2071 44.9671 67.0099 45.1452 66.6703 45.33L68.574 48.8479C69.2885 48.4592 69.9304 47.9606 70.439 47.3253L67.3226 44.8228ZM66.6703 45.33L65.2912 46.0803L67.1949 49.5983L68.574 48.8479L66.6703 45.33ZM68.1418 47.2135L67.6201 45.619L63.8226 46.8705L64.3443 48.465L68.1418 47.2135ZM66.6731 48.0037L67.7624 47.4111L65.8587 43.8931L64.7695 44.4858L66.6731 48.0037ZM67.7624 47.4111C68.0717 47.2428 68.3808 47.0185 68.6513 46.72L65.6938 44.031C65.7744 43.942 65.8422 43.9021 65.8587 43.8931L67.7624 47.4111ZM68.6874 46.679C68.9713 46.3479 69.204 45.9332 69.3127 45.4404L65.4107 44.581C65.4623 44.347 65.5689 44.1755 65.6576 44.072L68.6874 46.679ZM69.2955 45.5122C69.4289 44.9979 69.405 44.4783 69.2524 43.9983L65.4446 45.2179C65.3784 45.0096 65.3633 44.7585 65.4279 44.5093L69.2955 45.5122ZM69.2579 44.0158C69.1268 43.5901 68.8527 43.0645 68.306 42.6818L66.0147 45.965C65.6388 45.7019 65.4901 45.366 65.4391 45.2004L69.2579 44.0158ZM68.306 42.6818C67.817 42.3395 67.2747 42.2224 66.7879 42.2391L66.9193 46.2406C66.6707 46.2491 66.3329 46.1877 66.0147 45.965L68.306 42.6818ZM66.7879 42.2391C66.2832 42.2563 65.8531 42.4162 65.5211 42.5969L67.4248 46.1148C67.3622 46.1489 67.1859 46.2315 66.9193 46.2406L66.7879 42.2391ZM65.5211 42.5969L64.344 43.2373L66.2477 46.7552L67.4248 46.1148L65.5211 42.5969ZM72.245 43.0939L70.3556 43.7475L70.3604 43.7615L70.3654 43.7754L72.245 43.0939ZM72.532 43.6663L70.8751 44.7871L70.8952 44.817L70.9164 44.8462L72.532 43.6663ZM73.4753 44.2118L73.3876 46.2119L73.4175 46.2132L73.4474 46.2135L73.4753 44.2118ZM74.0778 44.0434L73.1738 42.2592L73.1497 42.2715L73.126 42.2844L74.0778 44.0434ZM74.618 43.6129L76.1752 44.8654L76.1848 44.8534L76.1942 44.8413L74.618 43.6129ZM74.9338 43.0198L76.8366 43.6285L76.8371 43.6268L74.9338 43.0198ZM75.0322 42.3402L77.0299 42.2976L77.0296 42.2847L77.0292 42.2719L75.0322 42.3402ZM74.9066 41.6458L76.799 41.0009L76.7927 40.9825L76.7862 40.9642L74.9066 41.6458ZM74.6108 41.0781L72.9538 42.1989L72.9716 42.2254L72.9902 42.2512L74.6108 41.0781ZM74.1997 40.6756L73.1083 42.3539L73.1348 42.3711L73.1618 42.3876L74.1997 40.6756ZM73.6851 40.523L73.5611 42.5212L73.6091 42.5242L73.6572 42.5248L73.6851 40.523ZM72.5248 41.1315L70.9818 39.8616L70.9747 39.8703L70.9677 39.879L72.5248 41.1315ZM72.209 41.7246L70.3057 41.1176L70.2995 41.1371L70.2937 41.1566L72.209 41.7246ZM72.1194 42.3995L70.1217 42.4421L70.1217 42.4421L72.1194 42.3995ZM70.2335 44.1883L68.3561 44.876L68.3609 44.8891L70.2335 44.1883ZM69.9771 42.6429L71.9743 42.7017L71.9746 42.6889L69.9771 42.6429ZM70.2811 41.1455L72.1358 41.888L72.1395 41.8788L72.1431 41.8695L70.2811 41.1455ZM71.0742 39.8375L72.5763 41.1557L72.5812 41.15L72.5861 41.1444L71.0742 39.8375ZM75.0516 38.5728L74.322 40.4374L74.3417 40.4451L74.3615 40.4524L75.0516 38.5728ZM76.1578 39.3143L74.703 40.6884L74.7151 40.7012L74.7273 40.7138L76.1578 39.3143ZM76.9181 40.5514L78.7955 39.8636L78.7907 39.8505L76.9181 40.5514ZM77.1928 42.1095L79.1909 42.1208L79.1909 42.1208L77.1928 42.1095ZM76.9166 43.6373L78.7856 44.343L78.789 44.334L78.7923 44.3249L76.9166 43.6373ZM76.1203 44.9813L74.5989 43.6854L74.5931 43.6923L76.1203 44.9813ZM73.4276 46.4349L73.5556 48.4326L73.5556 48.4326L73.4276 46.4349ZM72.0887 46.2299L71.3029 48.0715L71.3221 48.0797L71.3414 48.0874L72.0887 46.2299ZM70.9858 45.4524L69.5077 46.8013L69.5192 46.814L69.531 46.8266L70.9858 45.4524ZM70.3654 43.7754C70.4927 44.1288 70.6608 44.4688 70.8751 44.7871L74.189 42.5455C74.1714 42.5193 74.1481 42.4777 74.1246 42.4123L70.3654 43.7754ZM70.9164 44.8462C71.1766 45.204 71.5058 45.5219 71.9092 45.7671L73.985 42.3433C74.0722 42.3962 74.1247 42.4548 74.1476 42.4864L70.9164 44.8462ZM71.9092 45.7671C72.3691 46.0466 72.8748 46.19 73.3876 46.2119L73.563 42.2117C73.6879 42.2171 73.8415 42.256 73.985 42.3433L71.9092 45.7671ZM73.4474 46.2135C74.057 46.2213 74.594 46.0394 75.0296 45.8024L73.126 42.2844C73.1399 42.2768 73.2753 42.2072 73.5032 42.2101L73.4474 46.2135ZM74.9818 45.8276C75.4287 45.5998 75.84 45.2835 76.1752 44.8654L73.0608 42.3604C73.0861 42.3289 73.1121 42.3039 73.1351 42.2856C73.1576 42.2677 73.1723 42.26 73.1738 42.2592L74.9818 45.8276ZM76.1942 44.8413C76.4741 44.481 76.6937 44.0752 76.8366 43.6285L73.0311 42.4112C73.0343 42.4011 73.0382 42.3923 73.0416 42.3859C73.0449 42.3797 73.0459 42.3792 73.0418 42.3845L76.1942 44.8413ZM76.8371 43.6268C76.9747 43.1951 77.0389 42.749 77.0299 42.2976L73.0345 42.3828C73.0348 42.3968 73.0334 42.4038 73.0305 42.4129L76.8371 43.6268ZM77.0292 42.2719C77.015 41.8385 76.9383 41.4126 76.799 41.0009L73.0142 42.2907C73.0267 42.3276 73.0338 42.3647 73.0352 42.4085L77.0292 42.2719ZM76.7862 40.9642C76.6519 40.5915 76.469 40.2349 76.2314 39.9051L72.9902 42.2512C72.9961 42.2594 73.0104 42.2812 73.027 42.3273L76.7862 40.9642ZM76.2678 39.9573C76.0101 39.5746 75.6706 39.2269 75.2376 38.9637L73.1618 42.3876C73.0451 42.3166 72.9796 42.2372 72.9538 42.1989L76.2678 39.9573ZM75.2911 38.9974C74.806 38.6811 74.2621 38.5283 73.713 38.5213L73.6572 42.5248C73.4897 42.5227 73.2888 42.4716 73.1083 42.3539L75.2911 38.9974ZM73.809 38.5248C73.1397 38.484 72.5594 38.6879 72.1172 38.9284L74.0209 42.4464C74.0186 42.4476 73.9782 42.4696 73.902 42.49C73.8234 42.5109 73.7063 42.5301 73.5611 42.5212L73.809 38.5248ZM72.1172 38.9284C71.6902 39.1608 71.3031 39.4699 70.9818 39.8616L74.0679 42.4014C74.055 42.4171 74.042 42.4296 74.0311 42.4385C74.0205 42.4471 74.0158 42.4492 74.0209 42.4464L72.1172 38.9284ZM70.9677 39.879C70.6686 40.2521 70.4484 40.67 70.3057 41.1176L74.1123 42.3315C74.1119 42.3328 74.1093 42.3404 74.1033 42.3517C74.0972 42.3632 74.0897 42.3744 74.082 42.384L70.9677 39.879ZM70.2937 41.1566C70.169 41.5774 70.113 42.0086 70.1217 42.4421L74.1171 42.3568C74.1165 42.3248 74.1203 42.3061 74.1243 42.2925L70.2937 41.1566ZM70.1217 42.4421C70.1307 42.8924 70.2121 43.3297 70.3556 43.7475L74.1344 42.4402C74.1198 42.3976 74.1174 42.372 74.1171 42.3568L70.1217 42.4421ZM72.1108 43.5005C72.0061 43.2127 71.9667 42.9504 71.9743 42.7017L67.9799 42.5841C67.9559 43.3695 68.0874 44.1376 68.3561 44.876L72.1108 43.5005ZM71.9746 42.6889C71.9816 42.3993 72.0364 42.1365 72.1358 41.888L68.4265 40.403C68.1457 41.1051 67.9979 41.8405 67.9796 42.5969L71.9746 42.6889ZM72.1431 41.8695C72.2449 41.6073 72.387 41.3721 72.5763 41.1557L69.572 38.5193C69.0776 39.0846 68.6911 39.7215 68.4192 40.4216L72.1431 41.8695ZM72.5861 41.1444C72.767 40.9344 72.9874 40.7546 73.2631 40.6047L71.3594 37.0867C70.6746 37.4592 70.0704 37.9406 69.5622 38.5306L72.5861 41.1444ZM73.2631 40.6047C73.5327 40.4579 73.7437 40.4026 73.9061 40.3878L73.5478 36.4006C72.7712 36.4716 72.0384 36.7173 71.3594 37.0867L73.2631 40.6047ZM73.9061 40.3878C74.086 40.3714 74.2146 40.3954 74.322 40.4374L75.7812 36.7082C75.0613 36.4263 74.3069 36.3312 73.5478 36.4006L73.9061 40.3878ZM74.3615 40.4524C74.4709 40.4926 74.5819 40.5597 74.703 40.6884L77.6126 37.9402C77.0913 37.3862 76.4649 36.959 75.7417 36.6932L74.3615 40.4524ZM74.7273 40.7138C74.8329 40.8221 74.947 40.9868 75.0456 41.2522L78.7907 39.8505C78.5232 39.1311 78.1304 38.4712 77.5883 37.9149L74.7273 40.7138ZM75.0408 41.2391C75.1493 41.5373 75.1967 41.8204 75.1948 42.0983L79.1909 42.1208C79.1962 41.3474 79.0604 40.5917 78.7955 39.8636L75.0408 41.2391ZM75.1948 42.0983C75.1927 42.3935 75.1419 42.6739 75.0409 42.9497L78.7923 44.3249C79.0523 43.615 79.1857 42.8769 79.1909 42.1208L75.1948 42.0983ZM75.0476 42.9316C74.9477 43.1967 74.802 43.4462 74.5989 43.6854L77.6416 46.2772C78.133 45.6984 78.5182 45.0519 78.7856 44.343L75.0476 42.9316ZM74.5931 43.6923C74.4216 43.8962 74.2038 44.0773 73.9186 44.2325L75.8222 47.7504C76.5209 47.3703 77.1363 46.878 77.6475 46.2703L74.5931 43.6923ZM73.9186 44.2325C73.6464 44.3805 73.4444 44.4278 73.2996 44.4373L73.5556 48.4326C74.3625 48.3797 75.1223 48.1313 75.8222 47.7504L73.9186 44.2325ZM73.2996 44.4373C73.1038 44.4501 72.9584 44.4217 72.836 44.3723L71.3414 48.0874C72.0525 48.3739 72.7998 48.4821 73.5556 48.4326L73.2996 44.4373ZM72.8744 44.3883C72.7233 44.3237 72.5809 44.2276 72.4405 44.0783L69.531 46.8266C70.0329 47.36 70.6258 47.7822 71.3029 48.0715L72.8744 44.3883ZM72.4639 44.1036C72.3346 43.9614 72.2097 43.7665 72.106 43.4874L68.3609 44.8891C68.6233 45.5948 68.9999 46.2427 69.5077 46.8013L72.4639 44.1036ZM39.1987 73.1405L37.3027 73.7748L38.055 76.0396L40.1505 74.8995L39.1987 73.1405ZM38.6927 71.6171L37.7409 69.8582L36.268 70.6595L36.7967 72.2514L38.6927 71.6171ZM41.8813 69.8823L43.7773 69.2481L43.025 66.9832L40.9295 68.1233L41.8813 69.8823ZM42.3873 71.4057L43.3391 73.1647L44.812 72.3634L44.2832 70.7715L42.3873 71.4057ZM39.8206 69.478L41.2693 68.0975L37.9818 64.6341L37.8236 69.4141L39.8206 69.478ZM39.7465 71.7155L37.7495 71.6516L37.7258 72.3653L38.1584 72.9323L39.7465 71.7155ZM40.0595 72.1258L42.0452 72.3456L42.1343 71.547L41.6475 70.9089L40.0595 72.1258ZM39.873 73.7983L40.8248 75.5573L41.7427 75.0578L41.8587 74.0181L39.873 73.7983ZM37.6681 74.9978L35.6805 74.7956L35.2937 78.5665L38.62 76.7568L37.6681 74.9978ZM38.5995 65.9188L39.9565 64.4477L37.0209 61.7301L36.6119 65.7166L38.5995 65.9188ZM44.4319 71.3179L45.3837 73.0769L47.8366 71.7424L45.7888 69.8468L44.4319 71.3179ZM42.3237 72.4649L40.9745 73.9432L42.0242 74.9047L43.2755 74.2239L42.3237 72.4649ZM41.2867 71.515L39.3121 71.8235L39.4195 72.5188L39.9375 72.9933L41.2867 71.515ZM41.1958 70.9269L43.1704 70.6184L43.0749 69.9998L42.6445 69.5464L41.1958 70.9269ZM41.0946 72.5063L40.5886 70.9829L36.7967 72.2514L37.3027 73.7748L41.0946 72.5063ZM39.6445 73.3761L42.8331 71.6413L40.9295 68.1233L37.7409 69.8582L39.6445 73.3761ZM39.9853 70.5165L40.4913 72.0399L44.2832 70.7715L43.7773 69.2481L39.9853 70.5165ZM41.4355 69.6467L38.2468 71.3816L40.1505 74.8995L43.3391 73.1647L41.4355 69.6467ZM37.8236 69.4141L37.7495 71.6516L41.7435 71.7794L41.8176 69.5419L37.8236 69.4141ZM38.1584 72.9323L38.4714 73.3426L41.6475 70.9089L41.3346 70.4986L38.1584 72.9323ZM38.0737 71.9059L37.8872 73.5784L41.8587 74.0181L42.0452 72.3456L38.0737 71.9059ZM38.9211 72.0393L36.7163 73.2389L38.62 76.7568L40.8248 75.5573L38.9211 72.0393ZM39.6558 75.2001L40.5871 66.121L36.6119 65.7166L35.6805 74.7956L39.6558 75.2001ZM37.2426 67.3899L43.0749 72.789L45.7888 69.8468L39.9565 64.4477L37.2426 67.3899ZM43.4801 69.5589L41.3719 70.7059L43.2755 74.2239L45.3837 73.0769L43.4801 69.5589ZM43.6729 70.9866L42.6359 70.0367L39.9375 72.9933L40.9745 73.9432L43.6729 70.9866ZM43.2613 71.2065L43.1704 70.6184L39.2212 71.2354L39.3121 71.8235L43.2613 71.2065ZM42.6445 69.5464L41.2693 68.0975L38.3719 70.8585L39.7471 72.3074L42.6445 69.5464ZM42.6977 64.2924L41.7459 62.5335L40.2646 63.3394L40.8054 64.9373L42.6977 64.2924ZM44.6829 63.2124L46.5753 62.5675L45.8147 60.3198L43.7311 61.4534L44.6829 63.2124ZM46.9603 69.9423L47.9121 71.7013L49.3934 70.8954L48.8526 69.2974L46.9603 69.9423ZM44.9751 71.0224L43.0827 71.6673L43.8433 73.915L45.9269 72.7814L44.9751 71.0224ZM46.2663 70.3199L44.3693 70.9509L45.119 73.2209L47.2181 72.0788L46.2663 70.3199ZM45.6607 68.4863L44.7089 66.7273L43.2386 67.5273L43.7637 69.1174L45.6607 68.4863ZM47.2759 67.4368L45.7886 66.1018L45.7835 66.1075L45.7784 66.1133L47.2759 67.4368ZM47.6616 66.6577L45.7083 66.2387L45.7048 66.2551L45.7015 66.2715L47.6616 66.6577ZM47.5521 65.6358L49.4306 64.9515L49.4261 64.939L49.4214 64.9264L47.5521 65.6358ZM47.1911 64.9898L45.6871 66.3096L45.6918 66.315L45.6965 66.3203L47.1911 64.9898ZM46.7335 64.6695L47.3543 62.7659L47.3543 62.7659L46.7335 64.6695ZM46.205 64.6383L45.8576 62.6674L45.8576 62.6674L46.205 64.6383ZM44.5986 65.4099L42.701 66.0392L43.4494 68.312L45.5504 67.1689L44.5986 65.4099ZM43.9978 63.5851L43.046 61.8262L41.577 62.6254L42.1002 64.2144L43.9978 63.5851ZM46.4358 62.5433L46.7036 64.5268L46.7036 64.5268L46.4358 62.5433ZM47.7311 62.6468L47.0977 64.5463L47.1086 64.5499L47.1195 64.5534L47.7311 62.6468ZM48.804 63.3268L47.3649 64.7174L47.3705 64.7231L48.804 63.3268ZM49.5373 64.5558L47.6574 65.2366L47.6599 65.2435L49.5373 64.5558ZM49.8017 66.074L51.7991 66.1269L51.7993 66.1135L49.8017 66.074ZM49.4995 67.4907L51.3352 68.279L51.3394 68.2691L51.3435 68.2592L49.4995 67.4907ZM48.6819 68.7324L50.1348 70.1049L50.1404 70.0989L50.146 70.0929L48.6819 68.7324ZM43.6496 66.0514L45.6348 64.9713L43.7311 61.4534L41.7459 62.5335L43.6496 66.0514ZM42.7906 63.8572L45.0679 70.5872L48.8526 69.2974L46.5753 62.5675L42.7906 63.8572ZM46.0084 68.1833L44.0232 69.2634L45.9269 72.7814L47.9121 71.7013L46.0084 68.1833ZM46.8674 70.3775L44.5901 63.6476L40.8054 64.9373L43.0827 71.6673L46.8674 70.3775ZM46.4388 67.9491L45.3145 68.5609L47.2181 72.0788L48.3425 71.4671L46.4388 67.9491ZM48.1633 69.6888L47.5577 67.8553L43.7637 69.1174L44.3693 70.9509L48.1633 69.6888ZM46.6126 70.2453L47.5349 69.7435L45.6312 66.2255L44.7089 66.7273L46.6126 70.2453ZM47.5349 69.7435C47.999 69.491 48.4176 69.1642 48.7734 68.7603L45.7784 66.1133C45.7491 66.1466 45.7059 66.1849 45.6312 66.2255L47.5349 69.7435ZM48.7631 68.7718C49.2061 68.2767 49.4946 67.6875 49.6217 67.044L45.7015 66.2715C45.7049 66.2545 45.7133 66.2243 45.7313 66.1879C45.7494 66.1513 45.7706 66.1219 45.7886 66.1018L48.7631 68.7718ZM49.6149 67.0768C49.7799 66.3091 49.6566 65.576 49.4306 64.9515L45.6735 66.3202C45.6972 66.3858 45.6977 66.4082 45.696 66.3929C45.6941 66.375 45.691 66.3193 45.7083 66.2387L49.6149 67.0768ZM49.4214 64.9264C49.2656 64.5134 49.0381 64.0567 48.6857 63.6593L45.6965 66.3203C45.6739 66.2948 45.6589 66.2745 45.6502 66.2621C45.6416 66.2498 45.6384 66.2438 45.6397 66.246C45.6409 66.2482 45.6458 66.2572 45.6535 66.2741C45.6612 66.2909 45.6711 66.3144 45.6828 66.3452L49.4214 64.9264ZM48.6951 63.67C48.3699 63.2978 47.928 62.9531 47.3543 62.7659L46.1128 66.5731C45.8705 66.4941 45.7336 66.3628 45.6871 66.3096L48.6951 63.67ZM47.3543 62.7659C46.8496 62.6013 46.3387 62.5816 45.8576 62.6674L46.5524 66.6093C46.4446 66.6285 46.2861 66.6297 46.1128 66.5731L47.3543 62.7659ZM45.8576 62.6674C45.4287 62.7438 45.0359 62.8951 44.6833 63.0869L46.587 66.6049C46.6209 66.5865 46.6079 66.5994 46.5524 66.6093L45.8576 62.6674ZM44.6833 63.0869L43.6468 63.6509L45.5504 67.1689L46.587 66.6049L44.6833 63.0869ZM46.4962 64.7806L45.8954 62.9558L42.1002 64.2144L42.701 66.0392L46.4962 64.7806ZM44.9496 65.3441L45.951 64.7993L44.0473 61.2813L43.046 61.8262L44.9496 65.3441ZM45.951 64.7993C46.2698 64.6259 46.5182 64.5522 46.7036 64.5268L46.168 60.5598C45.4217 60.6619 44.7124 60.9195 44.0473 61.2813L45.951 64.7993ZM46.7036 64.5268C46.9034 64.4995 47.0233 64.5214 47.0977 64.5463L48.3645 60.7474C47.6434 60.5068 46.8998 60.4597 46.168 60.5598L46.7036 64.5268ZM47.1195 64.5534C47.1902 64.5761 47.2682 64.6169 47.3649 64.7174L50.2431 61.9362C49.7165 61.3891 49.0793 60.9766 48.3427 60.7403L47.1195 64.5534ZM47.3705 64.7231C47.4453 64.8002 47.5542 64.9497 47.6574 65.2366L51.4171 63.8749C51.1595 63.159 50.7797 62.4892 50.2375 61.9304L47.3705 64.7231ZM47.6599 65.2435C47.77 65.546 47.8088 65.8058 47.804 66.0345L51.7993 66.1135C51.8154 65.3442 51.678 64.5919 51.4146 63.868L47.6599 65.2435ZM47.8044 66.0211C47.7975 66.2707 47.7479 66.5001 47.6555 66.7221L51.3435 68.2592C51.6268 67.5786 51.7787 66.8636 51.799 66.1269L47.8044 66.0211ZM47.6638 66.7024C47.5697 66.9218 47.4281 67.1448 47.2179 67.3719L50.146 70.0929C50.6438 69.5552 51.0472 68.9504 51.3352 68.279L47.6638 66.7024ZM47.229 67.3599C47.041 67.5597 46.7862 67.7602 46.4388 67.9491L48.3425 71.4671C49.0141 71.1017 49.6201 70.6517 50.1348 70.1049L47.229 67.3599ZM52.8086 62.6393L51.3071 63.962L54.8204 67.9669L54.8066 62.6317L52.8086 62.6393ZM52.7987 58.7969L51.8468 57.0379L50.7975 57.6088L50.8006 58.8045L52.7987 58.7969ZM55.0825 57.5543L57.0722 57.7359L57.4158 54.008L54.1307 55.7953L55.0825 57.5543ZM54.2518 66.5672L52.9165 68.058L55.8756 70.7179L56.2414 66.7488L54.2518 66.5672ZM48.3188 61.2342L47.367 59.4752L44.8758 60.8306L46.9835 62.7251L48.3188 61.2342ZM50.5236 60.0347L52.0251 58.712L50.9734 57.5131L49.5718 58.2757L50.5236 60.0347ZM54.8066 62.6317L54.7968 58.7892L50.8006 58.8045L50.8105 62.647L54.8066 62.6317ZM53.7505 60.5558L56.0344 59.3133L54.1307 55.7953L51.8468 57.0379L53.7505 60.5558ZM53.0929 57.3727L52.2622 66.3856L56.2414 66.7488L57.0722 57.7359L53.0929 57.3727ZM55.5871 65.0763L49.6541 59.7434L46.9835 62.7251L52.9165 68.058L55.5871 65.0763ZM49.2706 62.9932L51.4754 61.7936L49.5718 58.2757L47.367 59.4752L49.2706 62.9932ZM49.0221 61.3573L51.3071 63.962L54.3101 61.3167L52.0251 58.712L49.0221 61.3573ZM59.1679 63.3005L57.272 63.9349L58.0244 66.1995L60.1198 65.0595L59.1679 63.3005ZM58.6074 61.6132L57.6555 59.8543L56.1826 60.6557L56.7115 62.2476L58.6074 61.6132ZM61.6467 59.9597L63.5426 59.3253L62.7902 57.0607L60.6948 58.2007L61.6467 59.9597ZM62.2072 61.6469L63.159 63.4059L64.632 62.6045L64.1031 61.0126L62.2072 61.6469ZM57.4599 58.2531L55.564 58.8874L56.3164 61.1521L58.4118 60.012L57.4599 58.2531ZM56.8994 56.5658L55.9476 54.8068L54.4746 55.6082L55.0035 57.2002L56.8994 56.5658ZM59.9387 54.9122L61.8346 54.2779L61.0822 52.0132L58.9869 53.1532L59.9387 54.9122ZM60.4992 56.5995L61.4511 58.3585L62.924 57.5571L62.3951 55.9651L60.4992 56.5995ZM58.272 60.6573L56.3765 61.2929L57.1299 63.5555L59.2238 62.4163L58.272 60.6573ZM57.7265 59.0188L56.7746 57.2598L55.3007 58.0617L55.831 59.6544L57.7265 59.0188ZM60.5989 57.456L62.4944 56.8204L61.741 54.5578L59.647 55.697L60.5989 57.456ZM61.1444 59.0945L62.0962 60.8535L63.5702 60.0516L63.0399 58.4589L61.1444 59.0945ZM55.5994 57.2731L54.6475 55.5141L53.1662 56.32L53.707 57.918L55.5994 57.2731ZM57.4177 56.2838L59.31 55.6389L58.5494 53.3912L56.4658 54.5248L57.4177 56.2838ZM59.695 63.0138L60.6468 64.7727L62.1281 63.9668L61.5873 62.3689L59.695 63.0138ZM57.8767 64.003L55.9843 64.6479L56.7449 66.8957L58.8285 65.762L57.8767 64.003ZM61.0638 62.6662L60.5033 60.9789L56.7115 62.2476L57.272 63.9349L61.0638 62.6662ZM59.5592 63.3722L62.5985 61.7187L60.6948 58.2007L57.6555 59.8543L59.5592 63.3722ZM59.7508 60.594L60.3113 62.2813L64.1031 61.0126L63.5426 59.3253L59.7508 60.594ZM61.2554 59.888L58.2161 61.5415L60.1198 65.0595L63.159 63.4059L61.2554 59.888ZM59.3558 57.6187L58.7953 55.9314L55.0035 57.2002L55.564 58.8874L59.3558 57.6187ZM57.8512 58.3248L60.8905 56.6712L58.9869 53.1532L55.9476 54.8068L57.8512 58.3248ZM58.0428 55.5466L58.6033 57.2338L62.3951 55.9651L61.8346 54.2779L58.0428 55.5466ZM59.5474 54.8405L56.5081 56.4941L58.4118 60.012L61.4511 58.3585L59.5474 54.8405ZM60.1675 60.0217L59.622 58.3832L55.831 59.6544L56.3765 61.2929L60.1675 60.0217ZM58.6783 60.7778L61.5507 59.215L59.647 55.697L56.7746 57.2598L58.6783 60.7778ZM58.7034 58.0916L59.2489 59.7301L63.0399 58.4589L62.4944 56.8204L58.7034 58.0916ZM60.1926 57.3355L57.3202 58.8983L59.2238 62.4163L62.0962 60.8535L60.1926 57.3355ZM56.5512 59.0321L58.3695 58.0428L56.4658 54.5248L54.6475 55.5141L56.5512 59.0321ZM55.5253 56.9287L57.8026 63.6586L61.5873 62.3689L59.31 55.6389L55.5253 56.9287ZM58.7431 61.2548L56.9248 62.2441L58.8285 65.762L60.6468 64.7727L58.7431 61.2548ZM59.769 63.3582L57.4917 56.6282L53.707 57.918L55.9843 64.6479L59.769 63.3582ZM64.8948 52.2158L63.9429 50.4568L62.4685 51.259L62.9995 52.8521L64.8948 52.2158ZM66.7131 51.2265L68.6049 50.58L67.843 48.3349L65.7612 49.4675L66.7131 51.2265ZM69.1035 58.2706L68.6157 60.2125L72.1771 61.1063L70.9953 57.624L69.1035 58.2706ZM64.0775 57.0092L64.5653 55.0672L61.0139 54.1759L62.1842 57.6512L64.0775 57.0092ZM65.1078 60.0688L66.0596 61.8278L67.5387 61.0231L67.0011 59.4267L65.1078 60.0688ZM63.2895 61.0581L61.3977 61.7046L62.1596 63.9497L64.2413 62.8171L63.2895 61.0581ZM60.8991 54.014L61.3894 52.0727L57.8237 51.1729L59.0072 54.6606L60.8991 54.014ZM65.9163 55.2802L65.426 57.2215L68.9688 58.1156L67.8115 54.6439L65.9163 55.2802ZM65.8466 53.9748L67.6649 52.9855L65.7612 49.4675L63.9429 50.4568L65.8466 53.9748ZM64.8212 51.873L67.2117 58.9171L70.9953 57.624L68.6049 50.58L64.8212 51.873ZM69.5913 56.3286L64.5653 55.0672L63.5898 58.9511L68.6157 60.2125L69.5913 56.3286ZM62.1842 57.6512L63.2145 60.7109L67.0011 59.4267L65.9709 56.3671L62.1842 57.6512ZM64.156 58.3098L62.3377 59.2991L64.2413 62.8171L66.0596 61.8278L64.156 58.3098ZM65.1813 60.4116L62.7909 53.3675L59.0072 54.6606L61.3977 61.7046L65.1813 60.4116ZM60.4088 55.9553L65.426 57.2215L66.4066 53.3389L61.3894 52.0727L60.4088 55.9553ZM67.8115 54.6439L66.79 51.5795L62.9995 52.8521L64.021 55.9165L67.8115 54.6439ZM67.9068 52.7969L66.0126 53.4364L66.769 55.6928L68.8586 54.5559L67.9068 52.7969ZM67.2774 50.9194L66.3256 49.1605L64.8486 49.9641L65.3832 51.5589L67.2774 50.9194ZM72.5918 48.0281L74.486 47.3886L73.7296 45.1322L71.64 46.2691L72.5918 48.0281ZM73.2212 49.9056L74.173 51.6646L75.65 50.861L75.1154 49.2661L73.2212 49.9056ZM71.5258 50.8279L70.574 49.069L69.094 49.8742L69.6329 51.4713L71.5258 50.8279ZM73.165 55.6852L74.1168 57.4441L75.5969 56.6389L75.0579 55.0418L73.165 55.6852ZM71.2589 56.7222L69.3659 57.3655L70.1253 59.6158L72.2107 58.4812L71.2589 56.7222ZM69.6197 51.865L71.5126 51.2217L70.7532 48.9715L68.6679 50.106L69.6197 51.865ZM69.801 52.1575L69.1716 50.28L65.3832 51.5589L66.0126 53.4364L69.801 52.1575ZM68.2293 52.6784L73.5436 49.7871L71.64 46.2691L66.3256 49.1605L68.2293 52.6784ZM70.6976 48.6676L71.327 50.5451L75.1154 49.2661L74.486 47.3886L70.6976 48.6676ZM72.2693 48.1466L70.574 49.069L72.4777 52.5869L74.173 51.6646L72.2693 48.1466ZM69.6329 51.4713L71.2721 56.3285L75.0579 55.0418L73.4188 50.1846L69.6329 51.4713ZM72.2132 53.9262L70.307 54.9632L72.2107 58.4812L74.1168 57.4441L72.2132 53.9262ZM73.1518 56.0789L71.5126 51.2217L67.7268 52.5083L69.3659 57.3655L73.1518 56.0789ZM68.6679 50.106L66.955 51.038L68.8586 54.5559L70.5715 53.624L68.6679 50.106ZM73.115 47.7434L72.1632 45.9844L70.677 46.793L71.2247 48.3945L73.115 47.7434ZM75.0211 46.7063L76.9161 46.0691L76.1614 43.8091L74.0693 44.9474L75.0211 46.7063ZM76.4688 51.0416L74.5739 51.6789L74.5895 51.7258L74.6075 51.7719L76.4688 51.0416ZM76.6965 51.4414L75.1383 52.6965L75.172 52.7385L75.2079 52.7786L76.6965 51.4414ZM77.034 51.6448L77.4653 49.6896L77.4653 49.6896L77.034 51.6448ZM77.4784 51.5625L78.3669 53.3544L78.3691 53.3533L77.4784 51.5625ZM77.8692 51.2132L76.156 50.1851L76.156 50.1851L77.8692 51.2132ZM78.0101 50.7381L76.0169 50.6001L76.0146 50.6331L76.0134 50.6661L78.0101 50.7381ZM77.9486 50.2251L79.8535 49.6187L79.8481 49.6015L79.8424 49.5845L77.9486 50.2251ZM76.4969 45.9035L75.545 44.1445L74.0671 44.9486L74.6031 46.5441L76.4969 45.9035ZM78.3942 44.8712L80.2845 44.2201L79.5192 41.9823L77.4424 43.1122L78.3942 44.8712ZM79.9371 49.3823L78.0468 50.0334L78.0508 50.0449L78.0548 50.0564L79.9371 49.3823ZM80.0976 51.0026L78.1348 50.6303L78.1348 50.6303L80.0976 51.0026ZM79.4542 52.3772L77.906 51.1136L77.8999 51.1212L79.4542 52.3772ZM76.8014 53.8205L76.6974 51.8215L76.6974 51.8215L76.8014 53.8205ZM75.5386 53.483L74.4147 55.1396L74.4255 55.1469L74.4364 55.1541L75.5386 53.483ZM74.6579 52.2546L72.7676 52.9056L72.7786 52.9378L72.7907 52.9695L74.6579 52.2546ZM74.0668 49.5024L75.973 48.4653L74.0693 44.9474L72.1632 45.9844L74.0668 49.5024ZM73.1262 47.3436L74.5739 51.6789L78.3638 50.4043L76.9161 46.0691L73.1262 47.3436ZM74.6075 51.7719C74.7339 52.0961 74.9081 52.4094 75.1383 52.6965L78.2547 50.1863C78.2985 50.2409 78.3209 50.2877 78.3301 50.3113L74.6075 51.7719ZM75.2079 52.7786C75.5572 53.169 76.0291 53.4737 76.6027 53.6001L77.4653 49.6896C77.7808 49.7591 78.0277 49.9282 78.1851 50.1041L75.2079 52.7786ZM76.6027 53.6001C77.3289 53.76 77.9562 53.5593 78.3669 53.3544L76.5898 49.7705C76.6663 49.7324 76.9973 49.5865 77.4653 49.6896L76.6027 53.6001ZM78.3691 53.3533C78.8356 53.12 79.2732 52.7579 79.5824 52.2413L76.156 50.1851C76.2901 49.9611 76.4671 49.8319 76.5876 49.7716L78.3691 53.3533ZM79.5824 52.2413C79.8435 51.8052 79.988 51.3179 80.0068 50.8101L76.0134 50.6661C76.0196 50.4991 76.0702 50.3285 76.156 50.1851L79.5824 52.2413ZM80.0033 50.8761C80.0334 50.447 79.9815 50.0236 79.8535 49.6187L76.0436 50.8316C76.0221 50.7634 76.0112 50.682 76.0169 50.6001L80.0033 50.8761ZM79.8424 49.5845L78.3907 45.2628L74.6031 46.5441L76.0548 50.8658L79.8424 49.5845ZM77.4487 47.6624L79.3461 46.6301L77.4424 43.1122L75.545 44.1445L77.4487 47.6624ZM76.5039 45.5222L78.0468 50.0334L81.8274 48.7313L80.2845 44.2201L76.5039 45.5222ZM78.0548 50.0564C78.1603 50.3529 78.154 50.5295 78.1348 50.6303L82.0603 51.3749C82.2343 50.4599 82.121 49.5564 81.8193 48.7082L78.0548 50.0564ZM78.1348 50.6303C78.1016 50.805 78.0325 50.9581 77.9061 51.1136L81.0024 53.6409C81.5405 52.9794 81.9004 52.2161 82.0603 51.3749L78.1348 50.6303ZM77.8999 51.1212C77.7536 51.3029 77.5528 51.4764 77.2661 51.6324L79.1697 55.1504C79.8785 54.7648 80.502 54.2622 81.0085 53.6333L77.8999 51.1212ZM77.2661 51.6324C77.0018 51.7762 76.8171 51.8151 76.6974 51.8215L76.9055 55.8196C77.714 55.7763 78.4736 55.5291 79.1697 55.1504L77.2661 51.6324ZM76.6974 51.8215C76.6779 51.8225 76.666 51.8218 76.6605 51.8212C76.6551 51.8207 76.6537 51.8202 76.6549 51.8205C76.6561 51.8208 76.6569 51.8212 76.6561 51.8208C76.6553 51.8204 76.6503 51.8181 76.6408 51.8119L74.4364 55.1541C75.1806 55.6463 76.0265 55.8666 76.9055 55.8196L76.6974 51.8215ZM76.6625 51.8264C76.7276 51.8707 76.644 51.8522 76.5251 51.5396L72.7907 52.9695C73.1023 53.7888 73.6058 54.5893 74.4147 55.1396L76.6625 51.8264ZM76.5481 51.6035L75.0053 47.0924L71.2247 48.3945L72.7676 52.9056L76.5481 51.6035ZM82.5961 47.1388L81.6443 45.3798L79.1052 46.7612L81.2875 48.6533L82.5961 47.1388ZM84.4847 46.1112L85.6654 44.4948L84.645 43.7472L83.5328 44.3523L84.4847 46.1112ZM87.1597 48.0711L88.1116 49.8301L90.8868 48.3201L88.3404 46.4546L87.1597 48.0711ZM85.0164 49.2372L83.7079 50.7517L84.7527 51.6575L85.9683 50.9962L85.0164 49.2372ZM79.5154 44.2612L78.5635 42.5022L77.0823 43.3081L77.623 44.9061L79.5154 44.2612ZM81.4215 43.2241L83.3139 42.5792L82.5533 40.3315L80.4697 41.4651L81.4215 43.2241ZM83.6988 49.9541L84.6506 51.713L86.1319 50.9071L85.5912 49.3092L83.6988 49.9541ZM81.7927 50.9911L79.9003 51.636L80.6609 53.8837L82.7445 52.7501L81.7927 50.9911ZM81.3357 45.3769L79.4457 46.0289L80.2118 48.2652L82.2875 47.1359L81.3357 45.3769ZM80.7276 43.6017L79.7757 41.8427L78.2888 42.6517L78.8376 44.2537L80.7276 43.6017ZM83.4177 42.4796L83.4699 44.4807L83.4834 44.4804L83.497 44.4798L83.4177 42.4796ZM84.5682 42.7985L83.4225 44.4401L83.4408 44.4529L83.4594 44.4653L84.5682 42.7985ZM85.3395 43.8247L87.1984 43.0882L87.1984 43.0882L85.3395 43.8247ZM84.9206 46.4546L86.4788 47.7059L86.4788 47.7059L84.9206 46.4546ZM82.2829 48.2199L80.3841 48.8456L81.1297 51.1242L83.2347 49.9789L82.2829 48.2199ZM81.7611 46.6254L80.8093 44.8664L79.3431 45.6641L79.8624 47.2511L81.7611 46.6254ZM83.2123 45.7561L84.6911 47.1006L84.7094 47.0803L84.7272 47.0596L83.2123 45.7561ZM83.4015 45.3914L81.4678 44.8899L81.4585 44.9256L81.4505 44.9616L83.4015 45.3914ZM83.3883 44.9887L81.479 45.581L81.4817 45.5898L81.4844 45.5985L83.3883 44.9887ZM83.5479 48.8977L85.4365 47.8702L83.5328 44.3523L81.6443 45.3798L83.5479 48.8977ZM83.304 47.7277L85.979 49.6876L88.3404 46.4546L85.6654 44.4948L83.304 47.7277ZM86.2079 46.3121L84.0646 47.4782L85.9683 50.9962L88.1116 49.8301L86.2079 46.3121ZM86.325 47.7227L83.9046 45.6243L81.2875 48.6533L83.7079 50.7517L86.325 47.7227ZM80.4672 46.0202L82.3733 44.9831L80.4697 41.4651L78.5635 42.5022L80.4672 46.0202ZM79.5291 43.869L81.8064 50.5989L85.5912 49.3092L83.3139 42.5792L79.5291 43.869ZM82.747 48.1951L80.8408 49.2321L82.7445 52.7501L84.6506 51.713L82.747 48.1951ZM83.6851 50.3462L81.4077 43.6163L77.623 44.9061L79.9003 51.636L83.6851 50.3462ZM83.2257 44.7249L82.6175 42.9497L78.8376 44.2537L79.4457 46.0289L83.2257 44.7249ZM81.6794 45.3607L82.9443 44.6725L81.0406 41.1545L79.7757 41.8427L81.6794 45.3607ZM82.9443 44.6725C83.2607 44.5003 83.4269 44.4819 83.4699 44.4807L83.3655 40.4784C82.5272 40.5014 81.7432 40.7723 81.0406 41.1545L82.9443 44.6725ZM83.497 44.4798C83.5291 44.4785 83.5254 44.4828 83.4983 44.4753C83.4857 44.4718 83.4714 44.4666 83.4567 44.4597C83.4421 44.4528 83.4305 44.4457 83.4225 44.4401L85.7138 41.157C84.994 40.6532 84.1715 40.4452 83.3385 40.4793L83.497 44.4798ZM83.4594 44.4653C83.4436 44.4548 83.4312 44.4444 83.4225 44.4361C83.414 44.4279 83.4112 44.4239 83.4134 44.4268C83.4182 44.4331 83.4452 44.4711 83.4806 44.5612L87.1984 43.0882C86.9035 42.3393 86.4227 41.6292 85.6769 41.1318L83.4594 44.4653ZM83.4806 44.5612C83.5423 44.7178 83.5396 44.8078 83.5295 44.8687L87.4718 45.5196C87.6109 44.6797 87.5008 43.8567 87.1984 43.0882L83.4806 44.5612ZM83.5295 44.8687C83.5162 44.949 83.4806 45.0557 83.3625 45.2034L86.4788 47.7059C86.9847 47.0738 87.3358 46.3402 87.4718 45.5196L83.5295 44.8687ZM83.3625 45.2034C83.2469 45.3478 83.0497 45.5258 82.7101 45.7106L84.6138 49.2286C85.3283 48.8398 85.9702 48.3413 86.4788 47.7059L83.3625 45.2034ZM82.7101 45.7106L81.331 46.4609L83.2347 49.9789L84.6138 49.2286L82.7101 45.7106ZM84.1816 47.5941L83.6599 45.9996L79.8624 47.2511L80.3841 48.8456L84.1816 47.5941ZM82.713 48.3843L83.8022 47.7917L81.8985 44.2738L80.8093 44.8664L82.713 48.3843ZM83.8022 47.7917C84.1115 47.6234 84.4206 47.3992 84.6911 47.1006L81.7336 44.4117C81.8143 44.3226 81.882 44.2828 81.8985 44.2738L83.8022 47.7917ZM84.7272 47.0596C85.0111 46.7285 85.2438 46.3138 85.3525 45.8211L81.4505 44.9616C81.5022 44.7277 81.6087 44.5561 81.6974 44.4526L84.7272 47.0596ZM85.3353 45.8928C85.4688 45.3785 85.4448 44.8589 85.2922 44.3789L81.4844 45.5985C81.4182 45.3902 81.4031 45.1391 81.4678 44.8899L85.3353 45.8928ZM85.2977 44.3964C85.1666 43.9707 84.8925 43.4451 84.3458 43.0625L82.0545 46.3456C81.6786 46.0825 81.53 45.7467 81.479 45.581L85.2977 44.3964ZM84.3458 43.0625C83.8568 42.7202 83.3145 42.6031 82.8278 42.6197L82.9591 46.6212C82.7105 46.6297 82.3727 46.5683 82.0545 46.3456L84.3458 43.0625ZM82.8278 42.6197C82.323 42.637 81.8929 42.7969 81.5609 42.9775L83.4646 46.4955C83.402 46.5295 83.2257 46.6121 82.9591 46.6212L82.8278 42.6197ZM81.5609 42.9775L80.3839 43.6179L82.2875 47.1359L83.4646 46.4955L81.5609 42.9775ZM89.0458 47.0449L87.1499 47.6793L87.9022 49.944L89.9976 48.8039L89.0458 47.0449ZM88.4852 45.3577L87.5334 43.5987L86.0605 44.4001L86.5893 45.992L88.4852 45.3577ZM91.5245 43.7041L93.4204 43.0697L92.6681 40.8051L90.5727 41.9451L91.5245 43.7041ZM92.0851 45.3914L93.0369 47.1504L94.5099 46.349L93.981 44.757L92.0851 45.3914ZM87.3378 41.9975L85.4419 42.6319L86.1943 44.8965L88.2896 43.7565L87.3378 41.9975ZM86.7773 40.3102L85.8254 38.5512L84.3525 39.3526L84.8813 40.9446L86.7773 40.3102ZM89.8165 38.6567L91.7125 38.0223L90.9601 35.7576L88.8647 36.8977L89.8165 38.6567ZM90.3771 40.3439L91.3289 42.1029L92.8019 41.3015L92.273 39.7096L90.3771 40.3439ZM88.1499 44.4017L86.2544 45.0373L87.0077 47.3L89.1017 46.1607L88.1499 44.4017ZM87.6043 42.7632L86.6525 41.0042L85.1786 41.8062L85.7088 43.3988L87.6043 42.7632ZM90.4767 41.2004L92.3722 40.5648L91.6189 38.3022L89.5249 39.4415L90.4767 41.2004ZM91.0223 42.839L91.9741 44.5979L93.448 43.796L92.9178 42.2034L91.0223 42.839ZM85.4772 41.0175L84.5254 39.2586L83.0441 40.0645L83.5848 41.6624L85.4772 41.0175ZM87.2955 40.0283L89.1879 39.3834L88.4273 37.1357L86.3437 38.2693L87.2955 40.0283ZM89.5728 46.7582L90.5247 48.5172L92.0059 47.7113L91.4652 46.1133L89.5728 46.7582ZM87.7545 47.7475L85.8621 48.3924L86.6227 50.6401L88.7064 49.5065L87.7545 47.7475ZM90.9417 46.4106L90.3811 44.7233L86.5893 45.992L87.1499 47.6793L90.9417 46.4106ZM89.4371 47.1167L92.4764 45.4631L90.5727 41.9451L87.5334 43.5987L89.4371 47.1167ZM89.6286 44.3385L90.1892 46.0257L93.981 44.757L93.4204 43.0697L89.6286 44.3385ZM91.1332 43.6324L88.094 45.286L89.9976 48.8039L93.0369 47.1504L91.1332 43.6324ZM89.2337 41.3631L88.6732 39.6759L84.8813 40.9446L85.4419 42.6319L89.2337 41.3631ZM87.7291 42.0692L90.7684 40.4156L88.8647 36.8977L85.8254 38.5512L87.7291 42.0692ZM87.9206 39.291L88.4812 40.9783L92.273 39.7096L91.7125 38.0223L87.9206 39.291ZM89.4253 38.5849L86.386 40.2385L88.2896 43.7565L91.3289 42.1029L89.4253 38.5849ZM90.0454 43.7661L89.4998 42.1276L85.7088 43.3988L86.2544 45.0373L90.0454 43.7661ZM88.5562 44.5222L91.4286 42.9594L89.5249 39.4415L86.6525 41.0042L88.5562 44.5222ZM88.5812 41.836L89.1268 43.4745L92.9178 42.2034L92.3722 40.5648L88.5812 41.836ZM90.0704 41.08L87.198 42.6427L89.1017 46.1607L91.9741 44.5979L90.0704 41.08ZM86.429 42.7765L88.2473 41.7872L86.3437 38.2693L84.5254 39.2586L86.429 42.7765ZM85.4031 40.6731L87.6804 47.4031L91.4652 46.1133L89.1879 39.3834L85.4031 40.6731ZM88.621 44.9992L86.8027 45.9885L88.7064 49.5065L90.5247 48.5172L88.621 44.9992ZM89.6469 47.1026L87.3696 40.3727L83.5848 41.6624L85.8621 48.3924L89.6469 47.1026ZM93.2015 41.7558L94.3683 40.1292L92.5067 38.7898L91.435 40.8224L93.2015 41.7558ZM93.7754 42.081L94.5527 40.2358L94.5527 40.2358L93.7754 42.081ZM95.1945 41.8668L96.5668 43.3201L96.5975 43.291L96.627 43.2606L95.1945 41.8668ZM95.365 41.6146L97.2142 42.3707L97.2176 42.3624L97.2209 42.354L95.365 41.6146ZM95.3778 41.3231L93.4366 41.7998L93.4508 41.858L93.4684 41.9154L95.3778 41.3231ZM95.16 41.0887L95.6522 39.1478L95.6522 39.1478L95.16 41.0887ZM94.6992 41.0775L94.8272 43.0752L94.8726 43.0722L94.9178 43.0671L94.6992 41.0775ZM94.0308 41.1452L94.2057 43.1392L94.2435 43.1358L94.2812 43.131L94.0308 41.1452ZM93.3467 41.1417L93.0873 43.127L93.1256 43.132L93.1642 43.1354L93.3467 41.1417ZM92.648 40.964L91.863 42.8059L91.898 42.8209L91.9335 42.8345L92.648 40.964ZM92.0312 40.5596L90.6537 42.0115L90.6596 42.0171L90.6655 42.0226L92.0312 40.5596ZM91.5835 39.8583L89.7083 40.552L89.7132 40.5653L89.7183 40.5786L91.5835 39.8583ZM92.1341 37.4299L90.6327 36.1109L90.626 36.1185L92.1341 37.4299ZM93.2105 36.5824L94.1371 38.3549L94.1498 38.3482L94.1623 38.3414L93.2105 36.5824ZM94.3341 36.2215L94.4829 38.2177L94.4999 38.2164L94.517 38.2148L94.3341 36.2215ZM95.3257 36.331L94.6738 38.2241L94.7012 38.2336L94.7288 38.2422L95.3257 36.331ZM96.1537 36.7685L97.8066 37.8912L98.8415 36.3631L97.4067 35.2076L96.1537 36.7685ZM95.0792 38.3549L94.0261 40.0574L95.6551 41.0677L96.7321 39.4776L95.0792 38.3549ZM94.6755 38.1761L94.0406 40.075L94.1059 40.0969L94.1726 40.1142L94.6755 38.1761ZM94.2985 38.1307L94.4116 40.1293L94.4608 40.1264L94.5097 40.1212L94.2985 38.1307ZM93.7085 38.4062L95.0073 39.9259L95.0583 39.8821L95.1063 39.8349L93.7085 38.4062ZM93.55 38.6176L95.3372 39.5105L95.3658 39.4532L95.3907 39.3941L93.55 38.6176ZM93.5262 38.8469L91.591 39.3475L91.591 39.3476L93.5262 38.8469ZM93.7345 39.0637L93.0892 40.9591L93.127 40.972L93.1653 40.9834L93.7345 39.0637ZM94.1291 39.0995L94.2331 41.0985L94.2726 41.0964L94.3119 41.0928L94.1291 39.0995ZM94.6053 39.0339L94.9527 41.0049L95.0007 40.9964L95.0482 40.9855L94.6053 39.0339ZM95.0719 38.9508L95.3032 40.9389L95.3332 40.9354L95.363 40.931L95.0719 38.9508ZM96.0749 38.9971L95.5343 40.925L95.5491 40.9292L95.5639 40.9331L96.0749 38.9971ZM96.8534 39.4273L95.4776 40.8808L95.4981 40.9002L95.5191 40.9191L96.8534 39.4273ZM97.3711 40.2158L99.2461 39.5218L99.2427 39.5125L99.2391 39.5032L97.3711 40.2158ZM97.462 41.6235L95.5254 41.1328L95.525 41.1344L97.462 41.6235ZM96.8182 42.8504L95.3018 41.5487L95.2901 41.5623L95.2788 41.5761L96.8182 42.8504ZM95.717 43.7569L96.6432 45.5295L96.6561 45.5228L96.6688 45.5159L95.717 43.7569ZM94.4824 44.144L94.2746 42.1532L94.2659 42.1541L94.2571 42.1551L94.4824 44.144ZM93.3075 44.0319L93.9221 42.1263L93.9221 42.1263L93.3075 44.0319ZM92.3093 43.4479L90.5428 42.5145L89.8256 43.8747L90.9514 44.9182L92.3093 43.4479ZM92.0346 43.3823C92.333 43.597 92.6542 43.7811 92.9982 43.9262L94.5527 40.2358C94.5038 40.2152 94.4423 40.1825 94.3683 40.1292L92.0346 43.3823ZM92.9982 43.9262C93.4212 44.1046 93.8829 44.2079 94.3703 44.2061L94.36 40.2023C94.4539 40.2019 94.5226 40.2231 94.5527 40.2358L92.9982 43.9262ZM94.3703 44.2061C94.9248 44.2039 95.4399 44.0557 95.893 43.8091L93.9894 40.2911C94.0678 40.2485 94.1987 40.2029 94.36 40.2023L94.3703 44.2061ZM95.893 43.8091C96.1349 43.6775 96.3615 43.5147 96.5668 43.3201L93.8221 40.4135C93.8771 40.3613 93.935 40.3207 93.9894 40.2911L95.893 43.8091ZM96.627 43.2606C96.8517 43.0288 97.0657 42.7343 97.2142 42.3707L93.5159 40.8585C93.5926 40.6705 93.6929 40.5442 93.762 40.473L96.627 43.2606ZM97.2209 42.354C97.4247 41.842 97.4547 41.275 97.2872 40.7308L93.4684 41.9154C93.3609 41.5661 93.3825 41.1935 93.5091 40.8752L97.2209 42.354ZM97.319 40.8464C97.2408 40.5253 97.0795 40.1441 96.7633 39.8039C96.4383 39.4541 96.041 39.2464 95.6522 39.1478L94.6678 43.0295C94.3932 42.9599 94.0893 42.8057 93.8369 42.534C93.5933 42.2719 93.4838 41.9935 93.4366 41.7998L97.319 40.8464ZM95.6522 39.1478C95.2039 39.0342 94.7778 39.0548 94.4805 39.0879L94.9178 43.0671C94.9471 43.0639 94.9414 43.0663 94.9086 43.0655C94.8787 43.0648 94.7911 43.0607 94.6678 43.0295L95.6522 39.1478ZM94.5712 39.0799C94.3287 39.0958 94.0634 39.1232 93.7805 39.1594L94.2812 43.131C94.5087 43.1019 94.689 43.0842 94.8272 43.0752L94.5712 39.0799ZM93.856 39.1512C93.7694 39.1589 93.6615 39.1599 93.5293 39.1479L93.1642 43.1354C93.5102 43.1668 93.8584 43.1702 94.2057 43.1392L93.856 39.1512ZM93.6062 39.1564C93.53 39.1465 93.4496 39.1269 93.3624 39.0936L91.9335 42.8345C92.3051 42.9766 92.6905 43.0754 93.0873 43.127L93.6062 39.1564ZM93.433 39.1221C93.4259 39.1191 93.4157 39.1143 93.3969 39.0966L90.6655 42.0226C91.0156 42.3507 91.4167 42.6155 91.863 42.8059L93.433 39.1221ZM93.4087 39.1078C93.4393 39.1369 93.456 39.1606 93.4621 39.1701C93.4677 39.1788 93.4612 39.1708 93.4486 39.138L89.7183 40.5786C89.9152 41.0918 90.2138 41.5926 90.6537 42.0115L93.4087 39.1078ZM93.4586 39.1647C93.4498 39.1405 93.4455 39.1238 93.4434 39.1141C93.4424 39.1091 93.4418 39.1056 93.4415 39.1035C93.4412 39.1014 93.4412 39.1003 93.4412 39.1002C93.4412 39.1 93.4412 39.1005 93.4412 39.1013C93.4411 39.1022 93.4411 39.1032 93.441 39.104C93.4408 39.1061 93.4406 39.1055 93.4418 39.1013L89.5873 38.0492C89.3551 38.8998 89.4151 39.754 89.7083 40.552L93.4586 39.1647ZM93.4418 39.1013C93.473 38.9869 93.5301 38.8706 93.6422 38.7413L90.626 36.1185C90.1408 36.6784 89.7849 37.3257 89.5873 38.0492L93.4418 39.1013ZM93.6355 38.7489C93.7761 38.5883 93.9395 38.4588 94.1371 38.3549L92.2839 34.81C91.6553 35.1404 91.1011 35.5759 90.6327 36.1109L93.6355 38.7489ZM94.1623 38.3414C94.3662 38.2305 94.468 38.2188 94.4829 38.2177L94.1854 34.2254C93.4868 34.2785 92.8395 34.5074 92.2587 34.8235L94.1623 38.3414ZM94.517 38.2148C94.6144 38.2057 94.658 38.2187 94.6738 38.2241L95.9776 34.4378C95.3784 34.2314 94.761 34.1714 94.1513 34.2283L94.517 38.2148ZM94.7288 38.2422C94.8116 38.268 94.8627 38.2988 94.9007 38.3294L97.4067 35.2076C96.961 34.8486 96.4602 34.5877 95.9226 34.4197L94.7288 38.2422ZM94.5008 35.6458L93.4263 37.2322L96.7321 39.4776L97.8066 37.8912L94.5008 35.6458ZM96.1323 36.6523C95.8545 36.48 95.5359 36.3307 95.1783 36.238L94.1726 40.1142C94.0796 40.09 94.0301 40.0599 94.0261 40.0574L96.1323 36.6523ZM95.3103 36.2771C94.9404 36.1534 94.5259 36.093 94.0872 36.1403L94.5097 40.1212C94.3145 40.1422 94.1514 40.1121 94.0406 40.075L95.3103 36.2771ZM94.1853 36.1322C93.7338 36.1584 93.3257 36.2921 92.9748 36.483L94.8784 40.001C94.7734 40.0581 94.6133 40.1176 94.4116 40.1293L94.1853 36.1322ZM92.9748 36.483C92.7172 36.6231 92.4969 36.7945 92.3106 36.9775L95.1063 39.8349C95.0586 39.8818 94.9838 39.9437 94.8784 40.001L92.9748 36.483ZM92.4097 36.8865C92.1296 37.1269 91.8767 37.4437 91.7093 37.8412L95.3907 39.3941C95.2896 39.6341 95.1424 39.8099 95.0073 39.9259L92.4097 36.8865ZM91.7628 37.7248C91.508 38.2357 91.4524 38.8075 91.591 39.3475L95.4614 38.3462C95.5058 38.519 95.5265 38.7188 95.5042 38.9341C95.4818 39.1497 95.42 39.3445 95.3372 39.5105L91.7628 37.7248ZM91.591 39.3476C91.8 40.1621 92.3956 40.7228 93.0892 40.9591L94.3798 37.1683C94.5726 37.234 94.8173 37.3608 95.0392 37.5918C95.2657 37.8276 95.3979 38.0985 95.4614 38.3462L91.591 39.3476ZM93.1653 40.9834C93.5561 41.0992 93.9294 41.1148 94.2331 41.0985L94.025 37.1004C94.0274 37.1003 94.0528 37.099 94.097 37.103C94.1409 37.107 94.2128 37.1171 94.3037 37.144L93.1653 40.9834ZM94.3119 41.0928C94.5241 41.073 94.7379 41.0432 94.9527 41.0049L94.2578 37.063C94.1408 37.0838 94.0372 37.0977 93.9463 37.1062L94.3119 41.0928ZM95.0482 40.9855C95.1606 40.9597 95.2445 40.9459 95.3032 40.9389L94.8407 36.9626C94.6144 36.9893 94.3872 37.0309 94.1624 37.0824L95.0482 40.9855ZM95.363 40.931C95.4963 40.9111 95.5426 40.9274 95.5343 40.925L96.6154 37.0692C95.9995 36.8965 95.3772 36.8819 94.7809 36.9706L95.363 40.931ZM95.5639 40.9331C95.5641 40.9331 95.5604 40.9322 95.5537 40.9295C95.5469 40.9268 95.5382 40.9229 95.5283 40.9174C95.5072 40.9057 95.4895 40.8921 95.4776 40.8808L98.2293 37.9739C97.7595 37.5276 97.1997 37.2231 96.5858 37.0611L95.5639 40.9331ZM95.5191 40.9191C95.5072 40.9085 95.4978 40.8985 95.4908 40.8903C95.4838 40.882 95.48 40.8765 95.4789 40.8749C95.4767 40.8715 95.487 40.8863 95.503 40.9284L99.2391 39.5032C99.0219 38.9299 98.6849 38.3819 98.1878 37.9356L95.5191 40.9191ZM95.496 40.9098C95.5457 41.0449 95.5336 41.1008 95.5254 41.1328L99.3985 42.1143C99.6226 41.2306 99.5499 40.3481 99.2461 39.5218L95.496 40.9098ZM95.525 41.1344C95.4911 41.2686 95.4269 41.4024 95.3018 41.5487L98.3347 44.152C98.841 43.5601 99.206 42.876 99.3989 42.1127L95.525 41.1344ZM95.2788 41.5761C95.137 41.748 94.9701 41.8864 94.7651 41.9979L96.6688 45.5159C97.3189 45.1622 97.8862 44.6963 98.3577 44.1246L95.2788 41.5761ZM94.7907 41.9842C94.5848 42.0924 94.4156 42.1382 94.2746 42.1532L94.6902 46.1348C95.3809 46.0616 96.0346 45.8493 96.6432 45.5295L94.7907 41.9842ZM94.2571 42.1551C94.1231 42.1705 94.0184 42.1573 93.9221 42.1263L92.6928 45.9375C93.3496 46.1494 94.0282 46.2109 94.7077 46.1328L94.2571 42.1551ZM93.9221 42.1263C93.8207 42.0935 93.7419 42.0469 93.6671 41.9776L90.9514 44.9182C91.4545 45.3845 92.0412 45.7272 92.6928 45.9375L93.9221 42.1263ZM94.0758 44.3813L94.968 42.6891L91.435 40.8224L90.5428 42.5145L94.0758 44.3813Z" fill="white" mask="url(#path-3-outside-1_202_214)"/>
</svg>
