<svg width="494" height="189" viewBox="0 0 494 189" fill="none" xmlns="http://www.w3.org/2000/svg">
<mask id="path-1-outside-1_282_816" maskUnits="userSpaceOnUse" x="-13.3106" y="-11.239" width="516.931" height="212.682" fill="black">
<rect fill="white" x="-13.3106" y="-11.239" width="516.931" height="212.682"/>
<path d="M132.176 101.075L130.458 88.7367L159.188 84.5072L160.906 96.8456L132.176 101.075ZM143.03 76.2072L138.892 92.1969L140.795 95.9811L136.633 107.591L116.767 110.516L138.699 47.2789L177.71 101.544L158.715 104.341L151.762 94.7649L151.951 90.2744L143.03 76.2072ZM186.059 83.3565C187.104 84.5203 188.215 85.5469 189.391 86.4363C190.567 87.3257 191.797 87.9734 193.08 88.3795C194.364 88.7856 195.681 88.8892 197.031 88.6904C197.707 88.591 198.335 88.4135 198.915 88.1581C199.524 87.856 200.001 87.4883 200.345 87.055C200.719 86.5749 200.87 86.0215 200.797 85.3946C200.756 84.5931 200.381 83.9895 199.673 83.5837C198.965 83.1779 197.968 82.8359 196.682 82.5577C195.425 82.2327 193.944 81.8982 192.239 81.5542C190.8 81.2136 189.314 80.7309 187.782 80.1064C186.279 79.4351 184.835 78.6064 183.45 77.6202C182.094 76.5872 180.924 75.3782 179.94 73.9931C178.942 72.5674 178.264 70.9033 177.906 69.0008C177.412 66.1409 177.803 63.6182 179.078 61.4329C180.354 59.2475 182.183 57.4694 184.566 56.0985C186.991 54.7215 189.687 53.8357 192.655 53.4413C195.484 53.0249 198.078 53.1105 200.438 53.6981C202.786 54.2451 204.895 55.1459 206.766 56.4006C208.666 57.6084 210.281 59.0282 211.612 60.6599L202.601 67.5968C201.816 66.8199 201.013 66.1942 200.194 65.7197C199.404 65.1985 198.604 64.8488 197.793 64.6706C196.969 64.4519 196.114 64.4078 195.228 64.5383C194.679 64.619 194.136 64.784 193.598 65.0332C193.047 65.2419 192.613 65.5394 192.297 65.926C191.968 66.2719 191.82 66.6975 191.853 67.2027C191.896 67.8764 192.258 68.4394 192.937 68.892C193.603 69.304 194.445 69.6475 195.465 69.9225C196.47 70.1569 197.533 70.3617 198.652 70.537C199.801 70.6654 200.85 70.8297 201.8 71.0298C204.248 71.4771 206.408 72.2641 208.282 73.3909C210.142 74.4772 211.653 75.8485 212.815 77.5051C214.006 79.1149 214.799 80.9958 215.194 83.1477C215.739 86.2977 215.343 89.0761 214.008 91.4828C212.701 93.8428 210.785 95.7612 208.26 97.238C205.79 98.7491 203.015 99.7315 199.933 100.185C197.007 100.573 194.161 100.461 191.394 99.8484C188.682 99.27 186.176 98.2365 183.874 96.7477C181.572 95.2589 179.649 93.4382 178.103 91.2857L186.059 83.3565ZM214.372 63.9513L212.641 51.7742L250.948 46.1349L252.679 58.312L240.459 60.111L245.009 91.6367L231.269 93.6594L226.719 62.1337L214.372 63.9513ZM271.488 68.6126L285.101 66.6085L300.068 83.5313L284.618 85.8057L271.488 68.6126ZM255.036 45.5331L268.776 43.5104L275.121 87.2038L261.381 89.2266L255.036 45.5331ZM265.496 55.7876L263.774 44.2467L272.891 42.9045C276.564 42.3638 279.844 42.5184 282.733 43.3682C285.609 44.1775 287.975 45.593 289.832 47.6148C291.718 49.5898 292.962 52.1055 293.565 55.162C294.167 58.2184 293.941 60.9719 292.885 63.4225C291.829 65.873 290.037 67.9006 287.51 69.5053C284.982 71.11 281.819 72.1919 278.02 72.7512L268.079 74.2146L266.692 63.8995L274.544 62.7436C275.599 62.5883 276.502 62.3066 277.253 61.8984C278.034 61.4436 278.599 60.8716 278.948 60.1826C279.34 59.4874 279.481 58.7016 279.371 57.8253C279.274 56.9895 278.985 56.3095 278.504 55.7853C278.022 55.2611 277.391 54.8866 276.609 54.6616C275.827 54.4367 274.951 54.3957 273.98 54.5386L265.496 55.7876ZM313.213 59.2823C313.44 60.6515 313.823 61.9552 314.361 63.1935C314.928 64.3851 315.667 65.424 316.576 66.3101C317.486 67.1963 318.568 67.8658 319.823 68.3186C321.064 68.7309 322.444 68.8252 323.964 68.6015C325.539 68.4121 326.895 67.9576 328.031 67.2378C329.195 66.4713 330.132 65.5472 330.839 64.4654C331.576 63.3369 332.076 62.0945 332.34 60.7381C332.59 59.3411 332.61 57.9144 332.398 56.458C332.171 55.0889 331.767 53.7882 331.187 52.5561C330.648 51.3178 329.924 50.2555 329.015 49.3694C328.147 48.477 327.093 47.8247 325.852 47.4124C324.639 46.9533 323.231 46.8419 321.627 47.078C320.065 47.3079 318.695 47.7859 317.517 48.5118C316.381 49.2316 315.445 50.1557 314.709 51.2842C314.014 52.4065 313.535 53.6458 313.271 55.0022C313.008 56.3586 312.988 57.7853 313.213 59.2823ZM298.713 61.4169C298.144 58.058 298.238 54.899 298.994 51.94C299.738 48.9404 301.029 46.2638 302.869 43.9104C304.696 41.5164 306.97 39.5452 309.693 37.9967C312.445 36.4016 315.552 35.3492 319.013 34.8396C322.432 34.3363 325.7 34.4503 328.815 35.1817C331.931 35.9131 334.735 37.1792 337.227 38.9799C339.748 40.7339 341.84 42.9335 343.503 45.5789C345.195 48.1775 346.326 51.0924 346.898 54.3234C347.467 57.6823 347.408 60.8788 346.72 63.9127C346.032 66.9466 344.788 69.7011 342.988 72.1762C341.175 74.6108 338.878 76.649 336.097 78.291C333.359 79.9267 330.216 81.0056 326.671 81.5276C323.167 82.0433 319.844 81.895 316.702 81.0825C313.56 80.27 310.736 78.9431 308.23 77.1018C305.754 75.2138 303.684 72.9471 302.021 70.3017C300.387 67.6096 299.285 64.648 298.713 61.4169ZM51.5687 178.13L50.1944 168.259L73.1787 164.875L74.553 174.746L51.5687 178.13ZM60.2521 158.235L56.9415 171.027L58.464 174.055L55.1343 183.343L39.2416 185.682L56.7878 135.093L87.9961 178.505L72.7999 180.742L67.2381 173.082L67.3889 169.489L60.2521 158.235ZM85.5662 134.235L99.876 132.128L106.221 175.822L91.9114 177.929L85.5662 134.235ZM109.324 175.365L101.219 176.558L99.5873 164.685L106.236 163.707C108.177 163.421 109.914 162.846 111.445 161.983C113.019 161.114 114.186 159.88 114.945 158.281C115.747 156.675 115.939 154.628 115.522 152.139C115.191 150.318 114.679 148.82 113.985 147.647C113.278 146.434 112.418 145.498 111.406 144.839C110.394 144.181 109.258 143.753 107.999 143.556C106.74 143.359 105.414 143.363 104.021 143.568L96.5491 144.668L94.9372 132.856L102.155 131.793C105.701 131.271 109.033 131.312 112.151 131.915C115.269 132.519 118.041 133.62 120.467 135.218C122.935 136.809 124.981 138.867 126.604 141.391C128.213 143.874 129.289 146.755 129.832 150.032C130.401 153.391 130.336 156.503 129.638 159.369C128.926 162.194 127.672 164.716 125.877 166.936C124.068 169.114 121.768 170.941 118.976 172.414C116.214 173.841 112.996 174.825 109.324 175.365ZM153.585 145.771L158.376 123.516L174.839 121.093L158.032 171.51L126.084 128.27L141.977 125.931L153.585 145.771ZM194.217 162.868L192.694 151.935L214.602 148.71L216.125 159.643L194.217 162.868ZM189.458 130.098L187.935 119.165L209.843 115.94L211.366 126.872L189.458 130.098ZM191.715 145.704L190.228 135.085L210.933 132.036L212.42 142.656L191.715 145.704ZM178.564 120.545L191.671 118.615L198.016 162.308L184.909 164.238L178.564 120.545ZM251.595 98.6364L267.978 96.2245L276.336 153.409L237.362 131.174L240.927 155.991L224.543 158.403L216.186 101.219L255.08 123.465L251.595 98.6364ZM276.84 118.509L275.109 106.332L313.416 100.692L315.147 112.869L302.927 114.668L307.478 146.194L293.738 148.217L289.187 116.691L276.84 118.509ZM317.187 100.137L330.927 98.1144L334.889 126.22C335.081 127.212 335.407 128.142 335.868 129.009C336.358 129.829 337.006 130.456 337.812 130.89C338.618 131.324 339.618 131.475 340.813 131.341C342.051 131.201 343.048 130.8 343.804 130.136C344.56 129.472 345.066 128.654 345.323 127.681C345.621 126.702 345.704 125.67 345.569 124.584L341.565 96.5485L355.241 94.5351L359.601 123.857C360.205 127.594 359.871 130.831 358.6 133.568C357.328 136.305 355.351 138.509 352.668 140.179C350.027 141.843 346.913 142.939 343.325 143.467C339.863 143.977 336.604 143.819 333.546 142.994C330.488 142.169 327.886 140.64 325.738 138.406C323.633 136.165 322.236 133.183 321.547 129.46L317.187 100.137ZM379.775 116.425L393.388 114.421L408.355 131.344L392.905 133.618L379.775 116.425ZM363.323 93.3454L377.063 91.3227L383.408 135.016L369.668 137.039L363.323 93.3454ZM373.783 103.6L372.06 92.059L381.178 90.7168C384.851 90.1761 388.131 90.3307 391.02 91.1805C393.896 91.9898 396.262 93.4053 398.119 95.4271C400.004 97.4021 401.249 99.9178 401.851 102.974C402.454 106.031 402.228 108.784 401.172 111.235C400.116 113.685 398.324 115.713 395.797 117.318C393.269 118.922 390.106 120.004 386.307 120.564L376.366 122.027L374.979 111.712L382.83 110.556C383.886 110.401 384.789 110.119 385.54 109.711C386.321 109.256 386.885 108.684 387.235 107.995C387.627 107.3 387.768 106.514 387.658 105.638C387.561 104.802 387.272 104.122 386.79 103.598C386.309 103.073 385.677 102.699 384.896 102.474C384.114 102.249 383.238 102.208 382.267 102.351L373.783 103.6ZM421.95 129.342L420.427 118.409L442.335 115.184L443.858 126.117L421.95 129.342ZM417.191 96.5721L415.668 85.6394L437.576 82.4142L439.099 93.3469L417.191 96.5721ZM419.448 112.178L417.961 101.559L438.666 98.5109L440.153 109.13L419.448 112.178ZM406.297 87.0189L419.404 85.0894L425.749 128.783L412.642 130.712L406.297 87.0189ZM455.732 107.411C456.776 108.574 457.887 109.601 459.063 110.49C460.239 111.38 461.469 112.027 462.753 112.434C464.036 112.84 465.353 112.943 466.704 112.744C467.379 112.645 468.007 112.468 468.587 112.212C469.196 111.91 469.673 111.542 470.018 111.109C470.392 110.629 470.542 110.075 470.47 109.449C470.428 108.647 470.054 108.044 469.346 107.638C468.637 107.232 467.641 106.89 466.355 106.612C465.098 106.287 463.617 105.952 461.911 105.608C460.472 105.268 458.987 104.785 457.455 104.16C455.952 103.489 454.508 102.66 453.123 101.674C451.767 100.641 450.597 99.4322 449.612 98.0471C448.614 96.6214 447.936 94.9573 447.579 93.0548C447.085 90.1949 447.475 87.6723 448.751 85.4869C450.026 83.3015 451.855 81.5234 454.238 80.1526C456.663 78.7755 459.36 77.8897 462.328 77.4953C465.156 77.079 467.75 77.1646 470.111 77.7521C472.458 78.2991 474.567 79.1999 476.438 80.4546C478.338 81.6625 479.954 83.0822 481.285 84.7139L472.273 91.6508C471.488 90.8739 470.686 90.2482 469.867 89.7738C469.077 89.2525 468.276 88.9028 467.466 88.7246C466.642 88.5059 465.787 88.4618 464.9 88.5923C464.351 88.6731 463.808 88.8381 463.27 89.0872C462.719 89.2959 462.286 89.5935 461.97 89.98C461.641 90.326 461.492 90.7516 461.525 91.2568C461.569 91.9304 461.93 92.4935 462.609 92.946C463.275 93.358 464.118 93.7015 465.137 93.9765C466.143 94.2109 467.206 94.4157 468.325 94.591C469.473 94.7195 470.523 94.8838 471.473 95.0839C473.92 95.5311 476.081 96.3181 477.954 97.4449C479.814 98.5312 481.325 99.9026 482.487 101.559C483.678 103.169 484.471 105.05 484.866 107.202C485.411 110.352 485.016 113.13 483.68 115.537C482.373 117.897 480.457 119.815 477.932 121.292C475.463 122.803 472.687 123.786 469.606 124.239C466.68 124.627 463.833 124.515 461.066 123.902C458.355 123.324 455.848 122.29 453.547 120.802C451.245 119.313 449.321 117.492 447.776 115.34L455.732 107.411Z"/>
</mask>
<path d="M132.176 101.075L130.458 88.7367L159.188 84.5072L160.906 96.8456L132.176 101.075ZM143.03 76.2072L138.892 92.1969L140.795 95.9811L136.633 107.591L116.767 110.516L138.699 47.2789L177.71 101.544L158.715 104.341L151.762 94.7649L151.951 90.2744L143.03 76.2072ZM186.059 83.3565C187.104 84.5203 188.215 85.5469 189.391 86.4363C190.567 87.3257 191.797 87.9734 193.08 88.3795C194.364 88.7856 195.681 88.8892 197.031 88.6904C197.707 88.591 198.335 88.4135 198.915 88.1581C199.524 87.856 200.001 87.4883 200.345 87.055C200.719 86.5749 200.87 86.0215 200.797 85.3946C200.756 84.5931 200.381 83.9895 199.673 83.5837C198.965 83.1779 197.968 82.8359 196.682 82.5577C195.425 82.2327 193.944 81.8982 192.239 81.5542C190.8 81.2136 189.314 80.7309 187.782 80.1064C186.279 79.4351 184.835 78.6064 183.45 77.6202C182.094 76.5872 180.924 75.3782 179.94 73.9931C178.942 72.5674 178.264 70.9033 177.906 69.0008C177.412 66.1409 177.803 63.6182 179.078 61.4329C180.354 59.2475 182.183 57.4694 184.566 56.0985C186.991 54.7215 189.687 53.8357 192.655 53.4413C195.484 53.0249 198.078 53.1105 200.438 53.6981C202.786 54.2451 204.895 55.1459 206.766 56.4006C208.666 57.6084 210.281 59.0282 211.612 60.6599L202.601 67.5968C201.816 66.8199 201.013 66.1942 200.194 65.7197C199.404 65.1985 198.604 64.8488 197.793 64.6706C196.969 64.4519 196.114 64.4078 195.228 64.5383C194.679 64.619 194.136 64.784 193.598 65.0332C193.047 65.2419 192.613 65.5394 192.297 65.926C191.968 66.2719 191.82 66.6975 191.853 67.2027C191.896 67.8764 192.258 68.4394 192.937 68.892C193.603 69.304 194.445 69.6475 195.465 69.9225C196.47 70.1569 197.533 70.3617 198.652 70.537C199.801 70.6654 200.85 70.8297 201.8 71.0298C204.248 71.4771 206.408 72.2641 208.282 73.3909C210.142 74.4772 211.653 75.8485 212.815 77.5051C214.006 79.1149 214.799 80.9958 215.194 83.1477C215.739 86.2977 215.343 89.0761 214.008 91.4828C212.701 93.8428 210.785 95.7612 208.26 97.238C205.79 98.7491 203.015 99.7315 199.933 100.185C197.007 100.573 194.161 100.461 191.394 99.8484C188.682 99.27 186.176 98.2365 183.874 96.7477C181.572 95.2589 179.649 93.4382 178.103 91.2857L186.059 83.3565ZM214.372 63.9513L212.641 51.7742L250.948 46.1349L252.679 58.312L240.459 60.111L245.009 91.6367L231.269 93.6594L226.719 62.1337L214.372 63.9513ZM271.488 68.6126L285.101 66.6085L300.068 83.5313L284.618 85.8057L271.488 68.6126ZM255.036 45.5331L268.776 43.5104L275.121 87.2038L261.381 89.2266L255.036 45.5331ZM265.496 55.7876L263.774 44.2467L272.891 42.9045C276.564 42.3638 279.844 42.5184 282.733 43.3682C285.609 44.1775 287.975 45.593 289.832 47.6148C291.718 49.5898 292.962 52.1055 293.565 55.162C294.167 58.2184 293.941 60.9719 292.885 63.4225C291.829 65.873 290.037 67.9006 287.51 69.5053C284.982 71.11 281.819 72.1919 278.02 72.7512L268.079 74.2146L266.692 63.8995L274.544 62.7436C275.599 62.5883 276.502 62.3066 277.253 61.8984C278.034 61.4436 278.599 60.8716 278.948 60.1826C279.34 59.4874 279.481 58.7016 279.371 57.8253C279.274 56.9895 278.985 56.3095 278.504 55.7853C278.022 55.2611 277.391 54.8866 276.609 54.6616C275.827 54.4367 274.951 54.3957 273.98 54.5386L265.496 55.7876ZM313.213 59.2823C313.44 60.6515 313.823 61.9552 314.361 63.1935C314.928 64.3851 315.667 65.424 316.576 66.3101C317.486 67.1963 318.568 67.8658 319.823 68.3186C321.064 68.7309 322.444 68.8252 323.964 68.6015C325.539 68.4121 326.895 67.9576 328.031 67.2378C329.195 66.4713 330.132 65.5472 330.839 64.4654C331.576 63.3369 332.076 62.0945 332.34 60.7381C332.59 59.3411 332.61 57.9144 332.398 56.458C332.171 55.0889 331.767 53.7882 331.187 52.5561C330.648 51.3178 329.924 50.2555 329.015 49.3694C328.147 48.477 327.093 47.8247 325.852 47.4124C324.639 46.9533 323.231 46.8419 321.627 47.078C320.065 47.3079 318.695 47.7859 317.517 48.5118C316.381 49.2316 315.445 50.1557 314.709 51.2842C314.014 52.4065 313.535 53.6458 313.271 55.0022C313.008 56.3586 312.988 57.7853 313.213 59.2823ZM298.713 61.4169C298.144 58.058 298.238 54.899 298.994 51.94C299.738 48.9404 301.029 46.2638 302.869 43.9104C304.696 41.5164 306.97 39.5452 309.693 37.9967C312.445 36.4016 315.552 35.3492 319.013 34.8396C322.432 34.3363 325.7 34.4503 328.815 35.1817C331.931 35.9131 334.735 37.1792 337.227 38.9799C339.748 40.7339 341.84 42.9335 343.503 45.5789C345.195 48.1775 346.326 51.0924 346.898 54.3234C347.467 57.6823 347.408 60.8788 346.72 63.9127C346.032 66.9466 344.788 69.7011 342.988 72.1762C341.175 74.6108 338.878 76.649 336.097 78.291C333.359 79.9267 330.216 81.0056 326.671 81.5276C323.167 82.0433 319.844 81.895 316.702 81.0825C313.56 80.27 310.736 78.9431 308.23 77.1018C305.754 75.2138 303.684 72.9471 302.021 70.3017C300.387 67.6096 299.285 64.648 298.713 61.4169ZM51.5687 178.13L50.1944 168.259L73.1787 164.875L74.553 174.746L51.5687 178.13ZM60.2521 158.235L56.9415 171.027L58.464 174.055L55.1343 183.343L39.2416 185.682L56.7878 135.093L87.9961 178.505L72.7999 180.742L67.2381 173.082L67.3889 169.489L60.2521 158.235ZM85.5662 134.235L99.876 132.128L106.221 175.822L91.9114 177.929L85.5662 134.235ZM109.324 175.365L101.219 176.558L99.5873 164.685L106.236 163.707C108.177 163.421 109.914 162.846 111.445 161.983C113.019 161.114 114.186 159.88 114.945 158.281C115.747 156.675 115.939 154.628 115.522 152.139C115.191 150.318 114.679 148.82 113.985 147.647C113.278 146.434 112.418 145.498 111.406 144.839C110.394 144.181 109.258 143.753 107.999 143.556C106.74 143.359 105.414 143.363 104.021 143.568L96.5491 144.668L94.9372 132.856L102.155 131.793C105.701 131.271 109.033 131.312 112.151 131.915C115.269 132.519 118.041 133.62 120.467 135.218C122.935 136.809 124.981 138.867 126.604 141.391C128.213 143.874 129.289 146.755 129.832 150.032C130.401 153.391 130.336 156.503 129.638 159.369C128.926 162.194 127.672 164.716 125.877 166.936C124.068 169.114 121.768 170.941 118.976 172.414C116.214 173.841 112.996 174.825 109.324 175.365ZM153.585 145.771L158.376 123.516L174.839 121.093L158.032 171.51L126.084 128.27L141.977 125.931L153.585 145.771ZM194.217 162.868L192.694 151.935L214.602 148.71L216.125 159.643L194.217 162.868ZM189.458 130.098L187.935 119.165L209.843 115.94L211.366 126.872L189.458 130.098ZM191.715 145.704L190.228 135.085L210.933 132.036L212.42 142.656L191.715 145.704ZM178.564 120.545L191.671 118.615L198.016 162.308L184.909 164.238L178.564 120.545ZM251.595 98.6364L267.978 96.2245L276.336 153.409L237.362 131.174L240.927 155.991L224.543 158.403L216.186 101.219L255.08 123.465L251.595 98.6364ZM276.84 118.509L275.109 106.332L313.416 100.692L315.147 112.869L302.927 114.668L307.478 146.194L293.738 148.217L289.187 116.691L276.84 118.509ZM317.187 100.137L330.927 98.1144L334.889 126.22C335.081 127.212 335.407 128.142 335.868 129.009C336.358 129.829 337.006 130.456 337.812 130.89C338.618 131.324 339.618 131.475 340.813 131.341C342.051 131.201 343.048 130.8 343.804 130.136C344.56 129.472 345.066 128.654 345.323 127.681C345.621 126.702 345.704 125.67 345.569 124.584L341.565 96.5485L355.241 94.5351L359.601 123.857C360.205 127.594 359.871 130.831 358.6 133.568C357.328 136.305 355.351 138.509 352.668 140.179C350.027 141.843 346.913 142.939 343.325 143.467C339.863 143.977 336.604 143.819 333.546 142.994C330.488 142.169 327.886 140.64 325.738 138.406C323.633 136.165 322.236 133.183 321.547 129.46L317.187 100.137ZM379.775 116.425L393.388 114.421L408.355 131.344L392.905 133.618L379.775 116.425ZM363.323 93.3454L377.063 91.3227L383.408 135.016L369.668 137.039L363.323 93.3454ZM373.783 103.6L372.06 92.059L381.178 90.7168C384.851 90.1761 388.131 90.3307 391.02 91.1805C393.896 91.9898 396.262 93.4053 398.119 95.4271C400.004 97.4021 401.249 99.9178 401.851 102.974C402.454 106.031 402.228 108.784 401.172 111.235C400.116 113.685 398.324 115.713 395.797 117.318C393.269 118.922 390.106 120.004 386.307 120.564L376.366 122.027L374.979 111.712L382.83 110.556C383.886 110.401 384.789 110.119 385.54 109.711C386.321 109.256 386.885 108.684 387.235 107.995C387.627 107.3 387.768 106.514 387.658 105.638C387.561 104.802 387.272 104.122 386.79 103.598C386.309 103.073 385.677 102.699 384.896 102.474C384.114 102.249 383.238 102.208 382.267 102.351L373.783 103.6ZM421.95 129.342L420.427 118.409L442.335 115.184L443.858 126.117L421.95 129.342ZM417.191 96.5721L415.668 85.6394L437.576 82.4142L439.099 93.3469L417.191 96.5721ZM419.448 112.178L417.961 101.559L438.666 98.5109L440.153 109.13L419.448 112.178ZM406.297 87.0189L419.404 85.0894L425.749 128.783L412.642 130.712L406.297 87.0189ZM455.732 107.411C456.776 108.574 457.887 109.601 459.063 110.49C460.239 111.38 461.469 112.027 462.753 112.434C464.036 112.84 465.353 112.943 466.704 112.744C467.379 112.645 468.007 112.468 468.587 112.212C469.196 111.91 469.673 111.542 470.018 111.109C470.392 110.629 470.542 110.075 470.47 109.449C470.428 108.647 470.054 108.044 469.346 107.638C468.637 107.232 467.641 106.89 466.355 106.612C465.098 106.287 463.617 105.952 461.911 105.608C460.472 105.268 458.987 104.785 457.455 104.16C455.952 103.489 454.508 102.66 453.123 101.674C451.767 100.641 450.597 99.4322 449.612 98.0471C448.614 96.6214 447.936 94.9573 447.579 93.0548C447.085 90.1949 447.475 87.6723 448.751 85.4869C450.026 83.3015 451.855 81.5234 454.238 80.1526C456.663 78.7755 459.36 77.8897 462.328 77.4953C465.156 77.079 467.75 77.1646 470.111 77.7521C472.458 78.2991 474.567 79.1999 476.438 80.4546C478.338 81.6625 479.954 83.0822 481.285 84.7139L472.273 91.6508C471.488 90.8739 470.686 90.2482 469.867 89.7738C469.077 89.2525 468.276 88.9028 467.466 88.7246C466.642 88.5059 465.787 88.4618 464.9 88.5923C464.351 88.6731 463.808 88.8381 463.27 89.0872C462.719 89.2959 462.286 89.5935 461.97 89.98C461.641 90.326 461.492 90.7516 461.525 91.2568C461.569 91.9304 461.93 92.4935 462.609 92.946C463.275 93.358 464.118 93.7015 465.137 93.9765C466.143 94.2109 467.206 94.4157 468.325 94.591C469.473 94.7195 470.523 94.8838 471.473 95.0839C473.92 95.5311 476.081 96.3181 477.954 97.4449C479.814 98.5312 481.325 99.9026 482.487 101.559C483.678 103.169 484.471 105.05 484.866 107.202C485.411 110.352 485.016 113.13 483.68 115.537C482.373 117.897 480.457 119.815 477.932 121.292C475.463 122.803 472.687 123.786 469.606 124.239C466.68 124.627 463.833 124.515 461.066 123.902C458.355 123.324 455.848 122.29 453.547 120.802C451.245 119.313 449.321 117.492 447.776 115.34L455.732 107.411Z" fill="black"/>
<path d="M132.176 101.075L127.033 100.963L127.831 106.695L133.732 105.827L132.176 101.075ZM130.458 88.7367L128.901 83.985L124.754 84.5955L125.315 88.6246L130.458 88.7367ZM159.188 84.5072L164.33 84.6193L163.532 78.8869L157.632 79.7555L159.188 84.5072ZM160.906 96.8456L162.462 101.597L166.609 100.987L166.048 96.9577L160.906 96.8456ZM143.03 76.2072L147.401 74.2678L140.737 63.7598L137.975 74.4348L143.03 76.2072ZM138.892 92.1969L133.837 90.4245L133.424 92.0185L134.246 93.6527L138.892 92.1969ZM140.795 95.9811L145.744 98.0968L146.365 96.3642L145.44 94.5253L140.795 95.9811ZM136.633 107.591L138.189 112.343L140.773 111.962L141.582 109.707L136.633 107.591ZM116.767 110.516L111.804 108.438L108.957 116.646L118.323 115.268L116.767 110.516ZM138.699 47.2789L142.882 45.0599L136.746 36.5245L133.737 45.2014L138.699 47.2789ZM177.71 101.544L179.266 106.296L186.172 105.279L181.892 99.3252L177.71 101.544ZM158.715 104.341L154.548 106.582L156.747 109.611L160.271 109.092L158.715 104.341ZM151.762 94.7649L146.58 93.8526L146.511 95.5116L147.596 97.0063L151.762 94.7649ZM151.951 90.2744L157.133 91.1868L157.195 89.7107L156.322 88.3351L151.951 90.2744ZM137.318 101.187L135.6 88.8488L125.315 88.6246L127.033 100.963L137.318 101.187ZM132.014 93.4884L160.744 89.2588L157.632 79.7555L128.901 83.985L132.014 93.4884ZM154.046 84.3951L155.764 96.7335L166.048 96.9577L164.33 84.6193L154.046 84.3951ZM159.35 92.094L130.619 96.3235L133.732 105.827L162.462 101.597L159.35 92.094ZM137.975 74.4348L133.837 90.4245L143.947 93.9693L148.085 77.9795L137.975 74.4348ZM134.246 93.6527L136.149 97.4369L145.44 94.5253L143.537 90.7411L134.246 93.6527ZM135.845 93.8654L131.683 105.476L141.582 109.707L145.744 98.0968L135.845 93.8654ZM135.076 102.84L115.21 105.764L118.323 115.268L138.189 112.343L135.076 102.84ZM121.73 112.593L143.662 49.3563L133.737 45.2014L111.804 108.438L121.73 112.593ZM134.517 49.4978L173.527 103.763L181.892 99.3252L142.882 45.0599L134.517 49.4978ZM176.154 96.7925L157.158 99.5888L160.271 109.092L179.266 106.296L176.154 96.7925ZM162.881 102.099L155.929 92.5236L147.596 97.0063L154.548 106.582L162.881 102.099ZM156.944 95.6773L157.133 91.1868L146.769 89.3621L146.58 93.8526L156.944 95.6773ZM156.322 88.3351L147.401 74.2678L138.658 78.1465L147.579 92.2137L156.322 88.3351ZM186.059 83.3565L189.834 80.6314L185.754 76.0863L182.02 79.8068L186.059 83.3565ZM189.391 86.4363L192.281 82.8993L192.281 82.8993L189.391 86.4363ZM198.915 88.1581L201.693 92.5617L201.785 92.521L201.875 92.4763L198.915 88.1581ZM200.345 87.055L204.682 90.2714L204.695 90.2553L204.708 90.2391L200.345 87.055ZM200.797 85.3946L195.617 84.8896L195.625 85.0329L195.641 85.1768L200.797 85.3946ZM199.673 83.5837L201.885 79.5982L201.885 79.5982L199.673 83.5837ZM196.682 82.5577L196.022 87.1772L196.139 87.2075L196.257 87.2329L196.682 82.5577ZM192.239 81.5542L191.7 86.2037L191.798 86.2269L191.896 86.2468L192.239 81.5542ZM187.782 80.1064L186.141 84.3821L186.237 84.4247L186.333 84.464L187.782 80.1064ZM183.45 77.6202L180.542 81.1434L180.624 81.2057L180.707 81.2655L183.45 77.6202ZM179.94 73.9931L175.714 76.1517L175.726 76.1691L175.739 76.1865L179.94 73.9931ZM177.906 69.0008L172.788 69.04L172.794 69.0742L172.8 69.1083L177.906 69.0008ZM184.566 56.0985L181.392 51.8933L181.382 51.8992L181.372 51.9051L184.566 56.0985ZM192.655 53.4413L194.141 58.2029L194.176 58.1981L194.212 58.1929L192.655 53.4413ZM200.438 53.6981L199.832 58.3312L199.876 58.3421L199.92 58.3524L200.438 53.6981ZM206.766 56.4006L204.171 60.1482L204.236 60.1918L204.302 60.2338L206.766 56.4006ZM211.612 60.6599L215.268 64.545L218.658 61.935L215.574 58.1534L211.612 60.6599ZM202.601 67.5968L199.078 70.5866L202.729 74.1979L206.257 71.4819L202.601 67.5968ZM200.194 65.7197L197.64 69.4943L197.795 69.5969L197.957 69.6903L200.194 65.7197ZM197.793 64.6706L197.095 69.2801L197.221 69.3137L197.349 69.3417L197.793 64.6706ZM193.598 65.0332L196.156 69.5268L196.308 69.4694L196.453 69.402L193.598 65.0332ZM192.297 65.926L196.409 69.4011L196.51 69.2947L196.603 69.1815L192.297 65.926ZM191.853 67.2027L186.676 66.7568L186.676 66.7568L191.853 67.2027ZM192.937 68.892L190.357 72.6501L190.447 72.71L190.539 72.7669L192.937 68.892ZM195.465 69.9225L194.743 74.5256L194.844 74.553L194.946 74.5768L195.465 69.9225ZM198.652 70.537L198.564 75.2751L198.691 75.2949L198.817 75.309L198.652 70.537ZM201.8 71.0298L201.408 75.7121L201.486 75.7285L201.564 75.7428L201.8 71.0298ZM208.282 73.3909L205.953 77.3078L205.989 77.3292L206.025 77.3502L208.282 73.3909ZM212.815 77.5051L208.593 79.6686L208.635 79.7293L208.68 79.789L212.815 77.5051ZM215.194 83.1477L220.312 83.1077L220.308 83.0838L220.304 83.0599L215.194 83.1477ZM214.008 91.4828L209.317 88.7949L209.315 88.7982L214.008 91.4828ZM208.26 97.238L205.04 93.0598L205.003 93.081L204.967 93.1029L208.26 97.238ZM199.933 100.185L201.418 104.947L201.454 104.942L201.489 104.937L199.933 100.185ZM191.394 99.8484L191.847 95.1794L191.825 95.1743L191.802 95.1695L191.394 99.8484ZM183.874 96.7477L186.38 92.9416L186.38 92.9416L183.874 96.7477ZM178.103 91.2857L174.064 87.736L171.566 90.2257L173.919 93.502L178.103 91.2857ZM182.284 86.0817C183.575 87.5193 184.979 88.8228 186.5 89.9733L192.281 82.8993C191.45 82.2709 190.633 81.5212 189.834 80.6314L182.284 86.0817ZM186.5 89.9733C188.206 91.2633 190.081 92.2679 192.105 92.9085L194.055 83.8506C193.513 83.6789 192.928 83.388 192.281 82.8993L186.5 89.9733ZM192.105 92.9085C194.301 93.6033 196.488 93.7511 198.588 93.4421L195.475 83.9387C194.873 84.0274 194.426 83.968 194.055 83.8506L192.105 92.9085ZM198.588 93.4421C199.68 93.2812 200.72 92.9899 201.693 92.5617L196.136 83.7546C195.949 83.8371 195.734 83.9007 195.475 83.9387L198.588 93.4421ZM201.875 92.4763C202.933 91.9514 203.914 91.2362 204.682 90.2714L196.008 83.8385C196.046 83.7914 196.072 83.7712 196.07 83.7726C196.068 83.7748 196.034 83.8001 195.954 83.84L201.875 92.4763ZM204.708 90.2391C205.707 88.9553 206.155 87.3611 205.953 85.6124L195.641 85.1768C195.617 84.9672 195.626 84.7176 195.696 84.4596C195.766 84.2028 195.878 84.0057 195.983 83.8708L204.708 90.2391ZM205.977 85.8996C205.924 84.8661 205.638 83.6589 204.886 82.4483C204.117 81.2088 203.042 80.2615 201.885 79.5982L197.461 87.5692C197.012 87.3117 196.479 86.8691 196.084 86.2332C195.708 85.6263 195.629 85.1217 195.617 84.8896L205.977 85.8996ZM201.885 79.5982C200.368 78.7287 198.664 78.2194 197.107 77.8824L196.257 87.2329C196.725 87.3342 197.057 87.4295 197.278 87.5051C197.506 87.5833 197.544 87.6167 197.461 87.5692L201.885 79.5982ZM197.342 77.9382C195.951 77.5784 194.359 77.2203 192.581 76.8617L191.896 86.2468C193.529 86.5762 194.9 86.887 196.022 87.1772L197.342 77.9382ZM192.778 76.9048C191.676 76.644 190.496 76.2643 189.231 75.7488L186.333 84.464C188.133 85.1976 189.923 85.7831 191.7 86.2037L192.778 76.9048ZM189.423 75.8307C188.318 75.3372 187.243 74.7223 186.193 73.9749L180.707 81.2655C182.428 82.4905 184.24 83.5331 186.141 84.3821L189.423 75.8307ZM186.359 74.097C185.516 73.4549 184.78 72.699 184.14 71.7996L175.739 76.1865C177.069 78.0574 178.673 79.7196 180.542 81.1434L186.359 74.097ZM184.165 71.8344C183.691 71.1572 183.262 70.2184 183.013 68.8933L172.8 69.1083C173.266 71.5882 174.193 73.9775 175.714 76.1517L184.165 71.8344ZM183.025 68.9616C182.691 67.0271 182.965 65.4989 183.727 64.193L174.429 58.6728C172.64 61.7376 172.134 65.2547 172.788 69.04L183.025 68.9616ZM183.727 64.193C184.641 62.6281 185.958 61.3283 187.76 60.292L181.372 51.9051C178.407 53.6104 176.067 55.8669 174.429 58.6728L183.727 64.193ZM187.739 60.3038C189.654 59.2163 191.777 58.5169 194.141 58.2029L191.17 48.6797C187.597 49.1545 184.327 50.2267 181.392 51.8933L187.739 60.3038ZM194.212 58.1929C196.509 57.8547 198.355 57.9635 199.832 58.3312L201.045 49.065C197.801 48.2575 194.458 48.1951 191.099 48.6896L194.212 58.1929ZM199.92 58.3524C201.603 58.7447 202.993 59.3585 204.171 60.1482L209.361 52.6529C206.796 50.9334 203.968 49.7455 200.957 49.0438L199.92 58.3524ZM204.302 60.2338C205.658 61.0958 206.757 62.0721 207.65 63.1665L215.574 58.1534C213.805 55.9844 211.674 54.1211 209.23 52.5673L204.302 60.2338ZM207.956 56.7749L198.945 63.7118L206.257 71.4819L215.268 64.545L207.956 56.7749ZM206.124 64.607C205.023 63.5178 203.796 62.5393 202.432 61.7491L197.957 69.6903C198.231 69.8491 198.608 70.122 199.078 70.5866L206.124 64.607ZM202.749 61.9452C201.386 61.0463 199.872 60.3589 198.238 59.9996L197.349 69.3417C197.35 69.342 197.368 69.3457 197.407 69.363C197.449 69.3811 197.526 69.4191 197.64 69.4943L202.749 61.9452ZM198.491 60.0612C196.826 59.6191 195.2 59.5616 193.672 59.7866L196.784 69.2899C196.912 69.271 196.995 69.271 197.038 69.2732C197.078 69.2753 197.095 69.28 197.095 69.2801L198.491 60.0612ZM193.672 59.7866C192.612 59.9426 191.635 60.2509 190.743 60.6644L196.453 69.402C196.636 69.3171 196.746 69.2955 196.784 69.2899L193.672 59.7866ZM191.04 60.5396C189.872 60.9817 188.807 61.6729 187.992 62.6705L196.603 69.1815C196.517 69.2862 196.423 69.3685 196.335 69.429C196.248 69.4885 196.182 69.517 196.156 69.5268L191.04 60.5396ZM188.186 62.4509C187.084 63.6088 186.57 65.1152 186.676 66.7568L197.029 67.6487C197.047 67.9215 197.018 68.2483 196.901 68.5868C196.782 68.9263 196.601 69.1988 196.409 69.4011L188.186 62.4509ZM186.676 66.7568C186.833 69.1787 188.293 71.2747 190.357 72.6501L195.516 65.1339C195.768 65.3017 196.17 65.633 196.511 66.1647C196.862 66.7106 197.003 67.2423 197.029 67.6487L186.676 66.7568ZM190.539 72.7669C191.883 73.5985 193.34 74.1472 194.743 74.5256L196.186 65.3193C195.551 65.1478 195.322 65.0095 195.334 65.0171L190.539 72.7669ZM194.946 74.5768C196.109 74.8479 197.316 75.0797 198.564 75.2751L198.74 65.7989C197.75 65.6438 196.831 65.4659 195.983 65.2681L194.946 74.5768ZM198.817 75.309C199.816 75.4208 200.676 75.558 201.408 75.7121L202.193 66.3476C201.024 66.1015 199.785 65.9101 198.488 65.7649L198.817 75.309ZM201.564 75.7428C203.405 76.0792 204.831 76.6332 205.953 77.3078L210.61 69.474C207.985 67.895 205.091 66.875 202.037 66.3168L201.564 75.7428ZM206.025 77.3502C207.127 77.9942 207.953 78.7566 208.593 79.6686L217.037 75.3416C215.352 72.9405 213.156 70.9601 210.539 69.4317L206.025 77.3502ZM208.68 79.789C209.29 80.6136 209.805 81.7159 210.084 83.2355L220.304 83.0599C219.793 80.2756 218.722 77.6162 216.95 75.2211L208.68 79.789ZM210.075 83.1878C210.467 85.4531 210.168 87.2626 209.317 88.7949L218.698 94.1707C220.519 90.8895 221.01 87.1423 220.312 83.1077L210.075 83.1878ZM209.315 88.7982C208.367 90.512 206.969 91.9311 205.04 93.0598L211.48 101.416C214.6 99.5913 217.035 97.1736 218.7 94.1674L209.315 88.7982ZM204.967 93.1029C203.017 94.2967 200.832 95.0721 198.377 95.4335L201.489 104.937C205.198 104.391 208.564 103.202 211.552 101.373L204.967 93.1029ZM198.449 95.4234C196.088 95.7367 193.9 95.6339 191.847 95.1794L190.94 104.517C194.422 105.288 197.926 105.41 201.418 104.947L198.449 95.4234ZM191.802 95.1695C189.801 94.7426 188.013 93.9976 186.38 92.9416L181.368 100.554C184.339 102.475 187.564 103.797 190.986 104.527L191.802 95.1695ZM186.38 92.9416C184.736 91.8778 183.386 90.5987 182.287 89.0694L173.919 93.502C175.912 96.2778 178.409 98.6401 181.368 100.554L186.38 92.9416ZM182.142 94.8353L190.098 86.9062L182.02 79.8068L174.064 87.736L182.142 94.8353ZM214.372 63.9513L209.232 63.8525L210.044 69.5692L215.928 68.703L214.372 63.9513ZM212.641 51.7742L211.084 47.0226L206.926 47.6348L207.5 51.6755L212.641 51.7742ZM250.948 46.1349L256.088 46.2337L255.275 40.517L249.392 41.3832L250.948 46.1349ZM252.679 58.312L254.235 63.0636L258.394 62.4514L257.82 58.4107L252.679 58.312ZM240.459 60.111L238.903 55.3593L234.735 55.9728L235.32 60.0219L240.459 60.111ZM245.009 91.6367L246.566 96.3883L250.733 95.7749L250.148 91.7257L245.009 91.6367ZM231.269 93.6594L226.13 93.5703L226.954 99.2755L232.826 98.4111L231.269 93.6594ZM226.719 62.1337L231.858 62.2227L231.035 56.5176L225.163 57.382L226.719 62.1337ZM219.513 64.0501L217.781 51.873L207.5 51.6755L209.232 63.8525L219.513 64.0501ZM214.197 56.5259L252.504 50.8865L249.392 41.3832L211.084 47.0226L214.197 56.5259ZM245.807 46.0361L247.539 58.2132L257.82 58.4107L256.088 46.2337L245.807 46.0361ZM251.123 53.5603L238.903 55.3593L242.015 64.8626L254.235 63.0636L251.123 53.5603ZM235.32 60.0219L239.87 91.5476L250.148 91.7257L245.598 60.2L235.32 60.0219ZM243.453 86.885L229.713 88.9077L232.826 98.4111L246.566 96.3883L243.453 86.885ZM236.409 93.7485L231.858 62.2227L221.58 62.0446L226.13 93.5703L236.409 93.7485ZM225.163 57.382L212.816 59.1997L215.928 68.703L228.275 66.8853L225.163 57.382ZM271.488 68.6126L269.932 63.8609L262.782 64.9134L267.407 70.969L271.488 68.6126ZM285.101 66.6085L288.906 63.9174L286.676 61.3958L283.545 61.8568L285.101 66.6085ZM300.068 83.5313L301.624 88.2829L309.438 87.1326L303.873 80.8402L300.068 83.5313ZM284.618 85.8057L280.538 88.1621L282.752 91.0612L286.175 90.5573L284.618 85.8057ZM255.036 45.5331L253.48 40.7814L249.309 41.3954L249.897 45.448L255.036 45.5331ZM268.776 43.5104L273.914 43.5955L273.086 37.895L267.219 38.7587L268.776 43.5104ZM275.121 87.2038L276.677 91.9555L280.848 91.3415L280.259 87.2889L275.121 87.2038ZM261.381 89.2266L256.242 89.1414L257.07 94.8419L262.937 93.9782L261.381 89.2266ZM265.496 55.7876L260.36 55.7206L261.207 61.3997L267.052 60.5393L265.496 55.7876ZM263.774 44.2467L262.217 39.4951L258.031 40.1114L258.638 44.1797L263.774 44.2467ZM282.733 43.3682L281.878 47.9338L281.913 47.944L281.948 47.9538L282.733 43.3682ZM289.832 47.6148L286.103 50.3911L286.144 50.435L286.185 50.4782L289.832 47.6148ZM293.565 55.162L298.663 55.0127L298.663 55.0127L293.565 55.162ZM287.51 69.5053L290.861 73.6036L290.861 73.6036L287.51 69.5053ZM268.079 74.2146L262.934 74.0811L263.708 79.8389L269.635 78.9663L268.079 74.2146ZM266.692 63.8995L265.136 59.1478L261.008 59.7556L261.547 63.766L266.692 63.8995ZM277.253 61.8984L280.356 66.1428L280.413 66.112L280.469 66.0796L277.253 61.8984ZM278.948 60.1826L274.27 57.4728L274.229 57.546L274.191 57.6209L278.948 60.1826ZM279.371 57.8253L274.215 57.6075L274.217 57.6295L274.22 57.6515L279.371 57.8253ZM273.044 73.3642L286.657 71.3601L283.545 61.8568L269.932 63.8609L273.044 73.3642ZM281.296 69.2996L296.263 86.2224L303.873 80.8402L288.906 63.9174L281.296 69.2996ZM298.512 78.7796L283.062 81.054L286.175 90.5573L301.624 88.2829L298.512 78.7796ZM288.699 83.4493L275.569 66.2562L267.407 70.969L280.538 88.1621L288.699 83.4493ZM256.592 50.2847L270.332 48.262L267.219 38.7587L253.48 40.7814L256.592 50.2847ZM263.637 43.4252L269.982 87.1187L280.259 87.2889L273.914 43.5955L263.637 43.4252ZM273.565 82.4522L259.825 84.4749L262.937 93.9782L276.677 91.9555L273.565 82.4522ZM266.519 89.3117L260.174 45.6182L249.897 45.448L256.242 89.1414L266.519 89.3117ZM270.632 55.8547L268.909 44.3138L258.638 44.1797L260.36 55.7206L270.632 55.8547ZM265.33 48.9984L274.447 47.6561L271.335 38.1528L262.217 39.4951L265.33 48.9984ZM274.447 47.6561C277.576 47.1955 280.008 47.3836 281.878 47.9338L283.588 38.8026C279.681 37.6532 275.551 37.5322 271.335 38.1528L274.447 47.6561ZM281.948 47.9538C283.808 48.4773 285.106 49.3051 286.103 50.3911L293.56 44.8384C290.844 41.8808 287.41 39.8776 283.519 38.7826L281.948 47.9538ZM286.185 50.4782C287.153 51.4925 288.009 52.994 288.466 55.3112L298.663 55.0127C297.914 51.2171 296.282 47.6871 293.479 44.7513L286.185 50.4782ZM288.466 55.3112C288.913 57.5781 288.724 59.4572 288.025 61.0801L297.745 65.7649C299.157 62.4866 299.421 58.8587 298.663 55.0127L288.466 55.3112ZM288.025 61.0801C287.308 62.7439 286.073 64.1917 284.159 65.407L290.861 73.6036C294.002 71.6096 296.35 69.0021 297.745 65.7649L288.025 61.0801ZM284.159 65.407C282.253 66.6169 279.735 67.518 276.464 67.9995L279.576 77.5029C283.903 76.8659 287.712 75.603 290.861 73.6036L284.159 65.407ZM276.464 67.9995L266.523 69.463L269.635 78.9663L279.576 77.5029L276.464 67.9995ZM273.225 74.3482L271.837 64.033L261.547 63.766L262.934 74.0811L273.225 74.3482ZM268.248 68.6511L276.1 67.4953L272.987 57.992L265.136 59.1478L268.248 68.6511ZM276.1 67.4953C277.614 67.2724 279.062 66.8458 280.356 66.1428L274.15 57.6541C273.942 57.7673 273.584 57.9042 272.987 57.992L276.1 67.4953ZM280.469 66.0796C281.831 65.2855 282.972 64.1893 283.705 62.7443L274.191 57.6209C274.202 57.5978 274.212 57.5905 274.202 57.6006C274.19 57.6126 274.144 57.6555 274.038 57.7173L280.469 66.0796ZM283.626 62.8924C284.459 61.4151 284.74 59.7425 284.521 57.999L274.22 57.6515C274.223 57.6754 274.218 57.6515 274.227 57.5982C274.237 57.5436 274.255 57.4986 274.27 57.4728L283.626 62.8924ZM284.527 58.0431C284.344 56.4648 283.729 54.6389 282.232 53.009L274.775 58.5617C274.241 57.9801 274.204 57.5142 274.215 57.6075L284.527 58.0431ZM282.232 53.009C280.862 51.5172 279.154 50.5822 277.429 50.0859L275.789 59.2373C275.73 59.2204 275.577 59.1688 275.374 59.0484C275.164 58.924 274.956 58.7583 274.775 58.5617L282.232 53.009ZM277.429 50.0859C275.659 49.5764 273.951 49.5622 272.424 49.7869L275.536 59.2903C275.952 59.2291 275.996 59.297 275.789 59.2373L277.429 50.0859ZM272.424 49.7869L263.94 51.036L267.052 60.5393L275.536 59.2903L272.424 49.7869ZM313.213 59.2823L308.078 59.2195L308.083 59.255L308.089 59.2905L313.213 59.2823ZM314.361 63.1935L309.587 64.3761L309.624 64.4601L309.664 64.5434L314.361 63.1935ZM319.823 68.3186L318.612 72.7678L318.688 72.795L318.764 72.8203L319.823 68.3186ZM323.964 68.6015L322.542 63.8319L322.475 63.84L322.408 63.8498L323.964 68.6015ZM328.031 67.2378L331.379 71.3381L331.409 71.3189L331.439 71.2992L328.031 67.2378ZM330.839 64.4654L335.385 67.3922L335.388 67.3889L330.839 64.4654ZM332.34 60.7381L337.449 62.2703L337.455 62.2411L337.46 62.2118L332.34 60.7381ZM332.398 56.458L337.537 56.5431L337.53 56.4965L337.522 56.4498L332.398 56.458ZM331.187 52.5561L326.413 53.7386L326.445 53.8128L326.48 53.8864L331.187 52.5561ZM329.015 49.3694L325.406 52.2729L325.465 52.3335L325.526 52.3926L329.015 49.3694ZM325.852 47.4124L324.55 51.8278L324.67 51.8735L324.793 51.9141L325.852 47.4124ZM317.517 48.5118L314.214 44.3837L314.191 44.3975L314.169 44.4115L317.517 48.5118ZM314.709 51.2842L310.16 48.3607L310.135 48.3997L310.11 48.4392L314.709 51.2842ZM313.271 55.0022L308.162 53.47L308.162 53.47L313.271 55.0022ZM298.713 61.4169L293.592 61.4409L293.595 61.4577L293.598 61.4744L298.713 61.4169ZM298.994 51.94L304.052 53.701L304.056 53.6867L304.06 53.6723L298.994 51.94ZM302.869 43.9104L307.227 47.1005L307.241 47.0826L307.254 47.0646L302.869 43.9104ZM309.693 37.9967L312.869 42.2007L312.884 42.192L312.899 42.1832L309.693 37.9967ZM337.227 38.9799L334.448 42.5996L334.495 42.633L334.541 42.6657L337.227 38.9799ZM343.503 45.5789L339.119 47.4988L339.144 47.5375L339.169 47.5759L343.503 45.5789ZM346.898 54.3234L352.019 54.2994L352.016 54.2826L352.013 54.2659L346.898 54.3234ZM346.72 63.9127L351.804 65.567L351.804 65.567L346.72 63.9127ZM342.988 72.1762L347.4 75.2948L347.414 75.2772L347.426 75.2595L342.988 72.1762ZM336.097 78.291L332.862 74.1217L332.853 74.1272L332.843 74.1326L336.097 78.291ZM316.702 81.0825L316.042 85.702L316.042 85.702L316.702 81.0825ZM308.23 77.1018L305.32 80.6237L305.365 80.6578L305.41 80.6911L308.23 77.1018ZM302.021 70.3017L297.59 72.1455L297.614 72.1837L297.637 72.2216L302.021 70.3017ZM308.089 59.2905C308.377 61.0275 308.871 62.7275 309.587 64.3761L319.135 62.011C318.775 61.1829 318.503 60.2754 318.337 59.2742L308.089 59.2905ZM309.664 64.5434C310.495 66.2903 311.627 67.9103 313.088 69.3334L320.065 63.2869C319.707 62.9377 319.362 62.4799 319.059 61.8437L309.664 64.5434ZM313.088 69.3334C314.675 70.88 316.552 72.0242 318.612 72.7678L321.033 63.8694C320.584 63.7073 320.297 63.5125 320.065 63.2869L313.088 69.3334ZM318.764 72.8203C321.069 73.5861 323.368 73.6701 325.52 73.3532L322.408 63.8498C321.521 63.9804 321.059 63.8758 320.882 63.8169L318.764 72.8203ZM325.386 73.3711C327.597 73.1053 329.626 72.4485 331.379 71.3381L324.682 63.1375C324.163 63.4666 323.482 63.7189 322.542 63.8319L325.386 73.3711ZM331.439 71.2992C333.04 70.2459 334.37 68.9446 335.385 67.3922L326.293 61.5386C325.893 62.1497 325.351 62.6967 324.622 63.1764L331.439 71.2992ZM335.388 67.3889C336.4 65.8377 337.089 64.1246 337.449 62.2703L327.23 59.2059C327.063 60.0643 326.752 60.8362 326.291 61.542L335.388 67.3889ZM337.46 62.2118C337.791 60.3692 337.817 58.4748 337.537 56.5431L327.26 56.3729C327.402 57.3541 327.39 58.3131 327.219 59.2644L337.46 62.2118ZM337.522 56.4498C337.226 54.6636 336.69 52.9159 335.894 51.2258L326.48 53.8864C326.845 54.6606 327.116 55.5141 327.274 56.4662L337.522 56.4498ZM335.96 51.3736C335.165 49.544 334.031 47.834 332.503 46.3461L325.526 52.3926C325.818 52.6771 326.132 53.0915 326.413 53.7386L335.96 51.3736ZM332.623 46.4659C331.015 44.8117 329.063 43.6254 326.911 42.9107L324.793 51.9141C325.123 52.024 325.28 52.1424 325.406 52.2729L332.623 46.4659ZM327.154 42.997C324.73 42.0793 322.294 41.9991 320.071 42.3263L323.183 51.8297C324.169 51.6846 324.549 51.8274 324.55 51.8278L327.154 42.997ZM320.071 42.3263C317.917 42.6434 315.944 43.3178 314.214 44.3837L320.821 52.64C321.447 52.2539 322.214 51.9724 323.183 51.8297L320.071 42.3263ZM314.169 44.4115C312.531 45.4494 311.193 46.7777 310.16 48.3607L319.257 54.2077C319.697 53.5337 320.232 53.0138 320.865 52.6122L314.169 44.4115ZM310.11 48.4392C309.162 49.9724 308.514 51.6567 308.162 53.47L318.381 56.5344C318.556 55.635 318.867 54.8406 319.307 54.1292L310.11 48.4392ZM308.162 53.47C307.802 55.3218 307.781 57.2459 308.078 59.2195L318.348 59.3452C318.195 58.3248 318.213 57.3955 318.381 56.5344L308.162 53.47ZM303.835 61.3929C303.363 58.61 303.449 56.0601 304.052 53.701L293.936 50.1789C293.026 53.7378 292.925 57.506 293.592 61.4409L303.835 61.3929ZM304.06 53.6723C304.673 51.1957 305.73 49.0154 307.227 47.1005L298.511 40.7202C296.329 43.5123 294.802 46.6851 293.929 50.2077L304.06 53.6723ZM307.254 47.0646C308.756 45.0961 310.62 43.4792 312.869 42.2007L306.518 33.7927C303.32 35.6111 300.635 37.9366 298.484 40.7562L307.254 47.0646ZM312.899 42.1832C315.14 40.884 317.684 40.0161 320.569 39.5913L317.457 30.088C313.419 30.6823 309.75 31.9191 306.487 33.8103L312.899 42.1832ZM320.569 39.5913C323.412 39.1728 325.968 39.2893 328.287 39.8338L329.343 30.5296C325.431 29.6113 321.452 29.4998 317.457 30.088L320.569 39.5913ZM328.287 39.8338C330.652 40.389 332.677 41.3196 334.448 42.5996L340.006 35.3602C336.793 33.0387 333.209 31.4373 329.343 30.5296L328.287 39.8338ZM334.541 42.6657C336.337 43.9145 337.861 45.4971 339.119 47.4988L347.887 43.659C345.819 40.37 343.16 37.5532 339.912 35.2941L334.541 42.6657ZM339.169 47.5759C340.415 49.4902 341.314 51.7318 341.782 54.381L352.013 54.2659C351.339 50.4529 349.975 46.8648 347.838 43.5819L339.169 47.5759ZM341.777 54.3474C342.253 57.1568 342.197 59.7831 341.636 62.2583L351.804 65.567C352.618 61.9745 352.681 58.2079 352.019 54.2994L341.777 54.3474ZM341.636 62.2583C341.066 64.7728 340.04 67.0437 338.55 69.093L347.426 75.2595C349.536 72.3585 350.998 69.1204 351.804 65.567L341.636 62.2583ZM338.576 69.0577C337.086 71.0588 335.192 72.746 332.862 74.1217L339.333 82.4602C342.564 80.552 345.264 78.1627 347.4 75.2948L338.576 69.0577ZM332.843 74.1326C330.637 75.4503 328.078 76.3396 325.115 76.7759L328.227 86.2792C332.355 85.6715 336.08 84.4031 339.351 82.4493L332.843 74.1326ZM325.115 76.7759C322.213 77.203 319.65 77.0547 317.362 76.463L316.042 85.702C320.038 86.7353 324.121 86.8837 328.227 86.2792L325.115 76.7759ZM317.362 76.463C314.942 75.8373 312.865 74.8459 311.051 73.5125L305.41 80.6911C308.607 83.0403 312.178 84.7027 316.042 85.702L317.362 76.463ZM311.141 73.5799C309.279 72.1602 307.702 70.4457 306.405 68.3818L297.637 72.2216C299.666 75.4485 302.229 78.2674 305.32 80.6237L311.141 73.5799ZM306.452 68.4579C305.197 66.3907 304.304 64.0436 303.829 61.3594L293.598 61.4744C294.266 65.2524 295.577 68.8285 297.59 72.1455L306.452 68.4579ZM51.5687 178.13L46.4263 178.018L47.2245 183.75L53.1249 182.881L51.5687 178.13ZM50.1944 168.259L48.6382 163.507L44.4911 164.118L45.052 168.147L50.1944 168.259ZM73.1787 164.875L78.321 164.987L77.5229 159.255L71.6225 160.124L73.1787 164.875ZM74.553 174.746L76.1091 179.498L80.2563 178.887L79.6953 174.858L74.553 174.746ZM60.2521 158.235L64.6236 156.296L57.9596 145.788L55.197 156.463L60.2521 158.235ZM56.9415 171.027L51.8864 169.255L51.4739 170.849L52.2958 172.483L56.9415 171.027ZM58.464 174.055L63.4134 176.17L64.0345 174.438L63.1097 172.599L58.464 174.055ZM55.1343 183.343L56.6905 188.094L59.2752 187.714L60.0837 185.458L55.1343 183.343ZM39.2416 185.682L34.2786 183.605L31.4319 191.813L40.7977 190.434L39.2416 185.682ZM56.7878 135.093L60.9703 132.874L54.8343 124.338L51.8249 133.015L56.7878 135.093ZM87.9961 178.505L89.5523 183.257L96.4588 182.24L92.1786 176.286L87.9961 178.505ZM72.7999 180.742L68.6336 182.983L70.8327 186.012L74.3561 185.494L72.7999 180.742ZM67.2381 173.082L62.0562 172.169L61.9865 173.828L63.0718 175.323L67.2381 173.082ZM67.3889 169.489L72.5708 170.402L72.6328 168.926L71.7605 167.55L67.3889 169.489ZM56.711 178.242L55.3367 168.371L45.052 168.147L46.4263 178.018L56.711 178.242ZM51.7505 173.011L74.7348 169.627L71.6225 160.124L48.6382 163.507L51.7505 173.011ZM68.0363 164.763L69.4106 174.634L79.6953 174.858L78.321 164.987L68.0363 164.763ZM72.9968 169.995L50.0125 173.378L53.1249 182.881L76.1091 179.498L72.9968 169.995ZM55.197 156.463L51.8864 169.255L61.9966 172.8L65.3072 160.008L55.197 156.463ZM52.2958 172.483L53.8182 175.51L63.1097 172.599L61.5873 169.571L52.2958 172.483ZM53.5145 171.939L50.1849 181.227L60.0837 185.458L63.4134 176.17L53.5145 171.939ZM53.5781 178.591L37.6854 180.931L40.7977 190.434L56.6905 188.094L53.5781 178.591ZM44.2045 187.76L61.7507 137.17L51.8249 133.015L34.2786 183.605L44.2045 187.76ZM52.6053 137.312L83.8136 180.724L92.1786 176.286L60.9703 132.874L52.6053 137.312ZM86.4399 173.753L71.2437 175.99L74.3561 185.494L89.5523 183.257L86.4399 173.753ZM76.9662 178.501L71.4044 170.84L63.0718 175.323L68.6336 182.983L76.9662 178.501ZM72.42 173.994L72.5708 170.402L62.207 168.577L62.0562 172.169L72.42 173.994ZM71.7605 167.55L64.6236 156.296L55.8805 160.175L63.0174 171.429L71.7605 167.55ZM85.5662 134.235L84.01 129.483L79.8392 130.097L80.4277 134.15L85.5662 134.235ZM99.876 132.128L105.014 132.214L104.187 126.513L98.3198 127.377L99.876 132.128ZM106.221 175.822L107.777 180.574L111.948 179.96L111.36 175.907L106.221 175.822ZM91.9114 177.929L86.7729 177.843L87.6007 183.544L93.4676 182.68L91.9114 177.929ZM101.219 176.558L96.0756 176.438L96.8648 182.18L102.775 181.31L101.219 176.558ZM99.5873 164.685L98.0311 159.934L93.891 160.543L94.4438 164.565L99.5873 164.685ZM111.445 161.983L108.316 157.753L108.3 157.762L108.284 157.771L111.445 161.983ZM114.945 158.281L110.177 155.741L110.159 155.775L110.143 155.81L114.945 158.281ZM115.522 152.139L120.645 152.124L120.64 152.092L120.634 152.059L115.522 152.139ZM113.985 147.647L109.502 149.404L109.512 149.42L109.521 149.436L113.985 147.647ZM111.406 144.839L113.927 141.043L113.927 141.043L111.406 144.839ZM107.999 143.556L108.087 138.818L108.087 138.818L107.999 143.556ZM96.5491 144.668L91.4051 144.543L92.1893 150.29L98.1053 149.419L96.5491 144.668ZM94.9372 132.856L93.381 128.104L89.2448 128.713L89.7932 132.731L94.9372 132.856ZM112.151 131.915L111.854 136.617L111.854 136.617L112.151 131.915ZM120.467 135.218L117.916 138.994L117.942 139.011L117.968 139.028L120.467 135.218ZM126.604 141.391L122.252 143.361L122.257 143.37L122.263 143.378L126.604 141.391ZM129.832 150.032L124.708 150.039L124.709 150.048L124.711 150.056L129.832 150.032ZM129.638 159.369L134.699 161.117L134.703 161.102L134.706 161.087L129.638 159.369ZM125.877 166.936L130.163 170.214L130.179 170.195L130.194 170.176L125.877 166.936ZM118.976 172.414L122 176.701L122.017 176.692L122.034 176.683L118.976 172.414ZM87.1224 138.987L101.432 136.88L98.3198 127.377L84.01 129.483L87.1224 138.987ZM94.7375 132.043L101.083 175.737L111.36 175.907L105.014 132.214L94.7375 132.043ZM104.665 171.07L90.3552 173.177L93.4676 182.68L107.777 180.574L104.665 171.07ZM97.0499 178.014L90.7047 134.32L80.4277 134.15L86.7729 177.843L97.0499 178.014ZM107.768 170.614L99.6629 171.807L102.775 181.31L110.88 180.117L107.768 170.614ZM106.363 176.679L104.731 164.806L94.4438 164.565L96.0756 176.438L106.363 176.679ZM101.143 169.437L107.792 168.458L104.679 158.955L98.0311 159.934L101.143 169.437ZM107.792 168.458C110.282 168.092 112.568 167.344 114.606 166.196L108.284 157.771C107.26 158.348 106.073 158.75 104.679 158.955L107.792 168.458ZM114.575 166.213C116.906 164.925 118.643 163.077 119.747 160.751L110.143 155.81C109.728 156.683 109.132 157.303 108.316 157.753L114.575 166.213ZM119.714 160.82C121.001 158.241 121.166 155.236 120.645 152.124L110.399 152.154C110.712 154.019 110.492 155.109 110.177 155.741L119.714 160.82ZM120.634 152.059C120.239 149.889 119.573 147.759 118.449 145.859L109.521 149.436C109.785 149.882 110.143 150.746 110.411 152.218L120.634 152.059ZM118.467 145.891C117.392 144.045 115.912 142.335 113.927 141.043L108.885 148.636C108.924 148.661 109.164 148.823 109.502 149.404L118.467 145.891ZM113.927 141.043C112.106 139.858 110.122 139.136 108.087 138.818L107.911 148.294C108.394 148.37 108.682 148.504 108.885 148.636L113.927 141.043ZM108.087 138.818C106.19 138.521 104.306 138.545 102.464 138.816L105.577 148.319C106.521 148.18 107.29 148.197 107.911 148.294L108.087 138.818ZM102.464 138.816L94.9929 139.916L98.1053 149.419L105.577 148.319L102.464 138.816ZM101.693 144.792L100.081 132.98L89.7932 132.731L91.4051 144.543L101.693 144.792ZM96.4934 137.607L103.712 136.545L100.599 127.041L93.381 128.104L96.4934 137.607ZM103.712 136.545C106.77 136.094 109.469 136.155 111.854 136.617L112.448 127.214C108.597 126.468 104.633 126.448 100.599 127.041L103.712 136.545ZM111.854 136.617C114.276 137.086 116.26 137.904 117.916 138.994L123.018 131.441C119.822 129.335 116.262 127.952 112.448 127.214L111.854 136.617ZM117.968 139.028C119.641 140.107 121.066 141.517 122.252 143.361L130.956 139.421C128.895 136.217 126.229 133.512 122.966 131.407L117.968 139.028ZM122.263 143.378C123.396 145.127 124.256 147.309 124.708 150.039L134.956 150.026C134.323 146.2 133.03 142.621 130.944 139.403L122.263 143.378ZM124.711 150.056C125.188 152.877 125.12 155.392 124.569 157.651L134.706 161.087C135.553 157.615 135.614 153.906 134.953 150.008L124.711 150.056ZM124.576 157.621C124.002 159.901 122.998 161.916 121.559 163.695L130.194 170.176C132.346 167.516 133.85 164.487 134.699 161.117L124.576 157.621ZM121.59 163.657C120.14 165.404 118.268 166.906 115.919 168.146L122.034 176.683C125.269 174.975 127.996 172.824 130.163 170.214L121.59 163.657ZM115.953 168.128C113.692 169.295 110.984 170.14 107.768 170.614L110.88 180.117C115.009 179.509 118.735 178.387 122 176.701L115.953 168.128ZM153.585 145.771L149.107 147.536L156.079 159.452L158.678 147.382L153.585 145.771ZM158.376 123.516L156.82 118.765L153.865 119.2L153.283 121.905L158.376 123.516ZM174.839 121.093L179.817 123.125L182.532 114.98L173.282 116.341L174.839 121.093ZM158.032 171.51L153.895 173.791L160.119 182.215L163.01 173.542L158.032 171.51ZM126.084 128.27L124.528 123.519L117.514 124.551L121.947 130.551L126.084 128.27ZM141.977 125.931L146.454 124.165L144.367 120.598L140.421 121.179L141.977 125.931ZM158.678 147.382L163.469 125.128L153.283 121.905L148.492 144.159L158.678 147.382ZM159.932 128.268L176.395 125.845L173.282 116.341L156.82 118.765L159.932 128.268ZM169.86 119.06L153.054 169.477L163.01 173.542L179.817 123.125L169.86 119.06ZM162.169 169.229L130.221 125.989L121.947 130.551L153.895 173.791L162.169 169.229ZM127.64 133.022L143.533 130.682L140.421 121.179L124.528 123.519L127.64 133.022ZM137.499 127.696L149.107 147.536L158.062 144.005L146.454 124.165L137.499 127.696ZM194.217 162.868L189.074 162.756L189.873 168.488L195.773 167.619L194.217 162.868ZM192.694 151.935L191.138 147.183L186.99 147.794L187.552 151.823L192.694 151.935ZM214.602 148.71L219.744 148.822L218.945 143.09L213.046 143.958L214.602 148.71ZM216.125 159.643L217.681 164.394L221.828 163.784L221.267 159.754L216.125 159.643ZM189.458 130.098L184.316 129.986L185.114 135.718L191.014 134.849L189.458 130.098ZM187.935 119.165L186.379 114.413L182.231 115.024L182.793 119.053L187.935 119.165ZM209.843 115.94L214.985 116.052L214.187 110.32L208.287 111.188L209.843 115.94ZM211.366 126.872L212.922 131.624L217.069 131.014L216.508 126.984L211.366 126.872ZM191.715 145.704L186.573 145.595L187.375 151.323L193.271 150.455L191.715 145.704ZM190.228 135.085L188.672 130.333L184.522 130.944L185.086 134.976L190.228 135.085ZM210.933 132.036L216.075 132.145L215.273 126.417L209.377 127.285L210.933 132.036ZM212.42 142.656L213.976 147.407L218.126 146.796L217.562 142.764L212.42 142.656ZM178.564 120.545L177.008 115.793L172.837 116.407L173.425 120.459L178.564 120.545ZM191.671 118.615L196.809 118.7L195.981 113L190.114 113.863L191.671 118.615ZM198.016 162.308L199.572 167.06L203.743 166.446L203.154 162.394L198.016 162.308ZM184.909 164.238L179.771 164.153L180.598 169.853L186.465 168.99L184.909 164.238ZM199.359 162.98L197.836 152.047L187.552 151.823L189.074 162.756L199.359 162.98ZM194.25 156.687L216.158 153.462L213.046 143.958L191.138 147.183L194.25 156.687ZM209.459 148.598L210.982 159.531L221.267 159.754L219.744 148.822L209.459 148.598ZM214.568 154.891L192.661 158.116L195.773 167.619L217.681 164.394L214.568 154.891ZM194.6 130.209L193.077 119.277L182.793 119.053L184.316 129.986L194.6 130.209ZM189.491 123.917L211.399 120.691L208.287 111.188L186.379 114.413L189.491 123.917ZM204.7 115.828L206.223 126.761L216.508 126.984L214.985 116.052L204.7 115.828ZM209.81 122.121L187.902 125.346L191.014 134.849L212.922 131.624L209.81 122.121ZM196.857 145.812L195.37 135.193L185.086 134.976L186.573 145.595L196.857 145.812ZM191.784 139.836L212.489 136.788L209.377 127.285L188.672 130.333L191.784 139.836ZM205.791 131.928L207.278 142.547L217.562 142.764L216.075 132.145L205.791 131.928ZM210.864 137.904L190.159 140.952L193.271 150.455L213.976 147.407L210.864 137.904ZM180.12 125.296L193.227 123.367L190.114 113.863L177.008 115.793L180.12 125.296ZM186.532 118.53L192.877 162.223L203.154 162.394L196.809 118.7L186.532 118.53ZM196.46 157.557L183.353 159.486L186.465 168.99L199.572 167.06L196.46 157.557ZM190.048 164.323L183.702 120.63L173.425 120.459L179.771 164.153L190.048 164.323ZM251.595 98.6364L250.039 93.8847L245.887 94.4959L246.453 98.5295L251.595 98.6364ZM267.978 96.2245L273.116 96.3054L272.284 90.6099L266.422 91.4729L267.978 96.2245ZM276.336 153.409L274.135 157.4L282.765 162.324L281.474 153.489L276.336 153.409ZM237.362 131.174L239.563 127.182L230.957 122.273L232.223 131.082L237.362 131.174ZM240.927 155.991L242.483 160.743L246.648 160.13L246.066 156.084L240.927 155.991ZM224.543 158.403L219.406 158.322L220.238 164.018L226.1 163.155L224.543 158.403ZM216.186 101.219L218.393 97.2311L209.755 92.2905L211.048 101.138L216.186 101.219ZM255.08 123.465L252.873 127.453L261.456 132.362L260.222 123.572L255.08 123.465ZM253.151 103.388L269.534 100.976L266.422 91.4729L250.039 93.8847L253.151 103.388ZM262.84 96.1436L271.198 153.328L281.474 153.489L273.116 96.3054L262.84 96.1436ZM278.537 149.417L239.563 127.182L235.161 135.166L274.135 157.4L278.537 149.417ZM232.223 131.082L235.787 155.899L246.066 156.084L242.502 131.266L232.223 131.082ZM239.371 151.24L222.987 153.652L226.1 163.155L242.483 160.743L239.371 151.24ZM229.681 158.484L221.324 101.3L211.048 101.138L219.406 158.322L229.681 158.484ZM213.979 105.207L252.873 127.453L257.288 119.477L218.393 97.2311L213.979 105.207ZM260.222 123.572L256.736 98.7433L246.453 98.5295L249.939 123.358L260.222 123.572ZM276.84 118.509L271.7 118.41L272.513 124.127L278.396 123.26L276.84 118.509ZM275.109 106.332L273.553 101.58L269.394 102.192L269.968 106.233L275.109 106.332ZM313.416 100.692L318.556 100.791L317.744 95.0745L311.86 95.9407L313.416 100.692ZM315.147 112.869L316.704 117.621L320.862 117.009L320.288 112.968L315.147 112.869ZM302.927 114.668L301.371 109.917L297.204 110.53L297.788 114.579L302.927 114.668ZM307.478 146.194L309.034 150.946L313.201 150.332L312.617 146.283L307.478 146.194ZM293.738 148.217L288.599 148.128L289.422 153.833L295.294 152.969L293.738 148.217ZM289.187 116.691L294.326 116.78L293.503 111.075L287.631 111.939L289.187 116.691ZM281.981 118.608L280.249 106.43L269.968 106.233L271.7 118.41L281.981 118.608ZM276.665 111.083L314.972 105.444L311.86 95.9407L273.553 101.58L276.665 111.083ZM308.276 100.594L310.007 112.771L320.288 112.968L318.556 100.791L308.276 100.594ZM313.591 108.118L301.371 109.917L304.483 119.42L316.704 117.621L313.591 108.118ZM297.788 114.579L302.338 146.105L312.617 146.283L308.066 114.757L297.788 114.579ZM305.921 141.442L292.181 143.465L295.294 152.969L309.034 150.946L305.921 141.442ZM298.877 148.306L294.326 116.78L284.048 116.602L288.599 148.128L298.877 148.306ZM287.631 111.939L275.284 113.757L278.396 123.26L290.743 121.443L287.631 111.939ZM317.187 100.137L315.631 95.3855L311.447 96.0015L312.051 100.068L317.187 100.137ZM330.927 98.1144L336.068 98.2188L335.262 92.4956L329.371 93.3628L330.927 98.1144ZM334.889 126.22L329.747 126.116L329.764 126.235L329.787 126.354L334.889 126.22ZM335.868 129.009L331.28 130.575L331.345 130.698L331.417 130.818L335.868 129.009ZM337.812 130.89L339.876 126.823L339.876 126.823L337.812 130.89ZM340.813 131.341L342.192 136.116L342.198 136.115L340.813 131.341ZM343.804 130.136L339.947 126.415L339.947 126.415L343.804 130.136ZM345.323 127.681L340.314 125.744L340.292 125.817L340.272 125.89L345.323 127.681ZM345.569 124.584L350.721 124.767L350.716 124.723L350.709 124.68L345.569 124.584ZM341.565 96.5485L340.008 91.7968L335.847 92.4094L336.425 96.4527L341.565 96.5485ZM355.241 94.5351L360.377 94.6046L359.533 88.9226L353.685 89.7834L355.241 94.5351ZM359.601 123.857L354.465 123.788L354.469 123.817L354.474 123.847L359.601 123.857ZM358.6 133.568L353.784 131.126L353.784 131.126L358.6 133.568ZM352.668 140.179L349.348 136.061L349.338 136.067L349.329 136.073L352.668 140.179ZM333.546 142.994L334.268 138.391L334.268 138.391L333.546 142.994ZM325.738 138.406L322.058 141.234L322.081 141.259L322.106 141.284L325.738 138.406ZM321.547 129.46L316.411 129.39L316.423 129.472L316.438 129.553L321.547 129.46ZM318.744 104.889L332.483 102.866L329.371 93.3628L315.631 95.3855L318.744 104.889ZM325.786 98.0101L329.747 126.116L340.03 126.325L336.068 98.2188L325.786 98.0101ZM329.787 126.354C330.066 127.794 330.554 129.21 331.28 130.575L340.457 127.442C340.26 127.073 340.095 126.631 339.99 126.087L329.787 126.354ZM331.417 130.818C332.412 132.485 333.858 133.94 335.748 134.958L339.876 126.823C339.986 126.882 340.1 126.964 340.196 127.058C340.29 127.148 340.325 127.208 340.32 127.2L331.417 130.818ZM335.748 134.958C338.01 136.176 340.316 136.325 342.192 136.116L339.435 126.566C339.197 126.593 339.136 126.572 339.218 126.585C339.315 126.599 339.561 126.653 339.876 126.823L335.748 134.958ZM342.198 136.115C344.256 135.883 346.156 135.176 347.66 133.856L339.947 126.415C339.939 126.423 339.846 126.52 339.429 126.567L342.198 136.115ZM347.66 133.856C349.001 132.679 349.918 131.197 350.373 129.471L340.272 125.89C340.214 126.111 340.118 126.265 339.947 126.415L347.66 133.856ZM350.331 129.618C350.802 128.076 350.929 126.447 350.721 124.767L340.418 124.402C340.478 124.892 340.441 125.328 340.314 125.744L350.331 129.618ZM350.709 124.68L346.705 96.6443L336.425 96.4527L340.429 124.488L350.709 124.68ZM343.121 101.3L356.797 99.2867L353.685 89.7834L340.008 91.7968L343.121 101.3ZM350.105 94.4656L354.465 123.788L364.737 123.927L360.377 94.6046L350.105 94.4656ZM354.474 123.847C354.964 126.879 354.658 129.246 353.784 131.126L363.416 136.009C365.085 132.415 365.446 128.308 364.728 123.868L354.474 123.847ZM353.784 131.126C352.838 133.162 351.382 134.795 349.348 136.061L355.988 144.297C359.32 142.223 361.818 139.448 363.416 136.009L353.784 131.126ZM349.329 136.073C347.257 137.378 344.762 138.275 341.768 138.715L344.881 148.219C349.063 147.603 352.797 146.308 356.007 144.285L349.329 136.073ZM341.768 138.715C338.915 139.136 336.439 138.977 334.268 138.391L332.824 147.597C336.768 148.661 340.811 148.818 344.881 148.219L341.768 138.715ZM334.268 138.391C332.278 137.854 330.704 136.914 329.37 135.527L322.106 141.284C325.067 144.365 328.699 146.484 332.824 147.597L334.268 138.391ZM329.419 135.578C328.279 134.366 327.224 132.438 326.656 129.366L316.438 129.553C317.247 133.928 318.986 137.965 322.058 141.234L329.419 135.578ZM326.683 129.529L322.324 100.207L312.051 100.068L316.411 129.39L326.683 129.529ZM379.775 116.425L378.219 111.673L371.069 112.726L375.694 118.781L379.775 116.425ZM393.388 114.421L397.193 111.73L394.963 109.208L391.832 109.669L393.388 114.421ZM408.355 131.344L409.911 136.095L417.725 134.945L412.16 128.652L408.355 131.344ZM392.905 133.618L388.825 135.974L391.039 138.873L394.461 138.37L392.905 133.618ZM363.323 93.3454L361.766 88.5937L357.596 89.2077L358.184 93.2603L363.323 93.3454ZM377.063 91.3227L382.201 91.4078L381.373 85.7073L375.506 86.571L377.063 91.3227ZM383.408 135.016L384.964 139.768L389.135 139.154L388.546 135.101L383.408 135.016ZM369.668 137.039L364.529 136.954L365.357 142.654L371.224 141.791L369.668 137.039ZM373.783 103.6L368.647 103.533L369.494 109.212L375.339 108.352L373.783 103.6ZM372.06 92.059L370.504 87.3074L366.317 87.9237L366.925 91.992L372.06 92.059ZM391.02 91.1805L390.165 95.7461L390.2 95.7563L390.235 95.7661L391.02 91.1805ZM398.119 95.4271L394.39 98.2034L394.431 98.2473L394.472 98.2906L398.119 95.4271ZM401.851 102.974L406.95 102.825L406.95 102.825L401.851 102.974ZM395.797 117.318L399.148 121.416L399.148 121.416L395.797 117.318ZM376.366 122.027L371.221 121.893L371.995 127.651L377.922 126.779L376.366 122.027ZM374.979 111.712L373.423 106.96L369.295 107.568L369.834 111.578L374.979 111.712ZM385.54 109.711L388.643 113.955L388.7 113.924L388.756 113.892L385.54 109.711ZM387.235 107.995L382.557 105.285L382.516 105.358L382.478 105.433L387.235 107.995ZM387.658 105.638L382.502 105.42L382.504 105.442L382.507 105.464L387.658 105.638ZM381.331 121.177L394.944 119.172L391.832 109.669L378.219 111.673L381.331 121.177ZM389.583 117.112L404.549 134.035L412.16 128.652L397.193 111.73L389.583 117.112ZM406.799 126.592L391.349 128.866L394.461 138.37L409.911 136.095L406.799 126.592ZM396.986 131.262L383.855 114.068L375.694 118.781L388.825 135.974L396.986 131.262ZM364.879 98.097L378.619 96.0743L375.506 86.571L361.766 88.5937L364.879 98.097ZM371.924 91.2376L378.269 134.931L388.546 135.101L382.201 91.4078L371.924 91.2376ZM381.852 130.264L368.112 132.287L371.224 141.791L384.964 139.768L381.852 130.264ZM374.806 137.124L368.461 93.4305L358.184 93.2603L364.529 136.954L374.806 137.124ZM378.918 103.667L377.196 92.1261L366.925 91.992L368.647 103.533L378.918 103.667ZM373.617 96.8107L382.734 95.4684L379.622 85.9651L370.504 87.3074L373.617 96.8107ZM382.734 95.4684C385.863 95.0078 388.295 95.1959 390.165 95.7461L391.875 86.6149C387.968 85.4655 383.838 85.3445 379.622 85.9651L382.734 95.4684ZM390.235 95.7661C392.095 96.2896 393.393 97.1174 394.39 98.2034L401.847 92.6507C399.131 89.6931 395.696 87.6899 391.806 86.5949L390.235 95.7661ZM394.472 98.2906C395.44 99.3048 396.296 100.806 396.753 103.123L406.95 102.825C406.201 99.0294 404.569 95.4994 401.766 92.5636L394.472 98.2906ZM396.753 103.123C397.2 105.39 397.011 107.27 396.312 108.892L406.032 113.577C407.444 110.299 407.708 106.671 406.95 102.825L396.753 103.123ZM396.312 108.892C395.595 110.556 394.36 112.004 392.446 113.219L399.148 121.416C402.289 119.422 404.637 116.814 406.032 113.577L396.312 108.892ZM392.446 113.219C390.54 114.429 388.022 115.33 384.751 115.812L387.863 125.315C392.19 124.678 395.999 123.415 399.148 121.416L392.446 113.219ZM384.751 115.812L374.81 117.275L377.922 126.779L387.863 125.315L384.751 115.812ZM381.511 122.16L380.124 111.845L369.834 111.578L371.221 121.893L381.511 122.16ZM376.535 116.463L384.387 115.308L381.274 105.804L373.423 106.96L376.535 116.463ZM384.387 115.308C385.901 115.085 387.349 114.658 388.643 113.955L382.437 105.466C382.229 105.58 381.871 105.716 381.274 105.804L384.387 115.308ZM388.756 113.892C390.118 113.098 391.259 112.002 391.992 110.557L382.478 105.433C382.489 105.41 382.499 105.403 382.489 105.413C382.477 105.425 382.431 105.468 382.325 105.53L388.756 113.892ZM391.913 110.705C392.746 109.227 393.027 107.555 392.808 105.811L382.507 105.464C382.51 105.488 382.505 105.464 382.514 105.411C382.524 105.356 382.542 105.311 382.557 105.285L391.913 110.705ZM392.813 105.855C392.631 104.277 392.016 102.451 390.519 100.821L383.062 106.374C382.528 105.792 382.491 105.326 382.502 105.42L392.813 105.855ZM390.519 100.821C389.149 99.3295 387.441 98.3945 385.716 97.8982L384.076 107.05C384.017 107.033 383.864 106.981 383.661 106.861C383.451 106.736 383.242 106.571 383.062 106.374L390.519 100.821ZM385.716 97.8982C383.946 97.3887 382.237 97.3745 380.711 97.5992L383.823 107.103C384.239 107.041 384.283 107.109 384.076 107.05L385.716 97.8982ZM380.711 97.5992L372.226 98.8483L375.339 108.352L383.823 107.103L380.711 97.5992ZM421.95 129.342L416.807 129.23L417.606 134.962L423.506 134.094L421.95 129.342ZM420.427 118.409L418.871 113.658L414.723 114.268L415.285 118.298L420.427 118.409ZM442.335 115.184L447.477 115.296L446.678 109.564L440.779 110.433L442.335 115.184ZM443.858 126.117L445.414 130.869L449.561 130.258L449 126.229L443.858 126.117ZM417.191 96.5721L412.049 96.4603L412.847 102.192L418.747 101.324L417.191 96.5721ZM415.668 85.6394L414.112 80.8877L409.964 81.4983L410.526 85.5276L415.668 85.6394ZM437.576 82.4142L442.718 82.526L441.92 76.794L436.02 77.6626L437.576 82.4142ZM439.099 93.3469L440.655 98.0986L444.802 97.488L444.241 93.4587L439.099 93.3469ZM419.448 112.178L414.306 112.07L415.108 117.798L421.004 116.93L419.448 112.178ZM417.961 101.559L416.405 96.8073L412.255 97.4183L412.819 101.45L417.961 101.559ZM438.666 98.5109L443.808 98.6195L443.006 92.8913L437.11 93.7592L438.666 98.5109ZM440.153 109.13L441.709 113.882L445.859 113.271L445.295 109.239L440.153 109.13ZM406.297 87.0189L404.741 82.2673L400.57 82.8813L401.158 86.9338L406.297 87.0189ZM419.404 85.0894L424.542 85.1745L423.714 79.4741L417.847 80.3378L419.404 85.0894ZM425.749 128.783L427.305 133.535L431.476 132.921L430.887 128.868L425.749 128.783ZM412.642 130.712L407.504 130.627L408.331 136.328L414.198 135.464L412.642 130.712ZM427.092 129.454L425.569 118.521L415.285 118.298L416.807 129.23L427.092 129.454ZM421.983 123.161L443.891 119.936L440.779 110.433L418.871 113.658L421.983 123.161ZM437.192 115.073L438.715 126.005L449 126.229L447.477 115.296L437.192 115.073ZM442.301 121.365L420.394 124.591L423.506 134.094L445.414 130.869L442.301 121.365ZM422.333 96.6838L420.81 85.7511L410.526 85.5276L412.049 96.4603L422.333 96.6838ZM417.224 90.3911L439.132 87.1659L436.02 77.6626L414.112 80.8877L417.224 90.3911ZM432.434 82.3025L433.956 93.2352L444.241 93.4587L442.718 82.526L432.434 82.3025ZM437.543 88.5953L415.635 91.8204L418.747 101.324L440.655 98.0986L437.543 88.5953ZM424.59 112.287L423.103 101.668L412.819 101.45L414.306 112.07L424.59 112.287ZM419.517 106.311L440.222 103.263L437.11 93.7592L416.405 96.8073L419.517 106.311ZM433.524 98.4023L435.011 109.022L445.295 109.239L443.808 98.6195L433.524 98.4023ZM438.597 104.379L417.892 107.427L421.004 116.93L441.709 113.882L438.597 104.379ZM407.853 91.7706L420.96 89.8411L417.847 80.3378L404.741 82.2673L407.853 91.7706ZM414.265 85.0043L420.61 128.698L430.887 128.868L424.542 85.1745L414.265 85.0043ZM424.193 124.031L411.086 125.961L414.198 135.464L427.305 133.535L424.193 124.031ZM417.781 130.798L411.435 87.104L401.158 86.9338L407.504 130.627L417.781 130.798ZM455.732 107.411L459.507 104.685L455.426 100.14L451.693 103.861L455.732 107.411ZM459.063 110.49L461.954 106.953L461.954 106.953L459.063 110.49ZM468.587 112.212L471.365 116.616L471.458 116.575L471.548 116.53L468.587 112.212ZM470.018 111.109L474.355 114.325L474.367 114.309L474.38 114.293L470.018 111.109ZM470.47 109.449L465.29 108.944L465.297 109.087L465.314 109.231L470.47 109.449ZM469.346 107.638L471.557 103.652L471.557 103.652L469.346 107.638ZM466.355 106.612L465.695 111.231L465.812 111.261L465.93 111.287L466.355 106.612ZM461.911 105.608L461.372 110.258L461.47 110.281L461.569 110.301L461.911 105.608ZM457.455 104.16L455.814 108.436L455.909 108.479L456.006 108.518L457.455 104.16ZM453.123 101.674L450.214 105.197L450.296 105.26L450.38 105.319L453.123 101.674ZM449.612 98.0471L445.387 100.206L445.399 100.223L445.411 100.241L449.612 98.0471ZM447.579 93.0548L442.46 93.094L442.466 93.1282L442.472 93.1624L447.579 93.0548ZM454.238 80.1526L451.065 75.9473L451.054 75.9532L451.044 75.9591L454.238 80.1526ZM462.328 77.4953L463.813 82.2569L463.849 82.2522L463.884 82.247L462.328 77.4953ZM470.111 77.7521L469.504 82.3852L469.549 82.3961L469.593 82.4064L470.111 77.7521ZM476.438 80.4546L473.843 84.2022L473.908 84.2458L473.974 84.2878L476.438 80.4546ZM481.285 84.7139L484.941 88.599L488.331 85.989L485.247 82.2074L481.285 84.7139ZM472.273 91.6508L468.751 94.6406L472.401 98.2519L475.929 95.5359L472.273 91.6508ZM469.867 89.7738L467.312 93.5483L467.468 93.6509L467.629 93.7444L469.867 89.7738ZM467.466 88.7246L466.767 93.3341L466.894 93.3677L467.021 93.3957L467.466 88.7246ZM463.27 89.0872L465.828 93.5809L465.98 93.5234L466.126 93.456L463.27 89.0872ZM461.97 89.98L466.081 93.4551L466.183 93.3487L466.275 93.2355L461.97 89.98ZM461.525 91.2568L456.349 90.8108L456.349 90.8108L461.525 91.2568ZM462.609 92.946L460.03 96.7041L460.12 96.764L460.212 96.8209L462.609 92.946ZM465.137 93.9765L464.415 98.5797L464.517 98.607L464.619 98.6308L465.137 93.9765ZM468.325 94.591L468.237 99.3291L468.363 99.3489L468.49 99.363L468.325 94.591ZM471.473 95.0839L471.081 99.7661L471.159 99.7826L471.237 99.7968L471.473 95.0839ZM477.954 97.4449L475.626 101.362L475.661 101.383L475.697 101.404L477.954 97.4449ZM482.487 101.559L478.265 103.723L478.308 103.783L478.352 103.843L482.487 101.559ZM484.866 107.202L489.985 107.162L489.981 107.138L489.976 107.114L484.866 107.202ZM483.68 115.537L478.99 112.849L478.988 112.852L483.68 115.537ZM477.932 121.292L474.712 117.114L474.676 117.135L474.64 117.157L477.932 121.292ZM469.606 124.239L471.09 129.001L471.126 128.996L471.162 128.991L469.606 124.239ZM461.066 123.902L461.52 119.233L461.497 119.228L461.474 119.223L461.066 123.902ZM453.547 120.802L456.053 116.996L456.053 116.996L453.547 120.802ZM447.776 115.34L443.737 111.79L441.239 114.28L443.591 117.556L447.776 115.34ZM451.957 110.136C453.247 111.573 454.651 112.877 456.173 114.027L461.954 106.953C461.123 106.325 460.306 105.575 459.507 104.685L451.957 110.136ZM456.173 114.027C457.879 115.317 459.753 116.322 461.778 116.962L463.728 107.905C463.185 107.733 462.6 107.442 461.954 106.953L456.173 114.027ZM461.778 116.962C463.973 117.657 466.161 117.805 468.26 117.496L465.148 107.993C464.545 108.081 464.099 108.022 463.728 107.905L461.778 116.962ZM468.26 117.496C469.353 117.335 470.393 117.044 471.365 116.616L465.809 107.809C465.621 107.891 465.406 107.955 465.148 107.993L468.26 117.496ZM471.548 116.53C472.606 116.005 473.587 115.29 474.355 114.325L465.681 107.893C465.718 107.845 465.745 107.825 465.743 107.827C465.74 107.829 465.707 107.854 465.626 107.894L471.548 116.53ZM474.38 114.293C475.38 113.009 475.828 111.415 475.625 109.666L465.314 109.231C465.29 109.021 465.298 108.772 465.369 108.514C465.439 108.257 465.551 108.06 465.656 107.925L474.38 114.293ZM475.649 109.954C475.596 108.92 475.31 107.713 474.559 106.502C473.789 105.263 472.715 104.316 471.557 103.652L467.134 111.623C466.684 111.366 466.151 110.923 465.757 110.287C465.38 109.68 465.302 109.176 465.29 108.944L475.649 109.954ZM471.557 103.652C470.04 102.783 468.337 102.273 466.78 101.936L465.93 111.287C466.397 111.388 466.73 111.484 466.95 111.559C467.178 111.637 467.217 111.671 467.134 111.623L471.557 103.652ZM467.015 101.992C465.623 101.632 464.031 101.274 462.254 100.916L461.569 110.301C463.202 110.63 464.572 110.941 465.695 111.231L467.015 101.992ZM462.45 100.959C461.349 100.698 460.168 100.318 458.904 99.8029L456.006 108.518C457.805 109.252 459.596 109.837 461.372 110.258L462.45 100.959ZM459.096 99.8848C457.991 99.3912 456.916 98.7763 455.866 98.029L450.38 105.319C452.1 106.544 453.913 107.587 455.814 108.436L459.096 99.8848ZM456.032 98.151C455.189 97.5089 454.452 96.753 453.813 95.8536L445.411 100.241C446.741 102.111 448.345 103.774 450.214 105.197L456.032 98.151ZM453.837 95.8885C453.363 95.2112 452.934 94.2724 452.685 92.9473L442.472 93.1624C442.939 95.6422 443.865 98.0316 445.387 100.206L453.837 95.8885ZM452.698 93.0157C452.363 91.0811 452.638 89.5529 453.4 88.247L444.102 82.7268C442.313 85.7916 441.806 89.3087 442.46 93.094L452.698 93.0157ZM453.4 88.247C454.313 86.6822 455.631 85.3824 457.432 84.346L451.044 75.9591C448.08 77.6645 445.739 79.9209 444.102 82.7268L453.4 88.247ZM457.411 84.3578C459.327 83.2703 461.45 82.571 463.813 82.2569L460.842 72.7337C457.27 73.2085 454 74.2807 451.065 75.9473L457.411 84.3578ZM463.884 82.247C466.182 81.9087 468.027 82.0176 469.504 82.3852L470.717 73.119C467.473 72.3116 464.131 72.2492 460.772 72.7436L463.884 82.247ZM469.593 82.4064C471.276 82.7987 472.666 83.4125 473.843 84.2022L479.033 76.7069C476.469 74.9874 473.641 73.7995 470.629 73.0978L469.593 82.4064ZM473.974 84.2878C475.33 85.1498 476.43 86.1261 477.322 87.2205L485.247 82.2074C483.478 80.0384 481.346 78.1751 478.902 76.6213L473.974 84.2878ZM477.629 80.8289L468.617 87.7658L475.929 95.5359L484.941 88.599L477.629 80.8289ZM475.796 88.6611C474.695 87.5718 473.468 86.5933 472.104 85.8031L467.629 93.7444C467.903 93.9031 468.281 94.176 468.751 94.6406L475.796 88.6611ZM472.421 85.9992C471.058 85.1003 469.545 84.413 467.91 84.0536L467.021 93.3957C467.023 93.396 467.04 93.3997 467.08 93.417C467.121 93.4351 467.198 93.4731 467.312 93.5483L472.421 85.9992ZM468.164 84.1152C466.499 83.6731 464.872 83.6156 463.344 83.8406L466.456 93.3439C466.585 93.3251 466.667 93.3251 466.71 93.3273C466.751 93.3294 466.767 93.334 466.767 93.3341L468.164 84.1152ZM463.344 83.8406C462.284 83.9966 461.308 84.3049 460.415 84.7185L466.126 93.456C466.309 93.3712 466.419 93.3495 466.456 93.3439L463.344 83.8406ZM460.712 84.5936C459.544 85.0357 458.48 85.7269 457.664 86.7245L466.275 93.2355C466.19 93.3402 466.096 93.4225 466.008 93.4831C465.921 93.5425 465.854 93.571 465.828 93.5809L460.712 84.5936ZM457.858 86.5049C456.757 87.6628 456.242 89.1693 456.349 90.8108L466.702 91.7027C466.719 91.9756 466.691 92.3023 466.573 92.6408C466.455 92.9803 466.274 93.2528 466.081 93.4551L457.858 86.5049ZM456.349 90.8108C456.506 93.2327 457.966 95.3288 460.03 96.7041L465.189 89.188C465.44 89.3557 465.842 89.687 466.184 90.2187C466.534 90.7646 466.675 91.2963 466.702 91.7027L456.349 90.8108ZM460.212 96.8209C461.556 97.6525 463.012 98.2012 464.415 98.5797L465.859 89.3733C465.223 89.2018 464.994 89.0635 465.007 89.0711L460.212 96.8209ZM464.619 98.6308C465.782 98.9019 466.989 99.1337 468.237 99.3291L468.413 89.8529C467.422 89.6978 466.504 89.5199 465.655 89.3222L464.619 98.6308ZM468.49 99.363C469.488 99.4748 470.349 99.612 471.081 99.7661L471.865 90.4016C470.697 90.1555 469.458 89.9642 468.16 89.819L468.49 99.363ZM471.237 99.7968C473.078 100.133 474.504 100.687 475.626 101.362L480.283 93.528C477.657 91.949 474.763 90.929 471.709 90.3709L471.237 99.7968ZM475.697 101.404C476.8 102.048 477.626 102.811 478.265 103.723L486.709 99.3956C485.025 96.9945 482.828 95.0141 480.211 93.4857L475.697 101.404ZM478.352 103.843C478.962 104.668 479.477 105.77 479.756 107.29L489.976 107.114C489.465 104.33 488.394 101.67 486.622 99.2752L478.352 103.843ZM479.748 107.242C480.139 109.507 479.84 111.317 478.99 112.849L488.37 118.225C490.191 114.943 490.683 111.196 489.985 107.162L479.748 107.242ZM478.988 112.852C478.039 114.566 476.642 115.985 474.712 117.114L481.153 125.47C484.273 123.645 486.708 121.228 488.372 118.221L478.988 112.852ZM474.64 117.157C472.689 118.351 470.504 119.126 468.049 119.488L471.162 128.991C474.87 128.445 478.236 127.256 481.225 125.427L474.64 117.157ZM468.121 119.477C465.761 119.791 463.572 119.688 461.52 119.233L460.613 128.571C464.094 129.342 467.599 129.464 471.09 129.001L468.121 119.477ZM461.474 119.223C459.473 118.797 457.685 118.052 456.053 116.996L451.04 124.608C454.011 126.529 457.237 127.852 460.658 128.581L461.474 119.223ZM456.053 116.996C454.408 115.932 453.058 114.653 451.96 113.123L443.591 117.556C445.584 120.332 448.082 122.694 451.04 124.608L456.053 116.996ZM451.814 118.889L459.77 110.96L451.693 103.861L443.737 111.79L451.814 118.889Z" fill="white" mask="url(#path-1-outside-1_282_816)"/>
</svg>
